<svg version="1.1" xmlns="http://www.w3.org/2000/svg" xmlns:xlink="http://www.w3.org/1999/xlink" width="825" height="499"><defs/><g><text fill="#eeeeee" stroke="none" font-family="Arial" font-size="24px" font-style="normal" font-weight="normal" text-decoration="none" x="0" y="0">UNREGISTERED</text><text fill="#eeeeee" stroke="none" font-family="Arial" font-size="24px" font-style="normal" font-weight="normal" text-decoration="none" x="0" y="30">UNREGISTERED</text><text fill="#eeeeee" stroke="none" font-family="Arial" font-size="24px" font-style="normal" font-weight="normal" text-decoration="none" x="0" y="60">UNREGISTERED</text><text fill="#eeeeee" stroke="none" font-family="Arial" font-size="24px" font-style="normal" font-weight="normal" text-decoration="none" x="0" y="90">UNREGISTERED</text><text fill="#eeeeee" stroke="none" font-family="Arial" font-size="24px" font-style="normal" font-weight="normal" text-decoration="none" x="0" y="120">UNREGISTERED</text><text fill="#eeeeee" stroke="none" font-family="Arial" font-size="24px" font-style="normal" font-weight="normal" text-decoration="none" x="0" y="150">UNREGISTERED</text><text fill="#eeeeee" stroke="none" font-family="Arial" font-size="24px" font-style="normal" font-weight="normal" text-decoration="none" x="0" y="180">UNREGISTERED</text><text fill="#eeeeee" stroke="none" font-family="Arial" font-size="24px" font-style="normal" font-weight="normal" text-decoration="none" x="0" y="210">UNREGISTERED</text><text fill="#eeeeee" stroke="none" font-family="Arial" font-size="24px" font-style="normal" font-weight="normal" text-decoration="none" x="0" y="240">UNREGISTERED</text><text fill="#eeeeee" stroke="none" font-family="Arial" font-size="24px" font-style="normal" font-weight="normal" text-decoration="none" x="0" y="270">UNREGISTERED</text><text fill="#eeeeee" stroke="none" font-family="Arial" font-size="24px" font-style="normal" font-weight="normal" text-decoration="none" x="0" y="300">UNREGISTERED</text><text fill="#eeeeee" stroke="none" font-family="Arial" font-size="24px" font-style="normal" font-weight="normal" text-decoration="none" x="0" y="330">UNREGISTERED</text><text fill="#eeeeee" stroke="none" font-family="Arial" font-size="24px" font-style="normal" font-weight="normal" text-decoration="none" x="0" y="360">UNREGISTERED</text><text fill="#eeeeee" stroke="none" font-family="Arial" font-size="24px" font-style="normal" font-weight="normal" text-decoration="none" x="0" y="390">UNREGISTERED</text><text fill="#eeeeee" stroke="none" font-family="Arial" font-size="24px" font-style="normal" font-weight="normal" text-decoration="none" x="0" y="420">UNREGISTERED</text><text fill="#eeeeee" stroke="none" font-family="Arial" font-size="24px" font-style="normal" font-weight="normal" text-decoration="none" x="0" y="450">UNREGISTERED</text><text fill="#eeeeee" stroke="none" font-family="Arial" font-size="24px" font-style="normal" font-weight="normal" text-decoration="none" x="0" y="480">UNREGISTERED</text><text fill="#eeeeee" stroke="none" font-family="Arial" font-size="24px" font-style="normal" font-weight="normal" text-decoration="none" x="200" y="0">UNREGISTERED</text><text fill="#eeeeee" stroke="none" font-family="Arial" font-size="24px" font-style="normal" font-weight="normal" text-decoration="none" x="200" y="30">UNREGISTERED</text><text fill="#eeeeee" stroke="none" font-family="Arial" font-size="24px" font-style="normal" font-weight="normal" text-decoration="none" x="200" y="60">UNREGISTERED</text><text fill="#eeeeee" stroke="none" font-family="Arial" font-size="24px" font-style="normal" font-weight="normal" text-decoration="none" x="200" y="90">UNREGISTERED</text><text fill="#eeeeee" stroke="none" font-family="Arial" font-size="24px" font-style="normal" font-weight="normal" text-decoration="none" x="200" y="120">UNREGISTERED</text><text fill="#eeeeee" stroke="none" font-family="Arial" font-size="24px" font-style="normal" font-weight="normal" text-decoration="none" x="200" y="150">UNREGISTERED</text><text fill="#eeeeee" stroke="none" font-family="Arial" font-size="24px" font-style="normal" font-weight="normal" text-decoration="none" x="200" y="180">UNREGISTERED</text><text fill="#eeeeee" stroke="none" font-family="Arial" font-size="24px" font-style="normal" font-weight="normal" text-decoration="none" x="200" y="210">UNREGISTERED</text><text fill="#eeeeee" stroke="none" font-family="Arial" font-size="24px" font-style="normal" font-weight="normal" text-decoration="none" x="200" y="240">UNREGISTERED</text><text fill="#eeeeee" stroke="none" font-family="Arial" font-size="24px" font-style="normal" font-weight="normal" text-decoration="none" x="200" y="270">UNREGISTERED</text><text fill="#eeeeee" stroke="none" font-family="Arial" font-size="24px" font-style="normal" font-weight="normal" text-decoration="none" x="200" y="300">UNREGISTERED</text><text fill="#eeeeee" stroke="none" font-family="Arial" font-size="24px" font-style="normal" font-weight="normal" text-decoration="none" x="200" y="330">UNREGISTERED</text><text fill="#eeeeee" stroke="none" font-family="Arial" font-size="24px" font-style="normal" font-weight="normal" text-decoration="none" x="200" y="360">UNREGISTERED</text><text fill="#eeeeee" stroke="none" font-family="Arial" font-size="24px" font-style="normal" font-weight="normal" text-decoration="none" x="200" y="390">UNREGISTERED</text><text fill="#eeeeee" stroke="none" font-family="Arial" font-size="24px" font-style="normal" font-weight="normal" text-decoration="none" x="200" y="420">UNREGISTERED</text><text fill="#eeeeee" stroke="none" font-family="Arial" font-size="24px" font-style="normal" font-weight="normal" text-decoration="none" x="200" y="450">UNREGISTERED</text><text fill="#eeeeee" stroke="none" font-family="Arial" font-size="24px" font-style="normal" font-weight="normal" text-decoration="none" x="200" y="480">UNREGISTERED</text><text fill="#eeeeee" stroke="none" font-family="Arial" font-size="24px" font-style="normal" font-weight="normal" text-decoration="none" x="400" y="0">UNREGISTERED</text><text fill="#eeeeee" stroke="none" font-family="Arial" font-size="24px" font-style="normal" font-weight="normal" text-decoration="none" x="400" y="30">UNREGISTERED</text><text fill="#eeeeee" stroke="none" font-family="Arial" font-size="24px" font-style="normal" font-weight="normal" text-decoration="none" x="400" y="60">UNREGISTERED</text><text fill="#eeeeee" stroke="none" font-family="Arial" font-size="24px" font-style="normal" font-weight="normal" text-decoration="none" x="400" y="90">UNREGISTERED</text><text fill="#eeeeee" stroke="none" font-family="Arial" font-size="24px" font-style="normal" font-weight="normal" text-decoration="none" x="400" y="120">UNREGISTERED</text><text fill="#eeeeee" stroke="none" font-family="Arial" font-size="24px" font-style="normal" font-weight="normal" text-decoration="none" x="400" y="150">UNREGISTERED</text><text fill="#eeeeee" stroke="none" font-family="Arial" font-size="24px" font-style="normal" font-weight="normal" text-decoration="none" x="400" y="180">UNREGISTERED</text><text fill="#eeeeee" stroke="none" font-family="Arial" font-size="24px" font-style="normal" font-weight="normal" text-decoration="none" x="400" y="210">UNREGISTERED</text><text fill="#eeeeee" stroke="none" font-family="Arial" font-size="24px" font-style="normal" font-weight="normal" text-decoration="none" x="400" y="240">UNREGISTERED</text><text fill="#eeeeee" stroke="none" font-family="Arial" font-size="24px" font-style="normal" font-weight="normal" text-decoration="none" x="400" y="270">UNREGISTERED</text><text fill="#eeeeee" stroke="none" font-family="Arial" font-size="24px" font-style="normal" font-weight="normal" text-decoration="none" x="400" y="300">UNREGISTERED</text><text fill="#eeeeee" stroke="none" font-family="Arial" font-size="24px" font-style="normal" font-weight="normal" text-decoration="none" x="400" y="330">UNREGISTERED</text><text fill="#eeeeee" stroke="none" font-family="Arial" font-size="24px" font-style="normal" font-weight="normal" text-decoration="none" x="400" y="360">UNREGISTERED</text><text fill="#eeeeee" stroke="none" font-family="Arial" font-size="24px" font-style="normal" font-weight="normal" text-decoration="none" x="400" y="390">UNREGISTERED</text><text fill="#eeeeee" stroke="none" font-family="Arial" font-size="24px" font-style="normal" font-weight="normal" text-decoration="none" x="400" y="420">UNREGISTERED</text><text fill="#eeeeee" stroke="none" font-family="Arial" font-size="24px" font-style="normal" font-weight="normal" text-decoration="none" x="400" y="450">UNREGISTERED</text><text fill="#eeeeee" stroke="none" font-family="Arial" font-size="24px" font-style="normal" font-weight="normal" text-decoration="none" x="400" y="480">UNREGISTERED</text><text fill="#eeeeee" stroke="none" font-family="Arial" font-size="24px" font-style="normal" font-weight="normal" text-decoration="none" x="600" y="0">UNREGISTERED</text><text fill="#eeeeee" stroke="none" font-family="Arial" font-size="24px" font-style="normal" font-weight="normal" text-decoration="none" x="600" y="30">UNREGISTERED</text><text fill="#eeeeee" stroke="none" font-family="Arial" font-size="24px" font-style="normal" font-weight="normal" text-decoration="none" x="600" y="60">UNREGISTERED</text><text fill="#eeeeee" stroke="none" font-family="Arial" font-size="24px" font-style="normal" font-weight="normal" text-decoration="none" x="600" y="90">UNREGISTERED</text><text fill="#eeeeee" stroke="none" font-family="Arial" font-size="24px" font-style="normal" font-weight="normal" text-decoration="none" x="600" y="120">UNREGISTERED</text><text fill="#eeeeee" stroke="none" font-family="Arial" font-size="24px" font-style="normal" font-weight="normal" text-decoration="none" x="600" y="150">UNREGISTERED</text><text fill="#eeeeee" stroke="none" font-family="Arial" font-size="24px" font-style="normal" font-weight="normal" text-decoration="none" x="600" y="180">UNREGISTERED</text><text fill="#eeeeee" stroke="none" font-family="Arial" font-size="24px" font-style="normal" font-weight="normal" text-decoration="none" x="600" y="210">UNREGISTERED</text><text fill="#eeeeee" stroke="none" font-family="Arial" font-size="24px" font-style="normal" font-weight="normal" text-decoration="none" x="600" y="240">UNREGISTERED</text><text fill="#eeeeee" stroke="none" font-family="Arial" font-size="24px" font-style="normal" font-weight="normal" text-decoration="none" x="600" y="270">UNREGISTERED</text><text fill="#eeeeee" stroke="none" font-family="Arial" font-size="24px" font-style="normal" font-weight="normal" text-decoration="none" x="600" y="300">UNREGISTERED</text><text fill="#eeeeee" stroke="none" font-family="Arial" font-size="24px" font-style="normal" font-weight="normal" text-decoration="none" x="600" y="330">UNREGISTERED</text><text fill="#eeeeee" stroke="none" font-family="Arial" font-size="24px" font-style="normal" font-weight="normal" text-decoration="none" x="600" y="360">UNREGISTERED</text><text fill="#eeeeee" stroke="none" font-family="Arial" font-size="24px" font-style="normal" font-weight="normal" text-decoration="none" x="600" y="390">UNREGISTERED</text><text fill="#eeeeee" stroke="none" font-family="Arial" font-size="24px" font-style="normal" font-weight="normal" text-decoration="none" x="600" y="420">UNREGISTERED</text><text fill="#eeeeee" stroke="none" font-family="Arial" font-size="24px" font-style="normal" font-weight="normal" text-decoration="none" x="600" y="450">UNREGISTERED</text><text fill="#eeeeee" stroke="none" font-family="Arial" font-size="24px" font-style="normal" font-weight="normal" text-decoration="none" x="600" y="480">UNREGISTERED</text><text fill="#eeeeee" stroke="none" font-family="Arial" font-size="24px" font-style="normal" font-weight="normal" text-decoration="none" x="800" y="0">UNREGISTERED</text><text fill="#eeeeee" stroke="none" font-family="Arial" font-size="24px" font-style="normal" font-weight="normal" text-decoration="none" x="800" y="30">UNREGISTERED</text><text fill="#eeeeee" stroke="none" font-family="Arial" font-size="24px" font-style="normal" font-weight="normal" text-decoration="none" x="800" y="60">UNREGISTERED</text><text fill="#eeeeee" stroke="none" font-family="Arial" font-size="24px" font-style="normal" font-weight="normal" text-decoration="none" x="800" y="90">UNREGISTERED</text><text fill="#eeeeee" stroke="none" font-family="Arial" font-size="24px" font-style="normal" font-weight="normal" text-decoration="none" x="800" y="120">UNREGISTERED</text><text fill="#eeeeee" stroke="none" font-family="Arial" font-size="24px" font-style="normal" font-weight="normal" text-decoration="none" x="800" y="150">UNREGISTERED</text><text fill="#eeeeee" stroke="none" font-family="Arial" font-size="24px" font-style="normal" font-weight="normal" text-decoration="none" x="800" y="180">UNREGISTERED</text><text fill="#eeeeee" stroke="none" font-family="Arial" font-size="24px" font-style="normal" font-weight="normal" text-decoration="none" x="800" y="210">UNREGISTERED</text><text fill="#eeeeee" stroke="none" font-family="Arial" font-size="24px" font-style="normal" font-weight="normal" text-decoration="none" x="800" y="240">UNREGISTERED</text><text fill="#eeeeee" stroke="none" font-family="Arial" font-size="24px" font-style="normal" font-weight="normal" text-decoration="none" x="800" y="270">UNREGISTERED</text><text fill="#eeeeee" stroke="none" font-family="Arial" font-size="24px" font-style="normal" font-weight="normal" text-decoration="none" x="800" y="300">UNREGISTERED</text><text fill="#eeeeee" stroke="none" font-family="Arial" font-size="24px" font-style="normal" font-weight="normal" text-decoration="none" x="800" y="330">UNREGISTERED</text><text fill="#eeeeee" stroke="none" font-family="Arial" font-size="24px" font-style="normal" font-weight="normal" text-decoration="none" x="800" y="360">UNREGISTERED</text><text fill="#eeeeee" stroke="none" font-family="Arial" font-size="24px" font-style="normal" font-weight="normal" text-decoration="none" x="800" y="390">UNREGISTERED</text><text fill="#eeeeee" stroke="none" font-family="Arial" font-size="24px" font-style="normal" font-weight="normal" text-decoration="none" x="800" y="420">UNREGISTERED</text><text fill="#eeeeee" stroke="none" font-family="Arial" font-size="24px" font-style="normal" font-weight="normal" text-decoration="none" x="800" y="450">UNREGISTERED</text><text fill="#eeeeee" stroke="none" font-family="Arial" font-size="24px" font-style="normal" font-weight="normal" text-decoration="none" x="800" y="480">UNREGISTERED</text><g transform="translate(-128,-30) scale(1,1)"><rect fill="#C0C0C0" stroke="none" x="399" y="47" width="220.39999999999998" height="15" opacity="0.2"/></g><g transform="translate(-128,-30) scale(1,1)"><rect fill="#C0C0C0" stroke="none" x="399" y="61" width="551" height="465" opacity="0.2"/></g><g transform="translate(-128,-30) scale(1,1)"><rect fill="#ffffff" stroke="none" x="392" y="55" width="551" height="464"/></g><g transform="translate(-128,-30) scale(1,1)"><path fill="none" stroke="#000000" d="M 392 55 L 943 55 L 943 519 L 392 519 L 392 55 Z Z" stroke-miterlimit="10"/></g><g transform="translate(-128,-30) scale(1,1)"><rect fill="#ffffff" stroke="none" x="392" y="40" width="220.39999999999998" height="15"/></g><g transform="translate(-128,-30) scale(1,1)"><path fill="none" stroke="#000000" d="M 392 40 L 612.4 40 L 612.4 55 L 392 55 L 392 40 Z Z" stroke-miterlimit="10"/></g><g transform="translate(-128,-30) scale(1,1)"><rect fill="#ffffff" stroke="none" x="392" y="54" width="551" height="465"/></g><g transform="translate(-128,-30) scale(1,1)"><path fill="none" stroke="#000000" d="M 392 54 L 943 54 L 943 519 L 392 519 L 392 54 Z Z" stroke-miterlimit="10"/></g><g transform="translate(-128,-30) scale(1,1)"><g><path fill="none" stroke="none"/><text fill="#000000" stroke="none" font-family="Arial" font-size="13px" font-style="normal" font-weight="bold" text-decoration="none" x="636.06640625" y="74.5">interaccion</text></g></g><g transform="translate(-128,-30) scale(1,1)"><path fill="#ffffff" stroke="none" d="M 173.90617649147728 160.68 C 173.90617649147728 155.886167936 177.79201881642274 152 182.58544921875 152 C 187.37887962107726 152 191.26472194602272 155.886167936 191.26472194602272 160.68 C 191.26472194602272 165.47383206400002 187.37887962107726 169.36 182.58544921875 169.36 C 177.79201881642274 169.36 173.90617649147728 165.47383206400002 173.90617649147728 160.68 Z"/></g><g transform="translate(-128,-30) scale(1,1)"><path fill="none" stroke="#000000" d="M 173.90617649147728 160.68 C 173.90617649147728 155.886167936 177.79201881642274 152 182.58544921875 152 C 187.37887962107726 152 191.26472194602272 155.886167936 191.26472194602272 160.68 C 191.26472194602272 165.47383206400002 187.37887962107726 169.36 182.58544921875 169.36 C 177.79201881642274 169.36 173.90617649147728 165.47383206400002 173.90617649147728 160.68 Z" stroke-miterlimit="10"/></g><g transform="translate(-128,-30) scale(1,1)"><path fill="none" stroke="#000000" d="M 182.58544921875 169.36 L 182.58544921875 186.64" stroke-miterlimit="10"/></g><g transform="translate(-128,-30) scale(1,1)"><path fill="none" stroke="#000000" d="M 173.39563103693183 175.84 L 191.77526740056817 175.84" stroke-miterlimit="10"/></g><g transform="translate(-128,-30) scale(1,1)"><path fill="none" stroke="#000000" d="M 182.58544921875 186.64 L 169.82181285511365 204" stroke-miterlimit="10"/></g><g transform="translate(-128,-30) scale(1,1)"><path fill="none" stroke="#000000" d="M 182.58544921875 186.64 L 195.34908558238635 204" stroke-miterlimit="10"/></g><g transform="translate(-128,-30) scale(1,1)"><g><path fill="none" stroke="none"/><text fill="#000000" stroke="none" font-family="Arial" font-size="13px" font-style="normal" font-weight="bold" text-decoration="none" x="145.73095703125" y="224.5">Conductores</text></g></g><g transform="translate(-128,-30) scale(1,1)"><path fill="#ffffff" stroke="none" d="M 188.79753391335228 385.68 C 188.79753391335228 380.886167936 192.68337623829774 377 197.476806640625 377 C 202.27023704295226 377 206.15607936789772 380.886167936 206.15607936789772 385.68 C 206.15607936789772 390.473832064 202.27023704295226 394.36 197.476806640625 394.36 C 192.68337623829774 394.36 188.79753391335228 390.473832064 188.79753391335228 385.68 Z"/></g><g transform="translate(-128,-30) scale(1,1)"><path fill="none" stroke="#000000" d="M 188.79753391335228 385.68 C 188.79753391335228 380.886167936 192.68337623829774 377 197.476806640625 377 C 202.27023704295226 377 206.15607936789772 380.886167936 206.15607936789772 385.68 C 206.15607936789772 390.473832064 202.27023704295226 394.36 197.476806640625 394.36 C 192.68337623829774 394.36 188.79753391335228 390.473832064 188.79753391335228 385.68 Z" stroke-miterlimit="10"/></g><g transform="translate(-128,-30) scale(1,1)"><path fill="none" stroke="#000000" d="M 197.476806640625 394.36 L 197.476806640625 411.64" stroke-miterlimit="10"/></g><g transform="translate(-128,-30) scale(1,1)"><path fill="none" stroke="#000000" d="M 188.28698845880683 400.84 L 206.66662482244317 400.84" stroke-miterlimit="10"/></g><g transform="translate(-128,-30) scale(1,1)"><path fill="none" stroke="#000000" d="M 197.476806640625 411.64 L 184.71317027698865 429" stroke-miterlimit="10"/></g><g transform="translate(-128,-30) scale(1,1)"><path fill="none" stroke="#000000" d="M 197.476806640625 411.64 L 210.24044300426135 429" stroke-miterlimit="10"/></g><g transform="translate(-128,-30) scale(1,1)"><g><path fill="none" stroke="none"/><text fill="#000000" stroke="none" font-family="Arial" font-size="13px" font-style="normal" font-weight="bold" text-decoration="none" x="182.30908203125" y="449.5">movil</text></g></g><g transform="translate(-128,-30) scale(1,1)"><path fill="#ffffff" stroke="none" d="M 198.12980930397728 265.68 C 198.12980930397728 260.886167936 202.01565162892274 257 206.80908203125 257 C 211.60251243357726 257 215.48835475852272 260.886167936 215.48835475852272 265.68 C 215.48835475852272 270.473832064 211.60251243357726 274.36 206.80908203125 274.36 C 202.01565162892274 274.36 198.12980930397728 270.473832064 198.12980930397728 265.68 Z"/></g><g transform="translate(-128,-30) scale(1,1)"><path fill="none" stroke="#000000" d="M 198.12980930397728 265.68 C 198.12980930397728 260.886167936 202.01565162892274 257 206.80908203125 257 C 211.60251243357726 257 215.48835475852272 260.886167936 215.48835475852272 265.68 C 215.48835475852272 270.473832064 211.60251243357726 274.36 206.80908203125 274.36 C 202.01565162892274 274.36 198.12980930397728 270.473832064 198.12980930397728 265.68 Z" stroke-miterlimit="10"/></g><g transform="translate(-128,-30) scale(1,1)"><path fill="none" stroke="#000000" d="M 206.80908203125 274.36 L 206.80908203125 291.64" stroke-miterlimit="10"/></g><g transform="translate(-128,-30) scale(1,1)"><path fill="none" stroke="#000000" d="M 197.61926384943183 280.84 L 215.99890021306817 280.84" stroke-miterlimit="10"/></g><g transform="translate(-128,-30) scale(1,1)"><path fill="none" stroke="#000000" d="M 206.80908203125 291.64 L 194.04544566761365 309" stroke-miterlimit="10"/></g><g transform="translate(-128,-30) scale(1,1)"><path fill="none" stroke="#000000" d="M 206.80908203125 291.64 L 219.57271839488635 309" stroke-miterlimit="10"/></g><g transform="translate(-128,-30) scale(1,1)"><g><path fill="none" stroke="none"/><text fill="#000000" stroke="none" font-family="Arial" font-size="13px" font-style="normal" font-weight="bold" text-decoration="none" x="176.4609375" y="329.5">dispositivo</text></g></g><g transform="translate(-128,-30) scale(1,1)"><path fill="#C0C0C0" stroke="none" d="M 607 136 C 607 126.6111584 676.1719984 119 761.5 119 C 846.8280016 119 916 126.6111584 916 136 C 916 145.3888416 846.8280016 153 761.5 153 C 676.1719984 153 607 145.3888416 607 136 Z" opacity="0.2"/></g><g transform="translate(-128,-30) scale(1,1)"><path fill="#ffffff" stroke="none" d="M 600 129 C 600 119.6111584 669.1719984 112 754.5 112 C 839.8280016 112 909 119.6111584 909 129 C 909 138.3888416 839.8280016 146 754.5 146 C 669.1719984 146 600 138.3888416 600 129 Z"/></g><g transform="translate(-128,-30) scale(1,1)"><path fill="none" stroke="#000000" d="M 600 129 C 600 119.6111584 669.1719984 112 754.5 112 C 839.8280016 112 909 119.6111584 909 129 C 909 138.3888416 839.8280016 146 754.5 146 C 669.1719984 146 600 138.3888416 600 129 Z" stroke-miterlimit="10"/></g><g transform="translate(-128,-30) scale(1,1)"><g><path fill="none" stroke="none"/><text fill="#000000" stroke="none" font-family="Arial" font-size="13px" font-style="normal" font-weight="bold" text-decoration="none" x="657.669677734375" y="136">solo interactuan para ir marcando</text></g></g><g transform="translate(-128,-30) scale(1,1)"><path fill="none" stroke="#000000" d="M 228 185 L 599 146" stroke-miterlimit="10"/></g><g transform="translate(-128,-30) scale(1,1)"><path fill="none" stroke="#000000" d="M 695 147 L 247 283" stroke-miterlimit="10"/></g><g transform="translate(-128,-30) scale(1,1)"><path fill="none" stroke="#000000" d="M 203 336 L 200 375" stroke-miterlimit="10"/></g><g transform="translate(-128,-30) scale(1,1)"><path fill="#C0C0C0" stroke="none" d="M 519 264 C 519 254.6111584 565.7862384 247 623.5 247 C 681.2137616 247 728 254.6111584 728 264 C 728 273.3888416 681.2137616 281 623.5 281 C 565.7862384 281 519 273.3888416 519 264 Z" opacity="0.2"/></g><g transform="translate(-128,-30) scale(1,1)"><path fill="#ffffff" stroke="none" d="M 512 257 C 512 247.6111584 558.7862384 240 616.5 240 C 674.2137616 240 721 247.6111584 721 257 C 721 266.3888416 674.2137616 274 616.5 274 C 558.7862384 274 512 266.3888416 512 257 Z"/></g><g transform="translate(-128,-30) scale(1,1)"><path fill="none" stroke="#000000" d="M 512 257 C 512 247.6111584 558.7862384 240 616.5 240 C 674.2137616 240 721 247.6111584 721 257 C 721 266.3888416 674.2137616 274 616.5 274 C 558.7862384 274 512 266.3888416 512 257 Z" stroke-miterlimit="10"/></g><g transform="translate(-128,-30) scale(1,1)"><g><path fill="none" stroke="none"/><text fill="#000000" stroke="none" font-family="Arial" font-size="13px" font-style="normal" font-weight="bold" text-decoration="none" x="552.185546875" y="264">se genera informacion</text></g></g><g transform="translate(-128,-30) scale(1,1)"><path fill="#C0C0C0" stroke="none" d="M 575 384 C 575 374.6111584 608.1309248 367 649 367 C 689.8690752 367 723 374.6111584 723 384 C 723 393.3888416 689.8690752 401 649 401 C 608.1309248 401 575 393.3888416 575 384 Z" opacity="0.2"/></g><g transform="translate(-128,-30) scale(1,1)"><path fill="#ffffff" stroke="none" d="M 568 377 C 568 367.6111584 601.1309248 360 642 360 C 682.8690752 360 716 367.6111584 716 377 C 716 386.3888416 682.8690752 394 642 394 C 601.1309248 394 568 386.3888416 568 377 Z"/></g><g transform="translate(-128,-30) scale(1,1)"><path fill="none" stroke="#000000" d="M 568 377 C 568 367.6111584 601.1309248 360 642 360 C 682.8690752 360 716 367.6111584 716 377 C 716 386.3888416 682.8690752 394 642 394 C 601.1309248 394 568 386.3888416 568 377 Z" stroke-miterlimit="10"/></g><g transform="translate(-128,-30) scale(1,1)"><g><path fill="none" stroke="none"/><text fill="#000000" stroke="none" font-family="Arial" font-size="13px" font-style="normal" font-weight="bold" text-decoration="none" x="598.280517578125" y="384">control de viaje</text></g></g><g transform="translate(-128,-30) scale(1,1)"><path fill="none" stroke="#000000" d="M 220 413 L 567 383" stroke-miterlimit="10"/></g><g transform="translate(-128,-30) scale(1,1)"><path fill="none" stroke="#000000" d="M 220 406 L 568 275" stroke-miterlimit="10"/></g><g transform="translate(-128,-30) scale(1,1)"><path fill="none" stroke="#000000" d="M 620 275 L 638 359" stroke-miterlimit="10" stroke-dasharray="3"/></g><g transform="translate(-128,-30) scale(1,1)"><path fill="none" stroke="#000000" d="M 631.7545473740797 349.9449284101458 L 638 359 L 639.986700621948 348.18089557131685" stroke-miterlimit="10"/></g><g transform="translate(-128,-30) scale(1,1)"><g><path fill="none" stroke="none"/><text fill="#000000" stroke="none" font-family="Arial" font-size="13px" font-style="normal" font-weight="normal" text-decoration="none" x="631.5" y="316.5">«extend»</text></g></g><g transform="translate(-128,-30) scale(1,1)"><path fill="none" stroke="#000000" d="M 735 147 L 635 239" stroke-miterlimit="10" stroke-dasharray="3"/></g><g transform="translate(-128,-30) scale(1,1)"><path fill="none" stroke="#000000" d="M 639.6289461018607 229.02137995582214 L 635 239 L 645.329109078495 235.2172092782506" stroke-miterlimit="10"/></g><g transform="translate(-128,-30) scale(1,1)"><g><path fill="none" stroke="none"/><text fill="#000000" stroke="none" font-family="Arial" font-size="13px" font-style="normal" font-weight="normal" text-decoration="none" x="677.5" y="221.5">«include»</text></g></g></g></svg>