<svg version="1.1" xmlns="http://www.w3.org/2000/svg" xmlns:xlink="http://www.w3.org/1999/xlink" width="787" height="515"><defs/><g><text fill="#eeeeee" stroke="none" font-family="Arial" font-size="24px" font-style="normal" font-weight="normal" text-decoration="none" x="0" y="0">UNREGISTERED</text><text fill="#eeeeee" stroke="none" font-family="Arial" font-size="24px" font-style="normal" font-weight="normal" text-decoration="none" x="0" y="30">UNREGISTERED</text><text fill="#eeeeee" stroke="none" font-family="Arial" font-size="24px" font-style="normal" font-weight="normal" text-decoration="none" x="0" y="60">UNREGISTERED</text><text fill="#eeeeee" stroke="none" font-family="Arial" font-size="24px" font-style="normal" font-weight="normal" text-decoration="none" x="0" y="90">UNREGISTERED</text><text fill="#eeeeee" stroke="none" font-family="Arial" font-size="24px" font-style="normal" font-weight="normal" text-decoration="none" x="0" y="120">UNREGISTERED</text><text fill="#eeeeee" stroke="none" font-family="Arial" font-size="24px" font-style="normal" font-weight="normal" text-decoration="none" x="0" y="150">UNREGISTERED</text><text fill="#eeeeee" stroke="none" font-family="Arial" font-size="24px" font-style="normal" font-weight="normal" text-decoration="none" x="0" y="180">UNREGISTERED</text><text fill="#eeeeee" stroke="none" font-family="Arial" font-size="24px" font-style="normal" font-weight="normal" text-decoration="none" x="0" y="210">UNREGISTERED</text><text fill="#eeeeee" stroke="none" font-family="Arial" font-size="24px" font-style="normal" font-weight="normal" text-decoration="none" x="0" y="240">UNREGISTERED</text><text fill="#eeeeee" stroke="none" font-family="Arial" font-size="24px" font-style="normal" font-weight="normal" text-decoration="none" x="0" y="270">UNREGISTERED</text><text fill="#eeeeee" stroke="none" font-family="Arial" font-size="24px" font-style="normal" font-weight="normal" text-decoration="none" x="0" y="300">UNREGISTERED</text><text fill="#eeeeee" stroke="none" font-family="Arial" font-size="24px" font-style="normal" font-weight="normal" text-decoration="none" x="0" y="330">UNREGISTERED</text><text fill="#eeeeee" stroke="none" font-family="Arial" font-size="24px" font-style="normal" font-weight="normal" text-decoration="none" x="0" y="360">UNREGISTERED</text><text fill="#eeeeee" stroke="none" font-family="Arial" font-size="24px" font-style="normal" font-weight="normal" text-decoration="none" x="0" y="390">UNREGISTERED</text><text fill="#eeeeee" stroke="none" font-family="Arial" font-size="24px" font-style="normal" font-weight="normal" text-decoration="none" x="0" y="420">UNREGISTERED</text><text fill="#eeeeee" stroke="none" font-family="Arial" font-size="24px" font-style="normal" font-weight="normal" text-decoration="none" x="0" y="450">UNREGISTERED</text><text fill="#eeeeee" stroke="none" font-family="Arial" font-size="24px" font-style="normal" font-weight="normal" text-decoration="none" x="0" y="480">UNREGISTERED</text><text fill="#eeeeee" stroke="none" font-family="Arial" font-size="24px" font-style="normal" font-weight="normal" text-decoration="none" x="0" y="510">UNREGISTERED</text><text fill="#eeeeee" stroke="none" font-family="Arial" font-size="24px" font-style="normal" font-weight="normal" text-decoration="none" x="200" y="0">UNREGISTERED</text><text fill="#eeeeee" stroke="none" font-family="Arial" font-size="24px" font-style="normal" font-weight="normal" text-decoration="none" x="200" y="30">UNREGISTERED</text><text fill="#eeeeee" stroke="none" font-family="Arial" font-size="24px" font-style="normal" font-weight="normal" text-decoration="none" x="200" y="60">UNREGISTERED</text><text fill="#eeeeee" stroke="none" font-family="Arial" font-size="24px" font-style="normal" font-weight="normal" text-decoration="none" x="200" y="90">UNREGISTERED</text><text fill="#eeeeee" stroke="none" font-family="Arial" font-size="24px" font-style="normal" font-weight="normal" text-decoration="none" x="200" y="120">UNREGISTERED</text><text fill="#eeeeee" stroke="none" font-family="Arial" font-size="24px" font-style="normal" font-weight="normal" text-decoration="none" x="200" y="150">UNREGISTERED</text><text fill="#eeeeee" stroke="none" font-family="Arial" font-size="24px" font-style="normal" font-weight="normal" text-decoration="none" x="200" y="180">UNREGISTERED</text><text fill="#eeeeee" stroke="none" font-family="Arial" font-size="24px" font-style="normal" font-weight="normal" text-decoration="none" x="200" y="210">UNREGISTERED</text><text fill="#eeeeee" stroke="none" font-family="Arial" font-size="24px" font-style="normal" font-weight="normal" text-decoration="none" x="200" y="240">UNREGISTERED</text><text fill="#eeeeee" stroke="none" font-family="Arial" font-size="24px" font-style="normal" font-weight="normal" text-decoration="none" x="200" y="270">UNREGISTERED</text><text fill="#eeeeee" stroke="none" font-family="Arial" font-size="24px" font-style="normal" font-weight="normal" text-decoration="none" x="200" y="300">UNREGISTERED</text><text fill="#eeeeee" stroke="none" font-family="Arial" font-size="24px" font-style="normal" font-weight="normal" text-decoration="none" x="200" y="330">UNREGISTERED</text><text fill="#eeeeee" stroke="none" font-family="Arial" font-size="24px" font-style="normal" font-weight="normal" text-decoration="none" x="200" y="360">UNREGISTERED</text><text fill="#eeeeee" stroke="none" font-family="Arial" font-size="24px" font-style="normal" font-weight="normal" text-decoration="none" x="200" y="390">UNREGISTERED</text><text fill="#eeeeee" stroke="none" font-family="Arial" font-size="24px" font-style="normal" font-weight="normal" text-decoration="none" x="200" y="420">UNREGISTERED</text><text fill="#eeeeee" stroke="none" font-family="Arial" font-size="24px" font-style="normal" font-weight="normal" text-decoration="none" x="200" y="450">UNREGISTERED</text><text fill="#eeeeee" stroke="none" font-family="Arial" font-size="24px" font-style="normal" font-weight="normal" text-decoration="none" x="200" y="480">UNREGISTERED</text><text fill="#eeeeee" stroke="none" font-family="Arial" font-size="24px" font-style="normal" font-weight="normal" text-decoration="none" x="200" y="510">UNREGISTERED</text><text fill="#eeeeee" stroke="none" font-family="Arial" font-size="24px" font-style="normal" font-weight="normal" text-decoration="none" x="400" y="0">UNREGISTERED</text><text fill="#eeeeee" stroke="none" font-family="Arial" font-size="24px" font-style="normal" font-weight="normal" text-decoration="none" x="400" y="30">UNREGISTERED</text><text fill="#eeeeee" stroke="none" font-family="Arial" font-size="24px" font-style="normal" font-weight="normal" text-decoration="none" x="400" y="60">UNREGISTERED</text><text fill="#eeeeee" stroke="none" font-family="Arial" font-size="24px" font-style="normal" font-weight="normal" text-decoration="none" x="400" y="90">UNREGISTERED</text><text fill="#eeeeee" stroke="none" font-family="Arial" font-size="24px" font-style="normal" font-weight="normal" text-decoration="none" x="400" y="120">UNREGISTERED</text><text fill="#eeeeee" stroke="none" font-family="Arial" font-size="24px" font-style="normal" font-weight="normal" text-decoration="none" x="400" y="150">UNREGISTERED</text><text fill="#eeeeee" stroke="none" font-family="Arial" font-size="24px" font-style="normal" font-weight="normal" text-decoration="none" x="400" y="180">UNREGISTERED</text><text fill="#eeeeee" stroke="none" font-family="Arial" font-size="24px" font-style="normal" font-weight="normal" text-decoration="none" x="400" y="210">UNREGISTERED</text><text fill="#eeeeee" stroke="none" font-family="Arial" font-size="24px" font-style="normal" font-weight="normal" text-decoration="none" x="400" y="240">UNREGISTERED</text><text fill="#eeeeee" stroke="none" font-family="Arial" font-size="24px" font-style="normal" font-weight="normal" text-decoration="none" x="400" y="270">UNREGISTERED</text><text fill="#eeeeee" stroke="none" font-family="Arial" font-size="24px" font-style="normal" font-weight="normal" text-decoration="none" x="400" y="300">UNREGISTERED</text><text fill="#eeeeee" stroke="none" font-family="Arial" font-size="24px" font-style="normal" font-weight="normal" text-decoration="none" x="400" y="330">UNREGISTERED</text><text fill="#eeeeee" stroke="none" font-family="Arial" font-size="24px" font-style="normal" font-weight="normal" text-decoration="none" x="400" y="360">UNREGISTERED</text><text fill="#eeeeee" stroke="none" font-family="Arial" font-size="24px" font-style="normal" font-weight="normal" text-decoration="none" x="400" y="390">UNREGISTERED</text><text fill="#eeeeee" stroke="none" font-family="Arial" font-size="24px" font-style="normal" font-weight="normal" text-decoration="none" x="400" y="420">UNREGISTERED</text><text fill="#eeeeee" stroke="none" font-family="Arial" font-size="24px" font-style="normal" font-weight="normal" text-decoration="none" x="400" y="450">UNREGISTERED</text><text fill="#eeeeee" stroke="none" font-family="Arial" font-size="24px" font-style="normal" font-weight="normal" text-decoration="none" x="400" y="480">UNREGISTERED</text><text fill="#eeeeee" stroke="none" font-family="Arial" font-size="24px" font-style="normal" font-weight="normal" text-decoration="none" x="400" y="510">UNREGISTERED</text><text fill="#eeeeee" stroke="none" font-family="Arial" font-size="24px" font-style="normal" font-weight="normal" text-decoration="none" x="600" y="0">UNREGISTERED</text><text fill="#eeeeee" stroke="none" font-family="Arial" font-size="24px" font-style="normal" font-weight="normal" text-decoration="none" x="600" y="30">UNREGISTERED</text><text fill="#eeeeee" stroke="none" font-family="Arial" font-size="24px" font-style="normal" font-weight="normal" text-decoration="none" x="600" y="60">UNREGISTERED</text><text fill="#eeeeee" stroke="none" font-family="Arial" font-size="24px" font-style="normal" font-weight="normal" text-decoration="none" x="600" y="90">UNREGISTERED</text><text fill="#eeeeee" stroke="none" font-family="Arial" font-size="24px" font-style="normal" font-weight="normal" text-decoration="none" x="600" y="120">UNREGISTERED</text><text fill="#eeeeee" stroke="none" font-family="Arial" font-size="24px" font-style="normal" font-weight="normal" text-decoration="none" x="600" y="150">UNREGISTERED</text><text fill="#eeeeee" stroke="none" font-family="Arial" font-size="24px" font-style="normal" font-weight="normal" text-decoration="none" x="600" y="180">UNREGISTERED</text><text fill="#eeeeee" stroke="none" font-family="Arial" font-size="24px" font-style="normal" font-weight="normal" text-decoration="none" x="600" y="210">UNREGISTERED</text><text fill="#eeeeee" stroke="none" font-family="Arial" font-size="24px" font-style="normal" font-weight="normal" text-decoration="none" x="600" y="240">UNREGISTERED</text><text fill="#eeeeee" stroke="none" font-family="Arial" font-size="24px" font-style="normal" font-weight="normal" text-decoration="none" x="600" y="270">UNREGISTERED</text><text fill="#eeeeee" stroke="none" font-family="Arial" font-size="24px" font-style="normal" font-weight="normal" text-decoration="none" x="600" y="300">UNREGISTERED</text><text fill="#eeeeee" stroke="none" font-family="Arial" font-size="24px" font-style="normal" font-weight="normal" text-decoration="none" x="600" y="330">UNREGISTERED</text><text fill="#eeeeee" stroke="none" font-family="Arial" font-size="24px" font-style="normal" font-weight="normal" text-decoration="none" x="600" y="360">UNREGISTERED</text><text fill="#eeeeee" stroke="none" font-family="Arial" font-size="24px" font-style="normal" font-weight="normal" text-decoration="none" x="600" y="390">UNREGISTERED</text><text fill="#eeeeee" stroke="none" font-family="Arial" font-size="24px" font-style="normal" font-weight="normal" text-decoration="none" x="600" y="420">UNREGISTERED</text><text fill="#eeeeee" stroke="none" font-family="Arial" font-size="24px" font-style="normal" font-weight="normal" text-decoration="none" x="600" y="450">UNREGISTERED</text><text fill="#eeeeee" stroke="none" font-family="Arial" font-size="24px" font-style="normal" font-weight="normal" text-decoration="none" x="600" y="480">UNREGISTERED</text><text fill="#eeeeee" stroke="none" font-family="Arial" font-size="24px" font-style="normal" font-weight="normal" text-decoration="none" x="600" y="510">UNREGISTERED</text><g transform="translate(-46,-62) scale(1,1)"><rect fill="#C0C0C0" stroke="none" x="223" y="79" width="242.8" height="15" opacity="0.2"/></g><g transform="translate(-46,-62) scale(1,1)"><rect fill="#C0C0C0" stroke="none" x="223" y="93" width="607" height="305" opacity="0.2"/></g><g transform="translate(-46,-62) scale(1,1)"><rect fill="#ffffff" stroke="none" x="216" y="87" width="607" height="304"/></g><g transform="translate(-46,-62) scale(1,1)"><path fill="none" stroke="#000000" d="M 216 87 L 823 87 L 823 391 L 216 391 L 216 87 Z Z" stroke-miterlimit="10"/></g><g transform="translate(-46,-62) scale(1,1)"><rect fill="#ffffff" stroke="none" x="216" y="72" width="242.8" height="15"/></g><g transform="translate(-46,-62) scale(1,1)"><path fill="none" stroke="#000000" d="M 216 72 L 458.8 72 L 458.8 87 L 216 87 L 216 72 Z Z" stroke-miterlimit="10"/></g><g transform="translate(-46,-62) scale(1,1)"><rect fill="#ffffff" stroke="none" x="216" y="86" width="607" height="305"/></g><g transform="translate(-46,-62) scale(1,1)"><path fill="none" stroke="#000000" d="M 216 86 L 823 86 L 823 391 L 216 391 L 216 86 Z Z" stroke-miterlimit="10"/></g><g transform="translate(-46,-62) scale(1,1)"><g><path fill="none" stroke="none"/><text fill="#000000" stroke="none" font-family="Arial" font-size="13px" font-style="normal" font-weight="bold" text-decoration="none" x="455.309326171875" y="106.5">Validación del sistema</text></g></g><g transform="translate(-46,-62) scale(1,1)"><path fill="#C0C0C0" stroke="none" d="M 591 340 C 591 328.4020192 631.294368 319 681 319 C 730.705632 319 771 328.4020192 771 340 C 771 351.5979808 730.705632 361 681 361 C 631.294368 361 591 351.5979808 591 340 Z" opacity="0.2"/></g><g transform="translate(-46,-62) scale(1,1)"><path fill="#ffffff" stroke="none" d="M 584 333 C 584 321.4020192 624.294368 312 674 312 C 723.705632 312 764 321.4020192 764 333 C 764 344.5979808 723.705632 354 674 354 C 624.294368 354 584 344.5979808 584 333 Z"/></g><g transform="translate(-46,-62) scale(1,1)"><path fill="none" stroke="#000000" d="M 584 333 C 584 321.4020192 624.294368 312 674 312 C 723.705632 312 764 321.4020192 764 333 C 764 344.5979808 723.705632 354 674 354 C 624.294368 354 584 344.5979808 584 333 Z" stroke-miterlimit="10"/></g><g transform="translate(-46,-62) scale(1,1)"><g><path fill="none" stroke="none"/><text fill="#000000" stroke="none" font-family="Arial" font-size="13px" font-style="normal" font-weight="bold" text-decoration="none" x="618.727783203125" y="340">RecordarPassword</text></g></g><g transform="translate(-46,-62) scale(1,1)"><path fill="none" stroke="#000000" d="M 653 311 L 556 207" stroke-miterlimit="10" stroke-dasharray="3"/></g><g transform="translate(-46,-62) scale(1,1)"><path fill="none" stroke="#000000" d="M 566.010006301863 211.56067690553326 L 556 207 L 559.8532577690639 217.3030289024708" stroke-miterlimit="10"/></g><g transform="translate(-46,-62) scale(1,1)"><g><path fill="none" stroke="none"/><text fill="#000000" stroke="none" font-family="Arial" font-size="13px" font-style="normal" font-weight="normal" text-decoration="none" x="554.5" y="285.5">«extend»</text></g></g><g transform="translate(-46,-62) scale(1,1)"><path fill="none" stroke="#000000" d="M 490 287 L 500 207" stroke-miterlimit="10" stroke-dasharray="3"/></g><g transform="translate(-46,-62) scale(1,1)"><path fill="none" stroke="#000000" d="M 502.9164866622462 217.60632384707068 L 500 207 L 494.56246398039013 216.56207101183867" stroke-miterlimit="10"/></g><g transform="translate(-46,-62) scale(1,1)"><g><path fill="none" stroke="none"/><text fill="#000000" stroke="none" font-family="Arial" font-size="13px" font-style="normal" font-weight="normal" text-decoration="none" x="438.5" y="249.5">«extend»</text></g></g><g transform="translate(-46,-62) scale(1,1)"><path fill="#C0C0C0" stroke="none" d="M 271 140.5 C 271 124.2075984 380.1019419671875 111 514.68603515625 111 C 649.2701283453125 111 758.3720703125 124.2075984 758.3720703125 140.5 C 758.3720703125 156.7924016 649.2701283453125 170 514.68603515625 170 C 380.1019419671875 170 271 156.7924016 271 140.5 Z" opacity="0.2"/></g><g transform="translate(-46,-62) scale(1,1)"><path fill="#ffffff" stroke="none" d="M 264 133.5 C 264 117.2075984 373.1019419671875 104 507.68603515625 104 C 642.2701283453125 104 751.3720703125 117.2075984 751.3720703125 133.5 C 751.3720703125 149.7924016 642.2701283453125 163 507.68603515625 163 C 373.1019419671875 163 264 149.7924016 264 133.5 Z"/></g><g transform="translate(-46,-62) scale(1,1)"><path fill="none" stroke="#000000" d="M 264 133.5 C 264 117.2075984 373.1019419671875 104 507.68603515625 104 C 642.2701283453125 104 751.3720703125 117.2075984 751.3720703125 133.5 C 751.3720703125 149.7924016 642.2701283453125 163 507.68603515625 163 C 373.1019419671875 163 264 149.7924016 264 133.5 Z" stroke-miterlimit="10"/></g><g transform="translate(-46,-62) scale(1,1)"><path fill="none" stroke="#000000" d="M 264 168 L 751.3720703125 168" stroke-miterlimit="10"/></g><g transform="translate(-46,-62) scale(1,1)"><g><path fill="none" stroke="none"/><text fill="#000000" stroke="none" font-family="Arial" font-size="13px" font-style="normal" font-weight="bold" text-decoration="none" x="483.83154296875" y="143">Loguear</text></g></g><g transform="translate(-46,-62) scale(1,1)"><g><path fill="none" stroke="none"/><text fill="#000000" stroke="none" font-family="Arial" font-size="13px" font-style="normal" font-weight="normal" text-decoration="none" x="269" y="185.5">Cuando se tiene el usuario se puede registrar</text></g></g><g transform="translate(-46,-62) scale(1,1)"><g><path fill="none" stroke="none"/><text fill="#000000" stroke="none" font-family="Arial" font-size="13px" font-style="normal" font-weight="normal" text-decoration="none" x="269" y="200.5">si se olvida el  usuario y password se debe dar opciones de recordarlo</text></g></g><g transform="translate(-46,-62) scale(1,1)"><path fill="#ffffff" stroke="none" d="M 163.90617649147728 497.68 C 163.90617649147728 492.886167936 167.79201881642274 489 172.58544921875 489 C 177.37887962107726 489 181.26472194602272 492.886167936 181.26472194602272 497.68 C 181.26472194602272 502.473832064 177.37887962107726 506.36 172.58544921875 506.36 C 167.79201881642274 506.36 163.90617649147728 502.473832064 163.90617649147728 497.68 Z"/></g><g transform="translate(-46,-62) scale(1,1)"><path fill="none" stroke="#000000" d="M 163.90617649147728 497.68 C 163.90617649147728 492.886167936 167.79201881642274 489 172.58544921875 489 C 177.37887962107726 489 181.26472194602272 492.886167936 181.26472194602272 497.68 C 181.26472194602272 502.473832064 177.37887962107726 506.36 172.58544921875 506.36 C 167.79201881642274 506.36 163.90617649147728 502.473832064 163.90617649147728 497.68 Z" stroke-miterlimit="10"/></g><g transform="translate(-46,-62) scale(1,1)"><path fill="none" stroke="#000000" d="M 172.58544921875 506.36 L 172.58544921875 523.64" stroke-miterlimit="10"/></g><g transform="translate(-46,-62) scale(1,1)"><path fill="none" stroke="#000000" d="M 163.39563103693183 512.84 L 181.77526740056817 512.84" stroke-miterlimit="10"/></g><g transform="translate(-46,-62) scale(1,1)"><path fill="none" stroke="#000000" d="M 172.58544921875 523.64 L 159.82181285511365 541" stroke-miterlimit="10"/></g><g transform="translate(-46,-62) scale(1,1)"><path fill="none" stroke="#000000" d="M 172.58544921875 523.64 L 185.34908558238635 541" stroke-miterlimit="10"/></g><g transform="translate(-46,-62) scale(1,1)"><g><path fill="none" stroke="none"/><text fill="#000000" stroke="none" font-family="Arial" font-size="13px" font-style="normal" font-weight="bold" text-decoration="none" x="135.73095703125" y="561.5">Conductores</text></g></g><g transform="translate(-46,-62) scale(1,1)"><path fill="#ffffff" stroke="none" d="M 117.56340305397728 329.68 C 117.56340305397728 324.886167936 121.44924537892274 321 126.24267578125 321 C 131.03610618357726 321 134.92194850852272 324.886167936 134.92194850852272 329.68 C 134.92194850852272 334.473832064 131.03610618357726 338.36 126.24267578125 338.36 C 121.44924537892274 338.36 117.56340305397728 334.473832064 117.56340305397728 329.68 Z"/></g><g transform="translate(-46,-62) scale(1,1)"><path fill="none" stroke="#000000" d="M 117.56340305397728 329.68 C 117.56340305397728 324.886167936 121.44924537892274 321 126.24267578125 321 C 131.03610618357726 321 134.92194850852272 324.886167936 134.92194850852272 329.68 C 134.92194850852272 334.473832064 131.03610618357726 338.36 126.24267578125 338.36 C 121.44924537892274 338.36 117.56340305397728 334.473832064 117.56340305397728 329.68 Z" stroke-miterlimit="10"/></g><g transform="translate(-46,-62) scale(1,1)"><path fill="none" stroke="#000000" d="M 126.24267578125 338.36 L 126.24267578125 355.64" stroke-miterlimit="10"/></g><g transform="translate(-46,-62) scale(1,1)"><path fill="none" stroke="#000000" d="M 117.05285759943183 344.84 L 135.43249396306817 344.84" stroke-miterlimit="10"/></g><g transform="translate(-46,-62) scale(1,1)"><path fill="none" stroke="#000000" d="M 126.24267578125 355.64 L 113.47903941761365 373" stroke-miterlimit="10"/></g><g transform="translate(-46,-62) scale(1,1)"><path fill="none" stroke="#000000" d="M 126.24267578125 355.64 L 139.00631214488635 373" stroke-miterlimit="10"/></g><g transform="translate(-46,-62) scale(1,1)"><g><path fill="none" stroke="none"/><text fill="#000000" stroke="none" font-family="Arial" font-size="13px" font-style="normal" font-weight="bold" text-decoration="none" x="64.4609375" y="393.5">EncargadoDeMoviles</text></g></g><g transform="translate(-46,-62) scale(1,1)"><path fill="#ffffff" stroke="none" d="M 736 208 L 799.64990234375 208 L 809.64990234375 218 L 809.64990234375 283 L 736 283 L 736 208"/></g><g transform="translate(-46,-62) scale(1,1)"><path fill="none" stroke="#000000" d="M 736 208 L 799.64990234375 208 L 809.64990234375 218 L 809.64990234375 283 L 736 283 L 736 208 L 736 208" stroke-miterlimit="10"/></g><g transform="translate(-46,-62) scale(1,1)"><path fill="none" stroke="#000000" d="M 799.64990234375 208 L 799.64990234375 218 L 809.64990234375 218 L 799.64990234375 208" stroke-miterlimit="10"/></g><g transform="translate(-46,-62) scale(1,1)"><g><path fill="none" stroke="none"/><text fill="#000000" stroke="none" font-family="Arial" font-size="13px" font-style="normal" font-weight="normal" text-decoration="none" x="741" y="226">estos son</text><text fill="#000000" stroke="none" font-family="Arial" font-size="13px" font-style="normal" font-weight="normal" text-decoration="none" x="741" y="239">puntos de</text><text fill="#000000" stroke="none" font-family="Arial" font-size="13px" font-style="normal" font-weight="normal" text-decoration="none" x="741" y="252">extensión </text></g></g><g transform="translate(-46,-62) scale(1,1)"><path fill="#C0C0C0" stroke="none" d="M 412.2470703125 323 C 412.2470703125 307.5360256 448.5120015125 295 493.2470703125 295 C 537.9821391125 295 574.2470703125 307.5360256 574.2470703125 323 C 574.2470703125 338.4639744 537.9821391125 351 493.2470703125 351 C 448.5120015125 351 412.2470703125 338.4639744 412.2470703125 323 Z" opacity="0.2"/></g><g transform="translate(-46,-62) scale(1,1)"><path fill="#ffffff" stroke="none" d="M 405.2470703125 316 C 405.2470703125 300.5360256 441.5120015125 288 486.2470703125 288 C 530.9821391125 288 567.2470703125 300.5360256 567.2470703125 316 C 567.2470703125 331.4639744 530.9821391125 344 486.2470703125 344 C 441.5120015125 344 405.2470703125 331.4639744 405.2470703125 316 Z"/></g><g transform="translate(-46,-62) scale(1,1)"><path fill="none" stroke="#000000" d="M 405.2470703125 316 C 405.2470703125 300.5360256 441.5120015125 288 486.2470703125 288 C 530.9821391125 288 567.2470703125 300.5360256 567.2470703125 316 C 567.2470703125 331.4639744 530.9821391125 344 486.2470703125 344 C 441.5120015125 344 405.2470703125 331.4639744 405.2470703125 316 Z" stroke-miterlimit="10"/></g><g transform="translate(-46,-62) scale(1,1)"><g><path fill="none" stroke="none"/><text fill="#000000" stroke="none" font-family="Arial" font-size="13px" font-style="normal" font-weight="bold" text-decoration="none" x="437.481201171875" y="323">RegistrarUsuario</text></g></g><g transform="translate(-46,-62) scale(1,1)"><path fill="none" stroke="#000000" d="M 659 207 L 735 233" stroke-miterlimit="10" stroke-dasharray="3"/></g><g transform="translate(-46,-62) scale(1,1)"><path fill="none" stroke="#000000" d="M 197 321 L 410 207" stroke-miterlimit="10"/></g><g transform="translate(-46,-62) scale(1,1)"><g><path fill="none" stroke="none"/><text fill="#000000" stroke="none" font-family="Arial" font-size="13px" font-style="normal" font-weight="normal" text-decoration="none" x="237.5" y="256.5">+Asignación de ruta</text></g></g><g transform="translate(-46,-62) scale(1,1)"><path fill="none" stroke="#000000" d="M 137 400 L 161 487" stroke-miterlimit="10"/></g></g></svg>