<svg version="1.1" xmlns="http://www.w3.org/2000/svg" xmlns:xlink="http://www.w3.org/1999/xlink" width="843" height="572"><defs/><g><text fill="#eeeeee" stroke="none" font-family="Arial" font-size="24px" font-style="normal" font-weight="normal" text-decoration="none" x="0" y="0">UNREGISTERED</text><text fill="#eeeeee" stroke="none" font-family="Arial" font-size="24px" font-style="normal" font-weight="normal" text-decoration="none" x="0" y="30">UNREGISTERED</text><text fill="#eeeeee" stroke="none" font-family="Arial" font-size="24px" font-style="normal" font-weight="normal" text-decoration="none" x="0" y="60">UNREGISTERED</text><text fill="#eeeeee" stroke="none" font-family="Arial" font-size="24px" font-style="normal" font-weight="normal" text-decoration="none" x="0" y="90">UNREGISTERED</text><text fill="#eeeeee" stroke="none" font-family="Arial" font-size="24px" font-style="normal" font-weight="normal" text-decoration="none" x="0" y="120">UNREGISTERED</text><text fill="#eeeeee" stroke="none" font-family="Arial" font-size="24px" font-style="normal" font-weight="normal" text-decoration="none" x="0" y="150">UNREGISTERED</text><text fill="#eeeeee" stroke="none" font-family="Arial" font-size="24px" font-style="normal" font-weight="normal" text-decoration="none" x="0" y="180">UNREGISTERED</text><text fill="#eeeeee" stroke="none" font-family="Arial" font-size="24px" font-style="normal" font-weight="normal" text-decoration="none" x="0" y="210">UNREGISTERED</text><text fill="#eeeeee" stroke="none" font-family="Arial" font-size="24px" font-style="normal" font-weight="normal" text-decoration="none" x="0" y="240">UNREGISTERED</text><text fill="#eeeeee" stroke="none" font-family="Arial" font-size="24px" font-style="normal" font-weight="normal" text-decoration="none" x="0" y="270">UNREGISTERED</text><text fill="#eeeeee" stroke="none" font-family="Arial" font-size="24px" font-style="normal" font-weight="normal" text-decoration="none" x="0" y="300">UNREGISTERED</text><text fill="#eeeeee" stroke="none" font-family="Arial" font-size="24px" font-style="normal" font-weight="normal" text-decoration="none" x="0" y="330">UNREGISTERED</text><text fill="#eeeeee" stroke="none" font-family="Arial" font-size="24px" font-style="normal" font-weight="normal" text-decoration="none" x="0" y="360">UNREGISTERED</text><text fill="#eeeeee" stroke="none" font-family="Arial" font-size="24px" font-style="normal" font-weight="normal" text-decoration="none" x="0" y="390">UNREGISTERED</text><text fill="#eeeeee" stroke="none" font-family="Arial" font-size="24px" font-style="normal" font-weight="normal" text-decoration="none" x="0" y="420">UNREGISTERED</text><text fill="#eeeeee" stroke="none" font-family="Arial" font-size="24px" font-style="normal" font-weight="normal" text-decoration="none" x="0" y="450">UNREGISTERED</text><text fill="#eeeeee" stroke="none" font-family="Arial" font-size="24px" font-style="normal" font-weight="normal" text-decoration="none" x="0" y="480">UNREGISTERED</text><text fill="#eeeeee" stroke="none" font-family="Arial" font-size="24px" font-style="normal" font-weight="normal" text-decoration="none" x="0" y="510">UNREGISTERED</text><text fill="#eeeeee" stroke="none" font-family="Arial" font-size="24px" font-style="normal" font-weight="normal" text-decoration="none" x="0" y="540">UNREGISTERED</text><text fill="#eeeeee" stroke="none" font-family="Arial" font-size="24px" font-style="normal" font-weight="normal" text-decoration="none" x="0" y="570">UNREGISTERED</text><text fill="#eeeeee" stroke="none" font-family="Arial" font-size="24px" font-style="normal" font-weight="normal" text-decoration="none" x="200" y="0">UNREGISTERED</text><text fill="#eeeeee" stroke="none" font-family="Arial" font-size="24px" font-style="normal" font-weight="normal" text-decoration="none" x="200" y="30">UNREGISTERED</text><text fill="#eeeeee" stroke="none" font-family="Arial" font-size="24px" font-style="normal" font-weight="normal" text-decoration="none" x="200" y="60">UNREGISTERED</text><text fill="#eeeeee" stroke="none" font-family="Arial" font-size="24px" font-style="normal" font-weight="normal" text-decoration="none" x="200" y="90">UNREGISTERED</text><text fill="#eeeeee" stroke="none" font-family="Arial" font-size="24px" font-style="normal" font-weight="normal" text-decoration="none" x="200" y="120">UNREGISTERED</text><text fill="#eeeeee" stroke="none" font-family="Arial" font-size="24px" font-style="normal" font-weight="normal" text-decoration="none" x="200" y="150">UNREGISTERED</text><text fill="#eeeeee" stroke="none" font-family="Arial" font-size="24px" font-style="normal" font-weight="normal" text-decoration="none" x="200" y="180">UNREGISTERED</text><text fill="#eeeeee" stroke="none" font-family="Arial" font-size="24px" font-style="normal" font-weight="normal" text-decoration="none" x="200" y="210">UNREGISTERED</text><text fill="#eeeeee" stroke="none" font-family="Arial" font-size="24px" font-style="normal" font-weight="normal" text-decoration="none" x="200" y="240">UNREGISTERED</text><text fill="#eeeeee" stroke="none" font-family="Arial" font-size="24px" font-style="normal" font-weight="normal" text-decoration="none" x="200" y="270">UNREGISTERED</text><text fill="#eeeeee" stroke="none" font-family="Arial" font-size="24px" font-style="normal" font-weight="normal" text-decoration="none" x="200" y="300">UNREGISTERED</text><text fill="#eeeeee" stroke="none" font-family="Arial" font-size="24px" font-style="normal" font-weight="normal" text-decoration="none" x="200" y="330">UNREGISTERED</text><text fill="#eeeeee" stroke="none" font-family="Arial" font-size="24px" font-style="normal" font-weight="normal" text-decoration="none" x="200" y="360">UNREGISTERED</text><text fill="#eeeeee" stroke="none" font-family="Arial" font-size="24px" font-style="normal" font-weight="normal" text-decoration="none" x="200" y="390">UNREGISTERED</text><text fill="#eeeeee" stroke="none" font-family="Arial" font-size="24px" font-style="normal" font-weight="normal" text-decoration="none" x="200" y="420">UNREGISTERED</text><text fill="#eeeeee" stroke="none" font-family="Arial" font-size="24px" font-style="normal" font-weight="normal" text-decoration="none" x="200" y="450">UNREGISTERED</text><text fill="#eeeeee" stroke="none" font-family="Arial" font-size="24px" font-style="normal" font-weight="normal" text-decoration="none" x="200" y="480">UNREGISTERED</text><text fill="#eeeeee" stroke="none" font-family="Arial" font-size="24px" font-style="normal" font-weight="normal" text-decoration="none" x="200" y="510">UNREGISTERED</text><text fill="#eeeeee" stroke="none" font-family="Arial" font-size="24px" font-style="normal" font-weight="normal" text-decoration="none" x="200" y="540">UNREGISTERED</text><text fill="#eeeeee" stroke="none" font-family="Arial" font-size="24px" font-style="normal" font-weight="normal" text-decoration="none" x="200" y="570">UNREGISTERED</text><text fill="#eeeeee" stroke="none" font-family="Arial" font-size="24px" font-style="normal" font-weight="normal" text-decoration="none" x="400" y="0">UNREGISTERED</text><text fill="#eeeeee" stroke="none" font-family="Arial" font-size="24px" font-style="normal" font-weight="normal" text-decoration="none" x="400" y="30">UNREGISTERED</text><text fill="#eeeeee" stroke="none" font-family="Arial" font-size="24px" font-style="normal" font-weight="normal" text-decoration="none" x="400" y="60">UNREGISTERED</text><text fill="#eeeeee" stroke="none" font-family="Arial" font-size="24px" font-style="normal" font-weight="normal" text-decoration="none" x="400" y="90">UNREGISTERED</text><text fill="#eeeeee" stroke="none" font-family="Arial" font-size="24px" font-style="normal" font-weight="normal" text-decoration="none" x="400" y="120">UNREGISTERED</text><text fill="#eeeeee" stroke="none" font-family="Arial" font-size="24px" font-style="normal" font-weight="normal" text-decoration="none" x="400" y="150">UNREGISTERED</text><text fill="#eeeeee" stroke="none" font-family="Arial" font-size="24px" font-style="normal" font-weight="normal" text-decoration="none" x="400" y="180">UNREGISTERED</text><text fill="#eeeeee" stroke="none" font-family="Arial" font-size="24px" font-style="normal" font-weight="normal" text-decoration="none" x="400" y="210">UNREGISTERED</text><text fill="#eeeeee" stroke="none" font-family="Arial" font-size="24px" font-style="normal" font-weight="normal" text-decoration="none" x="400" y="240">UNREGISTERED</text><text fill="#eeeeee" stroke="none" font-family="Arial" font-size="24px" font-style="normal" font-weight="normal" text-decoration="none" x="400" y="270">UNREGISTERED</text><text fill="#eeeeee" stroke="none" font-family="Arial" font-size="24px" font-style="normal" font-weight="normal" text-decoration="none" x="400" y="300">UNREGISTERED</text><text fill="#eeeeee" stroke="none" font-family="Arial" font-size="24px" font-style="normal" font-weight="normal" text-decoration="none" x="400" y="330">UNREGISTERED</text><text fill="#eeeeee" stroke="none" font-family="Arial" font-size="24px" font-style="normal" font-weight="normal" text-decoration="none" x="400" y="360">UNREGISTERED</text><text fill="#eeeeee" stroke="none" font-family="Arial" font-size="24px" font-style="normal" font-weight="normal" text-decoration="none" x="400" y="390">UNREGISTERED</text><text fill="#eeeeee" stroke="none" font-family="Arial" font-size="24px" font-style="normal" font-weight="normal" text-decoration="none" x="400" y="420">UNREGISTERED</text><text fill="#eeeeee" stroke="none" font-family="Arial" font-size="24px" font-style="normal" font-weight="normal" text-decoration="none" x="400" y="450">UNREGISTERED</text><text fill="#eeeeee" stroke="none" font-family="Arial" font-size="24px" font-style="normal" font-weight="normal" text-decoration="none" x="400" y="480">UNREGISTERED</text><text fill="#eeeeee" stroke="none" font-family="Arial" font-size="24px" font-style="normal" font-weight="normal" text-decoration="none" x="400" y="510">UNREGISTERED</text><text fill="#eeeeee" stroke="none" font-family="Arial" font-size="24px" font-style="normal" font-weight="normal" text-decoration="none" x="400" y="540">UNREGISTERED</text><text fill="#eeeeee" stroke="none" font-family="Arial" font-size="24px" font-style="normal" font-weight="normal" text-decoration="none" x="400" y="570">UNREGISTERED</text><text fill="#eeeeee" stroke="none" font-family="Arial" font-size="24px" font-style="normal" font-weight="normal" text-decoration="none" x="600" y="0">UNREGISTERED</text><text fill="#eeeeee" stroke="none" font-family="Arial" font-size="24px" font-style="normal" font-weight="normal" text-decoration="none" x="600" y="30">UNREGISTERED</text><text fill="#eeeeee" stroke="none" font-family="Arial" font-size="24px" font-style="normal" font-weight="normal" text-decoration="none" x="600" y="60">UNREGISTERED</text><text fill="#eeeeee" stroke="none" font-family="Arial" font-size="24px" font-style="normal" font-weight="normal" text-decoration="none" x="600" y="90">UNREGISTERED</text><text fill="#eeeeee" stroke="none" font-family="Arial" font-size="24px" font-style="normal" font-weight="normal" text-decoration="none" x="600" y="120">UNREGISTERED</text><text fill="#eeeeee" stroke="none" font-family="Arial" font-size="24px" font-style="normal" font-weight="normal" text-decoration="none" x="600" y="150">UNREGISTERED</text><text fill="#eeeeee" stroke="none" font-family="Arial" font-size="24px" font-style="normal" font-weight="normal" text-decoration="none" x="600" y="180">UNREGISTERED</text><text fill="#eeeeee" stroke="none" font-family="Arial" font-size="24px" font-style="normal" font-weight="normal" text-decoration="none" x="600" y="210">UNREGISTERED</text><text fill="#eeeeee" stroke="none" font-family="Arial" font-size="24px" font-style="normal" font-weight="normal" text-decoration="none" x="600" y="240">UNREGISTERED</text><text fill="#eeeeee" stroke="none" font-family="Arial" font-size="24px" font-style="normal" font-weight="normal" text-decoration="none" x="600" y="270">UNREGISTERED</text><text fill="#eeeeee" stroke="none" font-family="Arial" font-size="24px" font-style="normal" font-weight="normal" text-decoration="none" x="600" y="300">UNREGISTERED</text><text fill="#eeeeee" stroke="none" font-family="Arial" font-size="24px" font-style="normal" font-weight="normal" text-decoration="none" x="600" y="330">UNREGISTERED</text><text fill="#eeeeee" stroke="none" font-family="Arial" font-size="24px" font-style="normal" font-weight="normal" text-decoration="none" x="600" y="360">UNREGISTERED</text><text fill="#eeeeee" stroke="none" font-family="Arial" font-size="24px" font-style="normal" font-weight="normal" text-decoration="none" x="600" y="390">UNREGISTERED</text><text fill="#eeeeee" stroke="none" font-family="Arial" font-size="24px" font-style="normal" font-weight="normal" text-decoration="none" x="600" y="420">UNREGISTERED</text><text fill="#eeeeee" stroke="none" font-family="Arial" font-size="24px" font-style="normal" font-weight="normal" text-decoration="none" x="600" y="450">UNREGISTERED</text><text fill="#eeeeee" stroke="none" font-family="Arial" font-size="24px" font-style="normal" font-weight="normal" text-decoration="none" x="600" y="480">UNREGISTERED</text><text fill="#eeeeee" stroke="none" font-family="Arial" font-size="24px" font-style="normal" font-weight="normal" text-decoration="none" x="600" y="510">UNREGISTERED</text><text fill="#eeeeee" stroke="none" font-family="Arial" font-size="24px" font-style="normal" font-weight="normal" text-decoration="none" x="600" y="540">UNREGISTERED</text><text fill="#eeeeee" stroke="none" font-family="Arial" font-size="24px" font-style="normal" font-weight="normal" text-decoration="none" x="600" y="570">UNREGISTERED</text><text fill="#eeeeee" stroke="none" font-family="Arial" font-size="24px" font-style="normal" font-weight="normal" text-decoration="none" x="800" y="0">UNREGISTERED</text><text fill="#eeeeee" stroke="none" font-family="Arial" font-size="24px" font-style="normal" font-weight="normal" text-decoration="none" x="800" y="30">UNREGISTERED</text><text fill="#eeeeee" stroke="none" font-family="Arial" font-size="24px" font-style="normal" font-weight="normal" text-decoration="none" x="800" y="60">UNREGISTERED</text><text fill="#eeeeee" stroke="none" font-family="Arial" font-size="24px" font-style="normal" font-weight="normal" text-decoration="none" x="800" y="90">UNREGISTERED</text><text fill="#eeeeee" stroke="none" font-family="Arial" font-size="24px" font-style="normal" font-weight="normal" text-decoration="none" x="800" y="120">UNREGISTERED</text><text fill="#eeeeee" stroke="none" font-family="Arial" font-size="24px" font-style="normal" font-weight="normal" text-decoration="none" x="800" y="150">UNREGISTERED</text><text fill="#eeeeee" stroke="none" font-family="Arial" font-size="24px" font-style="normal" font-weight="normal" text-decoration="none" x="800" y="180">UNREGISTERED</text><text fill="#eeeeee" stroke="none" font-family="Arial" font-size="24px" font-style="normal" font-weight="normal" text-decoration="none" x="800" y="210">UNREGISTERED</text><text fill="#eeeeee" stroke="none" font-family="Arial" font-size="24px" font-style="normal" font-weight="normal" text-decoration="none" x="800" y="240">UNREGISTERED</text><text fill="#eeeeee" stroke="none" font-family="Arial" font-size="24px" font-style="normal" font-weight="normal" text-decoration="none" x="800" y="270">UNREGISTERED</text><text fill="#eeeeee" stroke="none" font-family="Arial" font-size="24px" font-style="normal" font-weight="normal" text-decoration="none" x="800" y="300">UNREGISTERED</text><text fill="#eeeeee" stroke="none" font-family="Arial" font-size="24px" font-style="normal" font-weight="normal" text-decoration="none" x="800" y="330">UNREGISTERED</text><text fill="#eeeeee" stroke="none" font-family="Arial" font-size="24px" font-style="normal" font-weight="normal" text-decoration="none" x="800" y="360">UNREGISTERED</text><text fill="#eeeeee" stroke="none" font-family="Arial" font-size="24px" font-style="normal" font-weight="normal" text-decoration="none" x="800" y="390">UNREGISTERED</text><text fill="#eeeeee" stroke="none" font-family="Arial" font-size="24px" font-style="normal" font-weight="normal" text-decoration="none" x="800" y="420">UNREGISTERED</text><text fill="#eeeeee" stroke="none" font-family="Arial" font-size="24px" font-style="normal" font-weight="normal" text-decoration="none" x="800" y="450">UNREGISTERED</text><text fill="#eeeeee" stroke="none" font-family="Arial" font-size="24px" font-style="normal" font-weight="normal" text-decoration="none" x="800" y="480">UNREGISTERED</text><text fill="#eeeeee" stroke="none" font-family="Arial" font-size="24px" font-style="normal" font-weight="normal" text-decoration="none" x="800" y="510">UNREGISTERED</text><text fill="#eeeeee" stroke="none" font-family="Arial" font-size="24px" font-style="normal" font-weight="normal" text-decoration="none" x="800" y="540">UNREGISTERED</text><text fill="#eeeeee" stroke="none" font-family="Arial" font-size="24px" font-style="normal" font-weight="normal" text-decoration="none" x="800" y="570">UNREGISTERED</text><g transform="translate(-110,-54) scale(1,1)"><rect fill="#C0C0C0" stroke="none" x="295" y="71" width="262" height="15" opacity="0.2"/></g><g transform="translate(-110,-54) scale(1,1)"><rect fill="#C0C0C0" stroke="none" x="295" y="85" width="655" height="538" opacity="0.2"/></g><g transform="translate(-110,-54) scale(1,1)"><rect fill="#ffffff" stroke="none" x="288" y="79" width="655" height="537"/></g><g transform="translate(-110,-54) scale(1,1)"><path fill="none" stroke="#000000" d="M 288 79 L 943 79 L 943 616 L 288 616 L 288 79 Z Z" stroke-miterlimit="10"/></g><g transform="translate(-110,-54) scale(1,1)"><rect fill="#ffffff" stroke="none" x="288" y="64" width="262" height="15"/></g><g transform="translate(-110,-54) scale(1,1)"><path fill="none" stroke="#000000" d="M 288 64 L 550 64 L 550 79 L 288 79 L 288 64 Z Z" stroke-miterlimit="10"/></g><g transform="translate(-110,-54) scale(1,1)"><rect fill="#ffffff" stroke="none" x="288" y="78" width="655" height="538"/></g><g transform="translate(-110,-54) scale(1,1)"><path fill="none" stroke="#000000" d="M 288 78 L 943 78 L 943 616 L 288 616 L 288 78 Z Z" stroke-miterlimit="10"/></g><g transform="translate(-110,-54) scale(1,1)"><g><path fill="none" stroke="none"/><text fill="#000000" stroke="none" font-family="Arial" font-size="13px" font-style="normal" font-weight="bold" text-decoration="none" x="560.583251953125" y="98.5">revisión posiciones</text></g></g><g transform="translate(-110,-54) scale(1,1)"><path fill="#ffffff" stroke="none" d="M 132.79753391335228 297.68 C 132.79753391335228 292.886167936 136.68337623829774 289 141.476806640625 289 C 146.27023704295226 289 150.15607936789772 292.886167936 150.15607936789772 297.68 C 150.15607936789772 302.473832064 146.27023704295226 306.36 141.476806640625 306.36 C 136.68337623829774 306.36 132.79753391335228 302.473832064 132.79753391335228 297.68 Z"/></g><g transform="translate(-110,-54) scale(1,1)"><path fill="none" stroke="#000000" d="M 132.79753391335228 297.68 C 132.79753391335228 292.886167936 136.68337623829774 289 141.476806640625 289 C 146.27023704295226 289 150.15607936789772 292.886167936 150.15607936789772 297.68 C 150.15607936789772 302.473832064 146.27023704295226 306.36 141.476806640625 306.36 C 136.68337623829774 306.36 132.79753391335228 302.473832064 132.79753391335228 297.68 Z" stroke-miterlimit="10"/></g><g transform="translate(-110,-54) scale(1,1)"><path fill="none" stroke="#000000" d="M 141.476806640625 306.36 L 141.476806640625 323.64" stroke-miterlimit="10"/></g><g transform="translate(-110,-54) scale(1,1)"><path fill="none" stroke="#000000" d="M 132.28698845880683 312.84 L 150.66662482244317 312.84" stroke-miterlimit="10"/></g><g transform="translate(-110,-54) scale(1,1)"><path fill="none" stroke="#000000" d="M 141.476806640625 323.64 L 128.71317027698865 341" stroke-miterlimit="10"/></g><g transform="translate(-110,-54) scale(1,1)"><path fill="none" stroke="#000000" d="M 141.476806640625 323.64 L 154.24044300426135 341" stroke-miterlimit="10"/></g><g transform="translate(-110,-54) scale(1,1)"><g><path fill="none" stroke="none"/><text fill="#000000" stroke="none" font-family="Arial" font-size="13px" font-style="normal" font-weight="bold" text-decoration="none" x="126.30908203125" y="361.5">movil</text></g></g><g transform="translate(-110,-54) scale(1,1)"><path fill="#ffffff" stroke="none" d="M 219.90617649147728 401.68 C 219.90617649147728 396.886167936 223.79201881642274 393 228.58544921875 393 C 233.37887962107726 393 237.26472194602272 396.886167936 237.26472194602272 401.68 C 237.26472194602272 406.473832064 233.37887962107726 410.36 228.58544921875 410.36 C 223.79201881642274 410.36 219.90617649147728 406.473832064 219.90617649147728 401.68 Z"/></g><g transform="translate(-110,-54) scale(1,1)"><path fill="none" stroke="#000000" d="M 219.90617649147728 401.68 C 219.90617649147728 396.886167936 223.79201881642274 393 228.58544921875 393 C 233.37887962107726 393 237.26472194602272 396.886167936 237.26472194602272 401.68 C 237.26472194602272 406.473832064 233.37887962107726 410.36 228.58544921875 410.36 C 223.79201881642274 410.36 219.90617649147728 406.473832064 219.90617649147728 401.68 Z" stroke-miterlimit="10"/></g><g transform="translate(-110,-54) scale(1,1)"><path fill="none" stroke="#000000" d="M 228.58544921875 410.36 L 228.58544921875 427.64" stroke-miterlimit="10"/></g><g transform="translate(-110,-54) scale(1,1)"><path fill="none" stroke="#000000" d="M 219.39563103693183 416.84 L 237.77526740056817 416.84" stroke-miterlimit="10"/></g><g transform="translate(-110,-54) scale(1,1)"><path fill="none" stroke="#000000" d="M 228.58544921875 427.64 L 215.82181285511365 445" stroke-miterlimit="10"/></g><g transform="translate(-110,-54) scale(1,1)"><path fill="none" stroke="#000000" d="M 228.58544921875 427.64 L 241.34908558238635 445" stroke-miterlimit="10"/></g><g transform="translate(-110,-54) scale(1,1)"><g><path fill="none" stroke="none"/><text fill="#000000" stroke="none" font-family="Arial" font-size="13px" font-style="normal" font-weight="bold" text-decoration="none" x="191.73095703125" y="465.5">Conductores</text></g></g><g transform="translate(-110,-54) scale(1,1)"><path fill="#C0C0C0" stroke="none" d="M 647 128 C 647 118.6111584 700.5019664 111 766.5 111 C 832.4980336 111 886 118.6111584 886 128 C 886 137.3888416 832.4980336 145 766.5 145 C 700.5019664 145 647 137.3888416 647 128 Z" opacity="0.2"/></g><g transform="translate(-110,-54) scale(1,1)"><path fill="#ffffff" stroke="none" d="M 640 121 C 640 111.6111584 693.5019664 104 759.5 104 C 825.4980336 104 879 111.6111584 879 121 C 879 130.3888416 825.4980336 138 759.5 138 C 693.5019664 138 640 130.3888416 640 121 Z"/></g><g transform="translate(-110,-54) scale(1,1)"><path fill="none" stroke="#000000" d="M 640 121 C 640 111.6111584 693.5019664 104 759.5 104 C 825.4980336 104 879 111.6111584 879 121 C 879 130.3888416 825.4980336 138 759.5 138 C 693.5019664 138 640 130.3888416 640 121 Z" stroke-miterlimit="10"/></g><g transform="translate(-110,-54) scale(1,1)"><g><path fill="none" stroke="none"/><text fill="#000000" stroke="none" font-family="Arial" font-size="13px" font-style="normal" font-weight="bold" text-decoration="none" x="685.791015625" y="128">AsignaciónRutasActuales</text></g></g><g transform="translate(-110,-54) scale(1,1)"><path fill="#C0C0C0" stroke="none" d="M 423 184 C 423 174.6111584 484.1131248 167 559.5 167 C 634.8868752 167 696 174.6111584 696 184 C 696 193.3888416 634.8868752 201 559.5 201 C 484.1131248 201 423 193.3888416 423 184 Z" opacity="0.2"/></g><g transform="translate(-110,-54) scale(1,1)"><path fill="#ffffff" stroke="none" d="M 416 177 C 416 167.6111584 477.1131248 160 552.5 160 C 627.8868752 160 689 167.6111584 689 177 C 689 186.3888416 627.8868752 194 552.5 194 C 477.1131248 194 416 186.3888416 416 177 Z"/></g><g transform="translate(-110,-54) scale(1,1)"><path fill="none" stroke="#000000" d="M 416 177 C 416 167.6111584 477.1131248 160 552.5 160 C 627.8868752 160 689 167.6111584 689 177 C 689 186.3888416 627.8868752 194 552.5 194 C 477.1131248 194 416 186.3888416 416 177 Z" stroke-miterlimit="10"/></g><g transform="translate(-110,-54) scale(1,1)"><g><path fill="none" stroke="none"/><text fill="#000000" stroke="none" font-family="Arial" font-size="13px" font-style="normal" font-weight="bold" text-decoration="none" x="466.860595703125" y="184">llamada pendiente de registro</text></g></g><g transform="translate(-110,-54) scale(1,1)"><path fill="#C0C0C0" stroke="none" d="M 391 256 C 391 246.6111584 457.2618496 239 539 239 C 620.7381504 239 687 246.6111584 687 256 C 687 265.3888416 620.7381504 273 539 273 C 457.2618496 273 391 265.3888416 391 256 Z" opacity="0.2"/></g><g transform="translate(-110,-54) scale(1,1)"><path fill="#ffffff" stroke="none" d="M 384 249 C 384 239.6111584 450.2618496 232 532 232 C 613.7381504 232 680 239.6111584 680 249 C 680 258.3888416 613.7381504 266 532 266 C 450.2618496 266 384 258.3888416 384 249 Z"/></g><g transform="translate(-110,-54) scale(1,1)"><path fill="none" stroke="#000000" d="M 384 249 C 384 239.6111584 450.2618496 232 532 232 C 613.7381504 232 680 239.6111584 680 249 C 680 258.3888416 613.7381504 266 532 266 C 450.2618496 266 384 258.3888416 384 249 Z" stroke-miterlimit="10"/></g><g transform="translate(-110,-54) scale(1,1)"><g><path fill="none" stroke="none"/><text fill="#000000" stroke="none" font-family="Arial" font-size="13px" font-style="normal" font-weight="bold" text-decoration="none" x="440.23828125" y="256">revisar posiciones y seleccionar</text></g></g><g transform="translate(-110,-54) scale(1,1)"><path fill="none" stroke="#000000" d="M 442 267 L 164 322" stroke-miterlimit="10"/></g><g transform="translate(-110,-54) scale(1,1)"><path fill="none" stroke="#000000" d="M 173.1524561193243 315.8981521664464 L 164 322 L 174.78642176736074 324.15710580561233" stroke-miterlimit="10"/></g><g transform="translate(-110,-54) scale(1,1)"><path fill="#C0C0C0" stroke="none" d="M 735 272 C 735 262.6111584 781.7862384 255 839.5 255 C 897.2137616 255 944 262.6111584 944 272 C 944 281.3888416 897.2137616 289 839.5 289 C 781.7862384 289 735 281.3888416 735 272 Z" opacity="0.2"/></g><g transform="translate(-110,-54) scale(1,1)"><path fill="#ffffff" stroke="none" d="M 728 265 C 728 255.6111584 774.7862384 248 832.5 248 C 890.2137616 248 937 255.6111584 937 265 C 937 274.3888416 890.2137616 282 832.5 282 C 774.7862384 282 728 274.3888416 728 265 Z"/></g><g transform="translate(-110,-54) scale(1,1)"><path fill="none" stroke="#000000" d="M 728 265 C 728 255.6111584 774.7862384 248 832.5 248 C 890.2137616 248 937 255.6111584 937 265 C 937 274.3888416 890.2137616 282 832.5 282 C 774.7862384 282 728 274.3888416 728 265 Z" stroke-miterlimit="10"/></g><g transform="translate(-110,-54) scale(1,1)"><g><path fill="none" stroke="none"/><text fill="#000000" stroke="none" font-family="Arial" font-size="13px" font-style="normal" font-weight="bold" text-decoration="none" x="768.912353515625" y="272">mensaje al dispositivo</text></g></g><g transform="translate(-110,-54) scale(1,1)"><path fill="none" stroke="#000000" d="M 727 259 L 681 257" stroke-miterlimit="10" stroke-dasharray="3"/></g><g transform="translate(-110,-54) scale(1,1)"><path fill="none" stroke="#000000" d="M 691.3359326687327 253.23589374918507 L 681 257 L 690.9702331350064 261.6469830248906" stroke-miterlimit="10"/></g><g transform="translate(-110,-54) scale(1,1)"><g><path fill="none" stroke="none"/><text fill="#000000" stroke="none" font-family="Arial" font-size="13px" font-style="normal" font-weight="normal" text-decoration="none" x="675.5" y="293.5">«extend»</text></g></g><g transform="translate(-110,-54) scale(1,1)"><path fill="#C0C0C0" stroke="none" d="M 479 328 C 479 318.6111584 521.532944 311 574 311 C 626.467056 311 669 318.6111584 669 328 C 669 337.3888416 626.467056 345 574 345 C 521.532944 345 479 337.3888416 479 328 Z" opacity="0.2"/></g><g transform="translate(-110,-54) scale(1,1)"><path fill="#ffffff" stroke="none" d="M 472 321 C 472 311.6111584 514.532944 304 567 304 C 619.467056 304 662 311.6111584 662 321 C 662 330.3888416 619.467056 338 567 338 C 514.532944 338 472 330.3888416 472 321 Z"/></g><g transform="translate(-110,-54) scale(1,1)"><path fill="none" stroke="#000000" d="M 472 321 C 472 311.6111584 514.532944 304 567 304 C 619.467056 304 662 311.6111584 662 321 C 662 330.3888416 619.467056 338 567 338 C 514.532944 338 472 330.3888416 472 321 Z" stroke-miterlimit="10"/></g><g transform="translate(-110,-54) scale(1,1)"><g><path fill="none" stroke="none"/><text fill="#000000" stroke="none" font-family="Arial" font-size="13px" font-style="normal" font-weight="bold" text-decoration="none" x="508.458740234375" y="328">nueva ruta instalada</text></g></g><g transform="translate(-110,-54) scale(1,1)"><path fill="none" stroke="#000000" d="M 512 339 L 274 416" stroke-miterlimit="10"/></g><g transform="translate(-110,-54) scale(1,1)"><path fill="none" stroke="#000000" d="M 541 267 L 558 303" stroke-miterlimit="10"/></g><g transform="translate(-110,-54) scale(1,1)"><path fill="#C0C0C0" stroke="none" d="M 543 424 C 543 414.6111584 585.7568016 407 638.5 407 C 691.2431984 407 734 414.6111584 734 424 C 734 433.3888416 691.2431984 441 638.5 441 C 585.7568016 441 543 433.3888416 543 424 Z" opacity="0.2"/></g><g transform="translate(-110,-54) scale(1,1)"><path fill="#ffffff" stroke="none" d="M 536 417 C 536 407.6111584 578.7568016 400 631.5 400 C 684.2431984 400 727 407.6111584 727 417 C 727 426.3888416 684.2431984 434 631.5 434 C 578.7568016 434 536 426.3888416 536 417 Z"/></g><g transform="translate(-110,-54) scale(1,1)"><path fill="none" stroke="#000000" d="M 536 417 C 536 407.6111584 578.7568016 400 631.5 400 C 684.2431984 400 727 407.6111584 727 417 C 727 426.3888416 684.2431984 434 631.5 434 C 578.7568016 434 536 426.3888416 536 417 Z" stroke-miterlimit="10"/></g><g transform="translate(-110,-54) scale(1,1)"><g><path fill="none" stroke="none"/><text fill="#000000" stroke="none" font-family="Arial" font-size="13px" font-style="normal" font-weight="bold" text-decoration="none" x="573.69189453125" y="424">confirma asignacion</text></g></g><g transform="translate(-110,-54) scale(1,1)"><path fill="none" stroke="#000000" d="M 535 420 L 274 429" stroke-miterlimit="10"/></g><g transform="translate(-110,-54) scale(1,1)"><path fill="#C0C0C0" stroke="none" d="M 599 512 C 599 502.6111584 655.1882576 495 724.5 495 C 793.8117424 495 850 502.6111584 850 512 C 850 521.3888416 793.8117424 529 724.5 529 C 655.1882576 529 599 521.3888416 599 512 Z" opacity="0.2"/></g><g transform="translate(-110,-54) scale(1,1)"><path fill="#ffffff" stroke="none" d="M 592 505 C 592 495.6111584 648.1882576 488 717.5 488 C 786.8117424 488 843 495.6111584 843 505 C 843 514.3888416 786.8117424 522 717.5 522 C 648.1882576 522 592 514.3888416 592 505 Z"/></g><g transform="translate(-110,-54) scale(1,1)"><path fill="none" stroke="#000000" d="M 592 505 C 592 495.6111584 648.1882576 488 717.5 488 C 786.8117424 488 843 495.6111584 843 505 C 843 514.3888416 786.8117424 522 717.5 522 C 648.1882576 522 592 514.3888416 592 505 Z" stroke-miterlimit="10"/></g><g transform="translate(-110,-54) scale(1,1)"><g><path fill="none" stroke="none"/><text fill="#000000" stroke="none" font-family="Arial" font-size="13px" font-style="normal" font-weight="bold" text-decoration="none" x="639.830078125" y="512">registra ese movil en curso</text></g></g><g transform="translate(-110,-54) scale(1,1)"><path fill="#ffffff" stroke="none" d="M 215.93254367897728 129.68 C 215.93254367897728 124.886167936 219.81838600392274 121 224.61181640625 121 C 229.40524680857726 121 233.29108913352272 124.886167936 233.29108913352272 129.68 C 233.29108913352272 134.47383206400002 229.40524680857726 138.36 224.61181640625 138.36 C 219.81838600392274 138.36 215.93254367897728 134.47383206400002 215.93254367897728 129.68 Z"/></g><g transform="translate(-110,-54) scale(1,1)"><path fill="none" stroke="#000000" d="M 215.93254367897728 129.68 C 215.93254367897728 124.886167936 219.81838600392274 121 224.61181640625 121 C 229.40524680857726 121 233.29108913352272 124.886167936 233.29108913352272 129.68 C 233.29108913352272 134.47383206400002 229.40524680857726 138.36 224.61181640625 138.36 C 219.81838600392274 138.36 215.93254367897728 134.47383206400002 215.93254367897728 129.68 Z" stroke-miterlimit="10"/></g><g transform="translate(-110,-54) scale(1,1)"><path fill="none" stroke="#000000" d="M 224.61181640625 138.36 L 224.61181640625 155.64" stroke-miterlimit="10"/></g><g transform="translate(-110,-54) scale(1,1)"><path fill="none" stroke="#000000" d="M 215.42199822443183 144.84 L 233.80163458806817 144.84" stroke-miterlimit="10"/></g><g transform="translate(-110,-54) scale(1,1)"><path fill="none" stroke="#000000" d="M 224.61181640625 155.64 L 211.84818004261365 173" stroke-miterlimit="10"/></g><g transform="translate(-110,-54) scale(1,1)"><path fill="none" stroke="#000000" d="M 224.61181640625 155.64 L 237.37545276988635 173" stroke-miterlimit="10"/></g><g transform="translate(-110,-54) scale(1,1)"><g><path fill="none" stroke="none"/><text fill="#000000" stroke="none" font-family="Arial" font-size="13px" font-style="normal" font-weight="bold" text-decoration="none" x="192.0927734375" y="193.5">controlador</text></g></g><g transform="translate(-110,-54) scale(1,1)"><path fill="none" stroke="#000000" d="M 266 156 L 639 130" stroke-miterlimit="10"/></g><g transform="translate(-110,-54) scale(1,1)"><path fill="none" stroke="#000000" d="M 415 169 L 266 161" stroke-miterlimit="10"/></g><g transform="translate(-110,-54) scale(1,1)"><path fill="none" stroke="#000000" d="M 276.37374751831453 157.3413988429643 L 266 161 L 275.9223689043142 165.74832552872044" stroke-miterlimit="10"/></g><g transform="translate(-110,-54) scale(1,1)"><path fill="none" stroke="#000000" d="M 266 171 L 470 231" stroke-miterlimit="10"/></g><g transform="translate(-110,-54) scale(1,1)"><path fill="none" stroke="#000000" d="M 265 200 L 400 336 L 580 399" stroke-miterlimit="10"/></g><g transform="translate(-110,-54) scale(1,1)"><path fill="none" stroke="#000000" d="M 252 200 L 408 432 L 641 487" stroke-miterlimit="10"/></g></g></svg>