<svg version="1.1" xmlns="http://www.w3.org/2000/svg" xmlns:xlink="http://www.w3.org/1999/xlink" width="868" height="676"><defs/><g><text fill="#eeeeee" stroke="none" font-family="Arial" font-size="24px" font-style="normal" font-weight="normal" text-decoration="none" x="0" y="0">UNREGISTERED</text><text fill="#eeeeee" stroke="none" font-family="Arial" font-size="24px" font-style="normal" font-weight="normal" text-decoration="none" x="0" y="30">UNREGISTERED</text><text fill="#eeeeee" stroke="none" font-family="Arial" font-size="24px" font-style="normal" font-weight="normal" text-decoration="none" x="0" y="60">UNREGISTERED</text><text fill="#eeeeee" stroke="none" font-family="Arial" font-size="24px" font-style="normal" font-weight="normal" text-decoration="none" x="0" y="90">UNREGISTERED</text><text fill="#eeeeee" stroke="none" font-family="Arial" font-size="24px" font-style="normal" font-weight="normal" text-decoration="none" x="0" y="120">UNREGISTERED</text><text fill="#eeeeee" stroke="none" font-family="Arial" font-size="24px" font-style="normal" font-weight="normal" text-decoration="none" x="0" y="150">UNREGISTERED</text><text fill="#eeeeee" stroke="none" font-family="Arial" font-size="24px" font-style="normal" font-weight="normal" text-decoration="none" x="0" y="180">UNREGISTERED</text><text fill="#eeeeee" stroke="none" font-family="Arial" font-size="24px" font-style="normal" font-weight="normal" text-decoration="none" x="0" y="210">UNREGISTERED</text><text fill="#eeeeee" stroke="none" font-family="Arial" font-size="24px" font-style="normal" font-weight="normal" text-decoration="none" x="0" y="240">UNREGISTERED</text><text fill="#eeeeee" stroke="none" font-family="Arial" font-size="24px" font-style="normal" font-weight="normal" text-decoration="none" x="0" y="270">UNREGISTERED</text><text fill="#eeeeee" stroke="none" font-family="Arial" font-size="24px" font-style="normal" font-weight="normal" text-decoration="none" x="0" y="300">UNREGISTERED</text><text fill="#eeeeee" stroke="none" font-family="Arial" font-size="24px" font-style="normal" font-weight="normal" text-decoration="none" x="0" y="330">UNREGISTERED</text><text fill="#eeeeee" stroke="none" font-family="Arial" font-size="24px" font-style="normal" font-weight="normal" text-decoration="none" x="0" y="360">UNREGISTERED</text><text fill="#eeeeee" stroke="none" font-family="Arial" font-size="24px" font-style="normal" font-weight="normal" text-decoration="none" x="0" y="390">UNREGISTERED</text><text fill="#eeeeee" stroke="none" font-family="Arial" font-size="24px" font-style="normal" font-weight="normal" text-decoration="none" x="0" y="420">UNREGISTERED</text><text fill="#eeeeee" stroke="none" font-family="Arial" font-size="24px" font-style="normal" font-weight="normal" text-decoration="none" x="0" y="450">UNREGISTERED</text><text fill="#eeeeee" stroke="none" font-family="Arial" font-size="24px" font-style="normal" font-weight="normal" text-decoration="none" x="0" y="480">UNREGISTERED</text><text fill="#eeeeee" stroke="none" font-family="Arial" font-size="24px" font-style="normal" font-weight="normal" text-decoration="none" x="0" y="510">UNREGISTERED</text><text fill="#eeeeee" stroke="none" font-family="Arial" font-size="24px" font-style="normal" font-weight="normal" text-decoration="none" x="0" y="540">UNREGISTERED</text><text fill="#eeeeee" stroke="none" font-family="Arial" font-size="24px" font-style="normal" font-weight="normal" text-decoration="none" x="0" y="570">UNREGISTERED</text><text fill="#eeeeee" stroke="none" font-family="Arial" font-size="24px" font-style="normal" font-weight="normal" text-decoration="none" x="0" y="600">UNREGISTERED</text><text fill="#eeeeee" stroke="none" font-family="Arial" font-size="24px" font-style="normal" font-weight="normal" text-decoration="none" x="0" y="630">UNREGISTERED</text><text fill="#eeeeee" stroke="none" font-family="Arial" font-size="24px" font-style="normal" font-weight="normal" text-decoration="none" x="0" y="660">UNREGISTERED</text><text fill="#eeeeee" stroke="none" font-family="Arial" font-size="24px" font-style="normal" font-weight="normal" text-decoration="none" x="200" y="0">UNREGISTERED</text><text fill="#eeeeee" stroke="none" font-family="Arial" font-size="24px" font-style="normal" font-weight="normal" text-decoration="none" x="200" y="30">UNREGISTERED</text><text fill="#eeeeee" stroke="none" font-family="Arial" font-size="24px" font-style="normal" font-weight="normal" text-decoration="none" x="200" y="60">UNREGISTERED</text><text fill="#eeeeee" stroke="none" font-family="Arial" font-size="24px" font-style="normal" font-weight="normal" text-decoration="none" x="200" y="90">UNREGISTERED</text><text fill="#eeeeee" stroke="none" font-family="Arial" font-size="24px" font-style="normal" font-weight="normal" text-decoration="none" x="200" y="120">UNREGISTERED</text><text fill="#eeeeee" stroke="none" font-family="Arial" font-size="24px" font-style="normal" font-weight="normal" text-decoration="none" x="200" y="150">UNREGISTERED</text><text fill="#eeeeee" stroke="none" font-family="Arial" font-size="24px" font-style="normal" font-weight="normal" text-decoration="none" x="200" y="180">UNREGISTERED</text><text fill="#eeeeee" stroke="none" font-family="Arial" font-size="24px" font-style="normal" font-weight="normal" text-decoration="none" x="200" y="210">UNREGISTERED</text><text fill="#eeeeee" stroke="none" font-family="Arial" font-size="24px" font-style="normal" font-weight="normal" text-decoration="none" x="200" y="240">UNREGISTERED</text><text fill="#eeeeee" stroke="none" font-family="Arial" font-size="24px" font-style="normal" font-weight="normal" text-decoration="none" x="200" y="270">UNREGISTERED</text><text fill="#eeeeee" stroke="none" font-family="Arial" font-size="24px" font-style="normal" font-weight="normal" text-decoration="none" x="200" y="300">UNREGISTERED</text><text fill="#eeeeee" stroke="none" font-family="Arial" font-size="24px" font-style="normal" font-weight="normal" text-decoration="none" x="200" y="330">UNREGISTERED</text><text fill="#eeeeee" stroke="none" font-family="Arial" font-size="24px" font-style="normal" font-weight="normal" text-decoration="none" x="200" y="360">UNREGISTERED</text><text fill="#eeeeee" stroke="none" font-family="Arial" font-size="24px" font-style="normal" font-weight="normal" text-decoration="none" x="200" y="390">UNREGISTERED</text><text fill="#eeeeee" stroke="none" font-family="Arial" font-size="24px" font-style="normal" font-weight="normal" text-decoration="none" x="200" y="420">UNREGISTERED</text><text fill="#eeeeee" stroke="none" font-family="Arial" font-size="24px" font-style="normal" font-weight="normal" text-decoration="none" x="200" y="450">UNREGISTERED</text><text fill="#eeeeee" stroke="none" font-family="Arial" font-size="24px" font-style="normal" font-weight="normal" text-decoration="none" x="200" y="480">UNREGISTERED</text><text fill="#eeeeee" stroke="none" font-family="Arial" font-size="24px" font-style="normal" font-weight="normal" text-decoration="none" x="200" y="510">UNREGISTERED</text><text fill="#eeeeee" stroke="none" font-family="Arial" font-size="24px" font-style="normal" font-weight="normal" text-decoration="none" x="200" y="540">UNREGISTERED</text><text fill="#eeeeee" stroke="none" font-family="Arial" font-size="24px" font-style="normal" font-weight="normal" text-decoration="none" x="200" y="570">UNREGISTERED</text><text fill="#eeeeee" stroke="none" font-family="Arial" font-size="24px" font-style="normal" font-weight="normal" text-decoration="none" x="200" y="600">UNREGISTERED</text><text fill="#eeeeee" stroke="none" font-family="Arial" font-size="24px" font-style="normal" font-weight="normal" text-decoration="none" x="200" y="630">UNREGISTERED</text><text fill="#eeeeee" stroke="none" font-family="Arial" font-size="24px" font-style="normal" font-weight="normal" text-decoration="none" x="200" y="660">UNREGISTERED</text><text fill="#eeeeee" stroke="none" font-family="Arial" font-size="24px" font-style="normal" font-weight="normal" text-decoration="none" x="400" y="0">UNREGISTERED</text><text fill="#eeeeee" stroke="none" font-family="Arial" font-size="24px" font-style="normal" font-weight="normal" text-decoration="none" x="400" y="30">UNREGISTERED</text><text fill="#eeeeee" stroke="none" font-family="Arial" font-size="24px" font-style="normal" font-weight="normal" text-decoration="none" x="400" y="60">UNREGISTERED</text><text fill="#eeeeee" stroke="none" font-family="Arial" font-size="24px" font-style="normal" font-weight="normal" text-decoration="none" x="400" y="90">UNREGISTERED</text><text fill="#eeeeee" stroke="none" font-family="Arial" font-size="24px" font-style="normal" font-weight="normal" text-decoration="none" x="400" y="120">UNREGISTERED</text><text fill="#eeeeee" stroke="none" font-family="Arial" font-size="24px" font-style="normal" font-weight="normal" text-decoration="none" x="400" y="150">UNREGISTERED</text><text fill="#eeeeee" stroke="none" font-family="Arial" font-size="24px" font-style="normal" font-weight="normal" text-decoration="none" x="400" y="180">UNREGISTERED</text><text fill="#eeeeee" stroke="none" font-family="Arial" font-size="24px" font-style="normal" font-weight="normal" text-decoration="none" x="400" y="210">UNREGISTERED</text><text fill="#eeeeee" stroke="none" font-family="Arial" font-size="24px" font-style="normal" font-weight="normal" text-decoration="none" x="400" y="240">UNREGISTERED</text><text fill="#eeeeee" stroke="none" font-family="Arial" font-size="24px" font-style="normal" font-weight="normal" text-decoration="none" x="400" y="270">UNREGISTERED</text><text fill="#eeeeee" stroke="none" font-family="Arial" font-size="24px" font-style="normal" font-weight="normal" text-decoration="none" x="400" y="300">UNREGISTERED</text><text fill="#eeeeee" stroke="none" font-family="Arial" font-size="24px" font-style="normal" font-weight="normal" text-decoration="none" x="400" y="330">UNREGISTERED</text><text fill="#eeeeee" stroke="none" font-family="Arial" font-size="24px" font-style="normal" font-weight="normal" text-decoration="none" x="400" y="360">UNREGISTERED</text><text fill="#eeeeee" stroke="none" font-family="Arial" font-size="24px" font-style="normal" font-weight="normal" text-decoration="none" x="400" y="390">UNREGISTERED</text><text fill="#eeeeee" stroke="none" font-family="Arial" font-size="24px" font-style="normal" font-weight="normal" text-decoration="none" x="400" y="420">UNREGISTERED</text><text fill="#eeeeee" stroke="none" font-family="Arial" font-size="24px" font-style="normal" font-weight="normal" text-decoration="none" x="400" y="450">UNREGISTERED</text><text fill="#eeeeee" stroke="none" font-family="Arial" font-size="24px" font-style="normal" font-weight="normal" text-decoration="none" x="400" y="480">UNREGISTERED</text><text fill="#eeeeee" stroke="none" font-family="Arial" font-size="24px" font-style="normal" font-weight="normal" text-decoration="none" x="400" y="510">UNREGISTERED</text><text fill="#eeeeee" stroke="none" font-family="Arial" font-size="24px" font-style="normal" font-weight="normal" text-decoration="none" x="400" y="540">UNREGISTERED</text><text fill="#eeeeee" stroke="none" font-family="Arial" font-size="24px" font-style="normal" font-weight="normal" text-decoration="none" x="400" y="570">UNREGISTERED</text><text fill="#eeeeee" stroke="none" font-family="Arial" font-size="24px" font-style="normal" font-weight="normal" text-decoration="none" x="400" y="600">UNREGISTERED</text><text fill="#eeeeee" stroke="none" font-family="Arial" font-size="24px" font-style="normal" font-weight="normal" text-decoration="none" x="400" y="630">UNREGISTERED</text><text fill="#eeeeee" stroke="none" font-family="Arial" font-size="24px" font-style="normal" font-weight="normal" text-decoration="none" x="400" y="660">UNREGISTERED</text><text fill="#eeeeee" stroke="none" font-family="Arial" font-size="24px" font-style="normal" font-weight="normal" text-decoration="none" x="600" y="0">UNREGISTERED</text><text fill="#eeeeee" stroke="none" font-family="Arial" font-size="24px" font-style="normal" font-weight="normal" text-decoration="none" x="600" y="30">UNREGISTERED</text><text fill="#eeeeee" stroke="none" font-family="Arial" font-size="24px" font-style="normal" font-weight="normal" text-decoration="none" x="600" y="60">UNREGISTERED</text><text fill="#eeeeee" stroke="none" font-family="Arial" font-size="24px" font-style="normal" font-weight="normal" text-decoration="none" x="600" y="90">UNREGISTERED</text><text fill="#eeeeee" stroke="none" font-family="Arial" font-size="24px" font-style="normal" font-weight="normal" text-decoration="none" x="600" y="120">UNREGISTERED</text><text fill="#eeeeee" stroke="none" font-family="Arial" font-size="24px" font-style="normal" font-weight="normal" text-decoration="none" x="600" y="150">UNREGISTERED</text><text fill="#eeeeee" stroke="none" font-family="Arial" font-size="24px" font-style="normal" font-weight="normal" text-decoration="none" x="600" y="180">UNREGISTERED</text><text fill="#eeeeee" stroke="none" font-family="Arial" font-size="24px" font-style="normal" font-weight="normal" text-decoration="none" x="600" y="210">UNREGISTERED</text><text fill="#eeeeee" stroke="none" font-family="Arial" font-size="24px" font-style="normal" font-weight="normal" text-decoration="none" x="600" y="240">UNREGISTERED</text><text fill="#eeeeee" stroke="none" font-family="Arial" font-size="24px" font-style="normal" font-weight="normal" text-decoration="none" x="600" y="270">UNREGISTERED</text><text fill="#eeeeee" stroke="none" font-family="Arial" font-size="24px" font-style="normal" font-weight="normal" text-decoration="none" x="600" y="300">UNREGISTERED</text><text fill="#eeeeee" stroke="none" font-family="Arial" font-size="24px" font-style="normal" font-weight="normal" text-decoration="none" x="600" y="330">UNREGISTERED</text><text fill="#eeeeee" stroke="none" font-family="Arial" font-size="24px" font-style="normal" font-weight="normal" text-decoration="none" x="600" y="360">UNREGISTERED</text><text fill="#eeeeee" stroke="none" font-family="Arial" font-size="24px" font-style="normal" font-weight="normal" text-decoration="none" x="600" y="390">UNREGISTERED</text><text fill="#eeeeee" stroke="none" font-family="Arial" font-size="24px" font-style="normal" font-weight="normal" text-decoration="none" x="600" y="420">UNREGISTERED</text><text fill="#eeeeee" stroke="none" font-family="Arial" font-size="24px" font-style="normal" font-weight="normal" text-decoration="none" x="600" y="450">UNREGISTERED</text><text fill="#eeeeee" stroke="none" font-family="Arial" font-size="24px" font-style="normal" font-weight="normal" text-decoration="none" x="600" y="480">UNREGISTERED</text><text fill="#eeeeee" stroke="none" font-family="Arial" font-size="24px" font-style="normal" font-weight="normal" text-decoration="none" x="600" y="510">UNREGISTERED</text><text fill="#eeeeee" stroke="none" font-family="Arial" font-size="24px" font-style="normal" font-weight="normal" text-decoration="none" x="600" y="540">UNREGISTERED</text><text fill="#eeeeee" stroke="none" font-family="Arial" font-size="24px" font-style="normal" font-weight="normal" text-decoration="none" x="600" y="570">UNREGISTERED</text><text fill="#eeeeee" stroke="none" font-family="Arial" font-size="24px" font-style="normal" font-weight="normal" text-decoration="none" x="600" y="600">UNREGISTERED</text><text fill="#eeeeee" stroke="none" font-family="Arial" font-size="24px" font-style="normal" font-weight="normal" text-decoration="none" x="600" y="630">UNREGISTERED</text><text fill="#eeeeee" stroke="none" font-family="Arial" font-size="24px" font-style="normal" font-weight="normal" text-decoration="none" x="600" y="660">UNREGISTERED</text><text fill="#eeeeee" stroke="none" font-family="Arial" font-size="24px" font-style="normal" font-weight="normal" text-decoration="none" x="800" y="0">UNREGISTERED</text><text fill="#eeeeee" stroke="none" font-family="Arial" font-size="24px" font-style="normal" font-weight="normal" text-decoration="none" x="800" y="30">UNREGISTERED</text><text fill="#eeeeee" stroke="none" font-family="Arial" font-size="24px" font-style="normal" font-weight="normal" text-decoration="none" x="800" y="60">UNREGISTERED</text><text fill="#eeeeee" stroke="none" font-family="Arial" font-size="24px" font-style="normal" font-weight="normal" text-decoration="none" x="800" y="90">UNREGISTERED</text><text fill="#eeeeee" stroke="none" font-family="Arial" font-size="24px" font-style="normal" font-weight="normal" text-decoration="none" x="800" y="120">UNREGISTERED</text><text fill="#eeeeee" stroke="none" font-family="Arial" font-size="24px" font-style="normal" font-weight="normal" text-decoration="none" x="800" y="150">UNREGISTERED</text><text fill="#eeeeee" stroke="none" font-family="Arial" font-size="24px" font-style="normal" font-weight="normal" text-decoration="none" x="800" y="180">UNREGISTERED</text><text fill="#eeeeee" stroke="none" font-family="Arial" font-size="24px" font-style="normal" font-weight="normal" text-decoration="none" x="800" y="210">UNREGISTERED</text><text fill="#eeeeee" stroke="none" font-family="Arial" font-size="24px" font-style="normal" font-weight="normal" text-decoration="none" x="800" y="240">UNREGISTERED</text><text fill="#eeeeee" stroke="none" font-family="Arial" font-size="24px" font-style="normal" font-weight="normal" text-decoration="none" x="800" y="270">UNREGISTERED</text><text fill="#eeeeee" stroke="none" font-family="Arial" font-size="24px" font-style="normal" font-weight="normal" text-decoration="none" x="800" y="300">UNREGISTERED</text><text fill="#eeeeee" stroke="none" font-family="Arial" font-size="24px" font-style="normal" font-weight="normal" text-decoration="none" x="800" y="330">UNREGISTERED</text><text fill="#eeeeee" stroke="none" font-family="Arial" font-size="24px" font-style="normal" font-weight="normal" text-decoration="none" x="800" y="360">UNREGISTERED</text><text fill="#eeeeee" stroke="none" font-family="Arial" font-size="24px" font-style="normal" font-weight="normal" text-decoration="none" x="800" y="390">UNREGISTERED</text><text fill="#eeeeee" stroke="none" font-family="Arial" font-size="24px" font-style="normal" font-weight="normal" text-decoration="none" x="800" y="420">UNREGISTERED</text><text fill="#eeeeee" stroke="none" font-family="Arial" font-size="24px" font-style="normal" font-weight="normal" text-decoration="none" x="800" y="450">UNREGISTERED</text><text fill="#eeeeee" stroke="none" font-family="Arial" font-size="24px" font-style="normal" font-weight="normal" text-decoration="none" x="800" y="480">UNREGISTERED</text><text fill="#eeeeee" stroke="none" font-family="Arial" font-size="24px" font-style="normal" font-weight="normal" text-decoration="none" x="800" y="510">UNREGISTERED</text><text fill="#eeeeee" stroke="none" font-family="Arial" font-size="24px" font-style="normal" font-weight="normal" text-decoration="none" x="800" y="540">UNREGISTERED</text><text fill="#eeeeee" stroke="none" font-family="Arial" font-size="24px" font-style="normal" font-weight="normal" text-decoration="none" x="800" y="570">UNREGISTERED</text><text fill="#eeeeee" stroke="none" font-family="Arial" font-size="24px" font-style="normal" font-weight="normal" text-decoration="none" x="800" y="600">UNREGISTERED</text><text fill="#eeeeee" stroke="none" font-family="Arial" font-size="24px" font-style="normal" font-weight="normal" text-decoration="none" x="800" y="630">UNREGISTERED</text><text fill="#eeeeee" stroke="none" font-family="Arial" font-size="24px" font-style="normal" font-weight="normal" text-decoration="none" x="800" y="660">UNREGISTERED</text><g transform="translate(-118,-46) scale(1,1)"><rect fill="#C0C0C0" stroke="none" x="407" y="63" width="230.39999999999998" height="15" opacity="0.2"/></g><g transform="translate(-118,-46) scale(1,1)"><rect fill="#C0C0C0" stroke="none" x="407" y="77" width="576" height="642" opacity="0.2"/></g><g transform="translate(-118,-46) scale(1,1)"><rect fill="#ffffff" stroke="none" x="400" y="71" width="576" height="641"/></g><g transform="translate(-118,-46) scale(1,1)"><path fill="none" stroke="#000000" d="M 400 71 L 976 71 L 976 712 L 400 712 L 400 71 Z Z" stroke-miterlimit="10"/></g><g transform="translate(-118,-46) scale(1,1)"><rect fill="#ffffff" stroke="none" x="400" y="56" width="230.39999999999998" height="15"/></g><g transform="translate(-118,-46) scale(1,1)"><path fill="none" stroke="#000000" d="M 400 56 L 630.4 56 L 630.4 71 L 400 71 L 400 56 Z Z" stroke-miterlimit="10"/></g><g transform="translate(-118,-46) scale(1,1)"><rect fill="#ffffff" stroke="none" x="400" y="70" width="576" height="642"/></g><g transform="translate(-118,-46) scale(1,1)"><path fill="none" stroke="#000000" d="M 400 70 L 976 70 L 976 712 L 400 712 L 400 70 Z Z" stroke-miterlimit="10"/></g><g transform="translate(-118,-46) scale(1,1)"><g><path fill="none" stroke="none"/><text fill="#000000" stroke="none" font-family="Arial" font-size="13px" font-style="normal" font-weight="bold" text-decoration="none" x="644.2900390625" y="90.5">terminar la ruta</text></g></g><g transform="translate(-118,-46) scale(1,1)"><path fill="#ffffff" stroke="none" d="M 163.90617649147728 105.68 C 163.90617649147728 100.886167936 167.79201881642274 97 172.58544921875 97 C 177.37887962107726 97 181.26472194602272 100.886167936 181.26472194602272 105.68 C 181.26472194602272 110.473832064 177.37887962107726 114.36 172.58544921875 114.36 C 167.79201881642274 114.36 163.90617649147728 110.473832064 163.90617649147728 105.68 Z"/></g><g transform="translate(-118,-46) scale(1,1)"><path fill="none" stroke="#000000" d="M 163.90617649147728 105.68 C 163.90617649147728 100.886167936 167.79201881642274 97 172.58544921875 97 C 177.37887962107726 97 181.26472194602272 100.886167936 181.26472194602272 105.68 C 181.26472194602272 110.473832064 177.37887962107726 114.36 172.58544921875 114.36 C 167.79201881642274 114.36 163.90617649147728 110.473832064 163.90617649147728 105.68 Z" stroke-miterlimit="10"/></g><g transform="translate(-118,-46) scale(1,1)"><path fill="none" stroke="#000000" d="M 172.58544921875 114.36 L 172.58544921875 131.64" stroke-miterlimit="10"/></g><g transform="translate(-118,-46) scale(1,1)"><path fill="none" stroke="#000000" d="M 163.39563103693183 120.84 L 181.77526740056817 120.84" stroke-miterlimit="10"/></g><g transform="translate(-118,-46) scale(1,1)"><path fill="none" stroke="#000000" d="M 172.58544921875 131.64 L 159.82181285511365 149" stroke-miterlimit="10"/></g><g transform="translate(-118,-46) scale(1,1)"><path fill="none" stroke="#000000" d="M 172.58544921875 131.64 L 185.34908558238635 149" stroke-miterlimit="10"/></g><g transform="translate(-118,-46) scale(1,1)"><g><path fill="none" stroke="none"/><text fill="#000000" stroke="none" font-family="Arial" font-size="13px" font-style="normal" font-weight="bold" text-decoration="none" x="135.73095703125" y="169.5">Conductores</text></g></g><g transform="translate(-118,-46) scale(1,1)"><path fill="#ffffff" stroke="none" d="M 270.12980930397725 249.68 C 270.12980930397725 244.886167936 274.01565162892274 241 278.80908203125 241 C 283.60251243357726 241 287.48835475852275 244.886167936 287.48835475852275 249.68 C 287.48835475852275 254.47383206400002 283.60251243357726 258.36 278.80908203125 258.36 C 274.01565162892274 258.36 270.12980930397725 254.47383206400002 270.12980930397725 249.68 Z"/></g><g transform="translate(-118,-46) scale(1,1)"><path fill="none" stroke="#000000" d="M 270.12980930397725 249.68 C 270.12980930397725 244.886167936 274.01565162892274 241 278.80908203125 241 C 283.60251243357726 241 287.48835475852275 244.886167936 287.48835475852275 249.68 C 287.48835475852275 254.47383206400002 283.60251243357726 258.36 278.80908203125 258.36 C 274.01565162892274 258.36 270.12980930397725 254.47383206400002 270.12980930397725 249.68 Z" stroke-miterlimit="10"/></g><g transform="translate(-118,-46) scale(1,1)"><path fill="none" stroke="#000000" d="M 278.80908203125 258.36 L 278.80908203125 275.64" stroke-miterlimit="10"/></g><g transform="translate(-118,-46) scale(1,1)"><path fill="none" stroke="#000000" d="M 269.61926384943183 264.84 L 287.99890021306817 264.84" stroke-miterlimit="10"/></g><g transform="translate(-118,-46) scale(1,1)"><path fill="none" stroke="#000000" d="M 278.80908203125 275.64 L 266.04544566761365 293" stroke-miterlimit="10"/></g><g transform="translate(-118,-46) scale(1,1)"><path fill="none" stroke="#000000" d="M 278.80908203125 275.64 L 291.57271839488635 293" stroke-miterlimit="10"/></g><g transform="translate(-118,-46) scale(1,1)"><g><path fill="none" stroke="none"/><text fill="#000000" stroke="none" font-family="Arial" font-size="13px" font-style="normal" font-weight="bold" text-decoration="none" x="248.4609375" y="313.5">dispositivo</text></g></g><g transform="translate(-118,-46) scale(1,1)"><path fill="#ffffff" stroke="none" d="M 276.03068821022725 361.68 C 276.03068821022725 356.886167936 279.91653053517274 353 284.7099609375 353 C 289.50339133982726 353 293.38923366477275 356.886167936 293.38923366477275 361.68 C 293.38923366477275 366.473832064 289.50339133982726 370.36 284.7099609375 370.36 C 279.91653053517274 370.36 276.03068821022725 366.473832064 276.03068821022725 361.68 Z"/></g><g transform="translate(-118,-46) scale(1,1)"><path fill="none" stroke="#000000" d="M 276.03068821022725 361.68 C 276.03068821022725 356.886167936 279.91653053517274 353 284.7099609375 353 C 289.50339133982726 353 293.38923366477275 356.886167936 293.38923366477275 361.68 C 293.38923366477275 366.473832064 289.50339133982726 370.36 284.7099609375 370.36 C 279.91653053517274 370.36 276.03068821022725 366.473832064 276.03068821022725 361.68 Z" stroke-miterlimit="10"/></g><g transform="translate(-118,-46) scale(1,1)"><path fill="none" stroke="#000000" d="M 284.7099609375 370.36 L 284.7099609375 387.64" stroke-miterlimit="10"/></g><g transform="translate(-118,-46) scale(1,1)"><path fill="none" stroke="#000000" d="M 275.52014275568183 376.84 L 293.89977911931817 376.84" stroke-miterlimit="10"/></g><g transform="translate(-118,-46) scale(1,1)"><path fill="none" stroke="#000000" d="M 284.7099609375 387.64 L 271.94632457386365 405" stroke-miterlimit="10"/></g><g transform="translate(-118,-46) scale(1,1)"><path fill="none" stroke="#000000" d="M 284.7099609375 387.64 L 297.47359730113635 405" stroke-miterlimit="10"/></g><g transform="translate(-118,-46) scale(1,1)"><g><path fill="none" stroke="none"/><text fill="#000000" stroke="none" font-family="Arial" font-size="13px" font-style="normal" font-weight="bold" text-decoration="none" x="262.3154296875" y="425.5">sistema</text></g></g><g transform="translate(-118,-46) scale(1,1)"><path fill="#C0C0C0" stroke="none" d="M 615 168 C 615 158.6111584 637.6096176 151 665.5 151 C 693.3903824 151 716 158.6111584 716 168 C 716 177.3888416 693.3903824 185 665.5 185 C 637.6096176 185 615 177.3888416 615 168 Z" opacity="0.2"/></g><g transform="translate(-118,-46) scale(1,1)"><path fill="#ffffff" stroke="none" d="M 608 161 C 608 151.6111584 630.6096176 144 658.5 144 C 686.3903824 144 709 151.6111584 709 161 C 709 170.3888416 686.3903824 178 658.5 178 C 630.6096176 178 608 170.3888416 608 161 Z"/></g><g transform="translate(-118,-46) scale(1,1)"><path fill="none" stroke="#000000" d="M 608 161 C 608 151.6111584 630.6096176 144 658.5 144 C 686.3903824 144 709 151.6111584 709 161 C 709 170.3888416 686.3903824 178 658.5 178 C 630.6096176 178 608 170.3888416 608 161 Z" stroke-miterlimit="10"/></g><g transform="translate(-118,-46) scale(1,1)"><g><path fill="none" stroke="none"/><text fill="#000000" stroke="none" font-family="Arial" font-size="13px" font-style="normal" font-weight="bold" text-decoration="none" x="634.661376953125" y="168">informar</text></g></g><g transform="translate(-118,-46) scale(1,1)"><path fill="none" stroke="#000000" d="M 218 137 L 607 158" stroke-miterlimit="10"/></g><g transform="translate(-118,-46) scale(1,1)"><path fill="none" stroke="#000000" d="M 607 177 L 319 266" stroke-miterlimit="10"/></g><g transform="translate(-118,-46) scale(1,1)"><path fill="none" stroke="#000000" d="M 327.46675410107594 258.97760190590753 L 319 266 L 329.9524845520341 267.02131392698556" stroke-miterlimit="10"/></g><g transform="translate(-118,-46) scale(1,1)"><path fill="#C0C0C0" stroke="none" d="M 567 283.5 C 567 267.7598832 619.811593059375 255 684.9580078125 255 C 750.104422565625 255 802.916015625 267.7598832 802.916015625 283.5 C 802.916015625 299.2401168 750.104422565625 312 684.9580078125 312 C 619.811593059375 312 567 299.2401168 567 283.5 Z" opacity="0.2"/></g><g transform="translate(-118,-46) scale(1,1)"><path fill="#ffffff" stroke="none" d="M 560 276.5 C 560 260.7598832 612.811593059375 248 677.9580078125 248 C 743.104422565625 248 795.916015625 260.7598832 795.916015625 276.5 C 795.916015625 292.2401168 743.104422565625 305 677.9580078125 305 C 612.811593059375 305 560 292.2401168 560 276.5 Z"/></g><g transform="translate(-118,-46) scale(1,1)"><path fill="none" stroke="#000000" d="M 560 276.5 C 560 260.7598832 612.811593059375 248 677.9580078125 248 C 743.104422565625 248 795.916015625 260.7598832 795.916015625 276.5 C 795.916015625 292.2401168 743.104422565625 305 677.9580078125 305 C 612.811593059375 305 560 292.2401168 560 276.5 Z" stroke-miterlimit="10"/></g><g transform="translate(-118,-46) scale(1,1)"><g><path fill="none" stroke="none"/><text fill="#000000" stroke="none" font-family="Arial" font-size="13px" font-style="normal" font-weight="bold" text-decoration="none" x="653.389404296875" y="283.5">mensaje</text></g></g><g transform="translate(-118,-46) scale(1,1)"><path fill="none" stroke="#000000" d="M 314 382 L 574 306" stroke-miterlimit="10"/></g><g transform="translate(-118,-46) scale(1,1)"><path fill="#C0C0C0" stroke="none" d="M 583 392 C 583 382.6111584 608.5197664 375 640 375 C 671.4802336 375 697 382.6111584 697 392 C 697 401.3888416 671.4802336 409 640 409 C 608.5197664 409 583 401.3888416 583 392 Z" opacity="0.2"/></g><g transform="translate(-118,-46) scale(1,1)"><path fill="#ffffff" stroke="none" d="M 576 385 C 576 375.6111584 601.5197664 368 633 368 C 664.4802336 368 690 375.6111584 690 385 C 690 394.3888416 664.4802336 402 633 402 C 601.5197664 402 576 394.3888416 576 385 Z"/></g><g transform="translate(-118,-46) scale(1,1)"><path fill="none" stroke="#000000" d="M 576 385 C 576 375.6111584 601.5197664 368 633 368 C 664.4802336 368 690 375.6111584 690 385 C 690 394.3888416 664.4802336 402 633 402 C 601.5197664 402 576 394.3888416 576 385 Z" stroke-miterlimit="10"/></g><g transform="translate(-118,-46) scale(1,1)"><g><path fill="none" stroke="none"/><text fill="#000000" stroke="none" font-family="Arial" font-size="13px" font-style="normal" font-weight="bold" text-decoration="none" x="600.48095703125" y="392">registrando</text></g></g><g transform="translate(-118,-46) scale(1,1)"><path fill="#C0C0C0" stroke="none" d="M 783 360 C 783 350.6111584 815.2354944 343 855 343 C 894.7645056 343 927 350.6111584 927 360 C 927 369.3888416 894.7645056 377 855 377 C 815.2354944 377 783 369.3888416 783 360 Z" opacity="0.2"/></g><g transform="translate(-118,-46) scale(1,1)"><path fill="#ffffff" stroke="none" d="M 776 353 C 776 343.6111584 808.2354944 336 848 336 C 887.7645056 336 920 343.6111584 920 353 C 920 362.3888416 887.7645056 370 848 370 C 808.2354944 370 776 362.3888416 776 353 Z"/></g><g transform="translate(-118,-46) scale(1,1)"><path fill="none" stroke="#000000" d="M 776 353 C 776 343.6111584 808.2354944 336 848 336 C 887.7645056 336 920 343.6111584 920 353 C 920 362.3888416 887.7645056 370 848 370 C 808.2354944 370 776 362.3888416 776 353 Z" stroke-miterlimit="10"/></g><g transform="translate(-118,-46) scale(1,1)"><g><path fill="none" stroke="none"/><text fill="#000000" stroke="none" font-family="Arial" font-size="13px" font-style="normal" font-weight="bold" text-decoration="none" x="804.63916015625" y="360">fecha de arribo</text></g></g><g transform="translate(-118,-46) scale(1,1)"><path fill="#C0C0C0" stroke="none" d="M 727 407 C 727 398.1634432 782.2928272 391 850.5 391 C 918.7071728 391 974 398.1634432 974 407 C 974 415.8365568 918.7071728 423 850.5 423 C 782.2928272 423 727 415.8365568 727 407 Z" opacity="0.2"/></g><g transform="translate(-118,-46) scale(1,1)"><path fill="#ffffff" stroke="none" d="M 720 400 C 720 391.1634432 775.2928272 384 843.5 384 C 911.7071728 384 967 391.1634432 967 400 C 967 408.8365568 911.7071728 416 843.5 416 C 775.2928272 416 720 408.8365568 720 400 Z"/></g><g transform="translate(-118,-46) scale(1,1)"><path fill="none" stroke="#000000" d="M 720 400 C 720 391.1634432 775.2928272 384 843.5 384 C 911.7071728 384 967 391.1634432 967 400 C 967 408.8365568 911.7071728 416 843.5 416 C 775.2928272 416 720 408.8365568 720 400 Z" stroke-miterlimit="10"/></g><g transform="translate(-118,-46) scale(1,1)"><g><path fill="none" stroke="none"/><text fill="#000000" stroke="none" font-family="Arial" font-size="11px" font-style="normal" font-weight="bold" text-decoration="none" x="766.45166015625" y="406">tiempo de viaje hasta el destino</text></g></g><g transform="translate(-118,-46) scale(1,1)"><path fill="#C0C0C0" stroke="none" d="M 759 464 C 759 454.6111584 807.5770992 447 867.5 447 C 927.4229008 447 976 454.6111584 976 464 C 976 473.3888416 927.4229008 481 867.5 481 C 807.5770992 481 759 473.3888416 759 464 Z" opacity="0.2"/></g><g transform="translate(-118,-46) scale(1,1)"><path fill="#ffffff" stroke="none" d="M 752 457 C 752 447.6111584 800.5770992 440 860.5 440 C 920.4229008 440 969 447.6111584 969 457 C 969 466.3888416 920.4229008 474 860.5 474 C 800.5770992 474 752 466.3888416 752 457 Z"/></g><g transform="translate(-118,-46) scale(1,1)"><path fill="none" stroke="#000000" d="M 752 457 C 752 447.6111584 800.5770992 440 860.5 440 C 920.4229008 440 969 447.6111584 969 457 C 969 466.3888416 920.4229008 474 860.5 474 C 800.5770992 474 752 466.3888416 752 457 Z" stroke-miterlimit="10"/></g><g transform="translate(-118,-46) scale(1,1)"><g><path fill="none" stroke="none"/><text fill="#000000" stroke="none" font-family="Arial" font-size="13px" font-style="normal" font-weight="bold" text-decoration="none" x="793.646484375" y="464">monto que fue cobrado</text></g></g><g transform="translate(-118,-46) scale(1,1)"><path fill="none" stroke="#000000" d="M 803 439 L 690 403" stroke-miterlimit="10" stroke-dasharray="3"/></g><g transform="translate(-118,-46) scale(1,1)"><path fill="none" stroke="#000000" d="M 700.9609549768487 402.0740054020163 L 690 403 L 698.4053426519865 410.0957885328338" stroke-miterlimit="10"/></g><g transform="translate(-118,-46) scale(1,1)"><g><path fill="none" stroke="none"/><text fill="#000000" stroke="none" font-family="Arial" font-size="13px" font-style="normal" font-weight="normal" text-decoration="none" x="709.5" y="455.5">«extend»</text></g></g><g transform="translate(-118,-46) scale(1,1)"><path fill="none" stroke="#000000" d="M 719 391 L 691 389" stroke-miterlimit="10" stroke-dasharray="3"/></g><g transform="translate(-118,-46) scale(1,1)"><path fill="none" stroke="#000000" d="M 701.4367641722762 385.5252404957619 L 691 389 L 700.8369327283004 393.9228807114221" stroke-miterlimit="10"/></g><g transform="translate(-118,-46) scale(1,1)"><g><path fill="none" stroke="none"/><text fill="#000000" stroke="none" font-family="Arial" font-size="13px" font-style="normal" font-weight="normal" text-decoration="none" x="675.5" y="425.5">«extend»</text></g></g><g transform="translate(-118,-46) scale(1,1)"><path fill="none" stroke="#000000" d="M 775 364 L 691 376" stroke-miterlimit="10" stroke-dasharray="3"/></g><g transform="translate(-118,-46) scale(1,1)"><path fill="none" stroke="#000000" d="M 700.4652191193873 370.39557076751026 L 691 376 L 701.6558505397089 378.7299907097617" stroke-miterlimit="10"/></g><g transform="translate(-118,-46) scale(1,1)"><g><path fill="none" stroke="none"/><text fill="#000000" stroke="none" font-family="Arial" font-size="13px" font-style="normal" font-weight="normal" text-decoration="none" x="710.5" y="405.5">«extend»</text></g></g><g transform="translate(-118,-46) scale(1,1)"><path fill="none" stroke="#000000" d="M 314 390 L 575 386" stroke-miterlimit="10"/></g><g transform="translate(-118,-46) scale(1,1)"><path fill="#C0C0C0" stroke="none" d="M 415 488 C 415 478.6111584 477.9039856 471 555.5 471 C 633.0960144000001 471 696 478.6111584 696 488 C 696 497.3888416 633.0960144000001 505 555.5 505 C 477.9039856 505 415 497.3888416 415 488 Z" opacity="0.2"/></g><g transform="translate(-118,-46) scale(1,1)"><path fill="#ffffff" stroke="none" d="M 408 481 C 408 471.6111584 470.9039856 464 548.5 464 C 626.0960144000001 464 689 471.6111584 689 481 C 689 490.3888416 626.0960144000001 498 548.5 498 C 470.9039856 498 408 490.3888416 408 481 Z"/></g><g transform="translate(-118,-46) scale(1,1)"><path fill="none" stroke="#000000" d="M 408 481 C 408 471.6111584 470.9039856 464 548.5 464 C 626.0960144000001 464 689 471.6111584 689 481 C 689 490.3888416 626.0960144000001 498 548.5 498 C 470.9039856 498 408 490.3888416 408 481 Z" stroke-miterlimit="10"/></g><g transform="translate(-118,-46) scale(1,1)"><g><path fill="none" stroke="none"/><text fill="#000000" stroke="none" font-family="Arial" font-size="13px" font-style="normal" font-weight="bold" text-decoration="none" x="458.525146484375" y="488">se agrega a la base estadística</text></g></g><g transform="translate(-118,-46) scale(1,1)"><path fill="none" stroke="#000000" d="M 617 403 L 564 463" stroke-miterlimit="10" stroke-dasharray="3"/></g><g transform="translate(-118,-46) scale(1,1)"><path fill="none" stroke="#000000" d="M 567.5731223071699 452.59650073398353 L 564 463 L 573.8829638924783 458.1701941343393" stroke-miterlimit="10"/></g><g transform="translate(-118,-46) scale(1,1)"><g><path fill="none" stroke="none"/><text fill="#000000" stroke="none" font-family="Arial" font-size="13px" font-style="normal" font-weight="normal" text-decoration="none" x="584.5" y="458.5">«include»</text></g></g><g transform="translate(-118,-46) scale(1,1)"><path fill="none" stroke="#000000" d="M 314 401 L 495 463" stroke-miterlimit="10"/></g><g transform="translate(-118,-46) scale(1,1)"><path fill="#C0C0C0" stroke="none" d="M 535 560 C 535 550.6111584 601.4857072 543 683.5 543 C 765.5142928 543 832 550.6111584 832 560 C 832 569.3888416 765.5142928 577 683.5 577 C 601.4857072 577 535 569.3888416 535 560 Z" opacity="0.2"/></g><g transform="translate(-118,-46) scale(1,1)"><path fill="#ffffff" stroke="none" d="M 528 553 C 528 543.6111584 594.4857072 536 676.5 536 C 758.5142928 536 825 543.6111584 825 553 C 825 562.3888416 758.5142928 570 676.5 570 C 594.4857072 570 528 562.3888416 528 553 Z"/></g><g transform="translate(-118,-46) scale(1,1)"><path fill="none" stroke="#000000" d="M 528 553 C 528 543.6111584 594.4857072 536 676.5 536 C 758.5142928 536 825 543.6111584 825 553 C 825 562.3888416 758.5142928 570 676.5 570 C 594.4857072 570 528 562.3888416 528 553 Z" stroke-miterlimit="10"/></g><g transform="translate(-118,-46) scale(1,1)"><g><path fill="none" stroke="none"/><text fill="#000000" stroke="none" font-family="Arial" font-size="13px" font-style="normal" font-weight="bold" text-decoration="none" x="583.668701171875" y="560">facturar los servicios mes a mes</text></g></g><g transform="translate(-118,-46) scale(1,1)"><path fill="none" stroke="#000000" d="M 527 548 L 192 536 L 174 176" stroke-miterlimit="10"/></g><g transform="translate(-118,-46) scale(1,1)"><path fill="none" stroke="#000000" d="M 178.71176546853414 185.93978199808876 L 174 176 L 170.30323405979658 186.36020856852562" stroke-miterlimit="10"/></g></g></svg>