<svg version="1.1" xmlns="http://www.w3.org/2000/svg" xmlns:xlink="http://www.w3.org/1999/xlink" width="816" height="675"><defs/><g><text fill="#eeeeee" stroke="none" font-family="Arial" font-size="24px" font-style="normal" font-weight="normal" text-decoration="none" x="0" y="0">UNREGISTERED</text><text fill="#eeeeee" stroke="none" font-family="Arial" font-size="24px" font-style="normal" font-weight="normal" text-decoration="none" x="0" y="30">UNREGISTERED</text><text fill="#eeeeee" stroke="none" font-family="Arial" font-size="24px" font-style="normal" font-weight="normal" text-decoration="none" x="0" y="60">UNREGISTERED</text><text fill="#eeeeee" stroke="none" font-family="Arial" font-size="24px" font-style="normal" font-weight="normal" text-decoration="none" x="0" y="90">UNREGISTERED</text><text fill="#eeeeee" stroke="none" font-family="Arial" font-size="24px" font-style="normal" font-weight="normal" text-decoration="none" x="0" y="120">UNREGISTERED</text><text fill="#eeeeee" stroke="none" font-family="Arial" font-size="24px" font-style="normal" font-weight="normal" text-decoration="none" x="0" y="150">UNREGISTERED</text><text fill="#eeeeee" stroke="none" font-family="Arial" font-size="24px" font-style="normal" font-weight="normal" text-decoration="none" x="0" y="180">UNREGISTERED</text><text fill="#eeeeee" stroke="none" font-family="Arial" font-size="24px" font-style="normal" font-weight="normal" text-decoration="none" x="0" y="210">UNREGISTERED</text><text fill="#eeeeee" stroke="none" font-family="Arial" font-size="24px" font-style="normal" font-weight="normal" text-decoration="none" x="0" y="240">UNREGISTERED</text><text fill="#eeeeee" stroke="none" font-family="Arial" font-size="24px" font-style="normal" font-weight="normal" text-decoration="none" x="0" y="270">UNREGISTERED</text><text fill="#eeeeee" stroke="none" font-family="Arial" font-size="24px" font-style="normal" font-weight="normal" text-decoration="none" x="0" y="300">UNREGISTERED</text><text fill="#eeeeee" stroke="none" font-family="Arial" font-size="24px" font-style="normal" font-weight="normal" text-decoration="none" x="0" y="330">UNREGISTERED</text><text fill="#eeeeee" stroke="none" font-family="Arial" font-size="24px" font-style="normal" font-weight="normal" text-decoration="none" x="0" y="360">UNREGISTERED</text><text fill="#eeeeee" stroke="none" font-family="Arial" font-size="24px" font-style="normal" font-weight="normal" text-decoration="none" x="0" y="390">UNREGISTERED</text><text fill="#eeeeee" stroke="none" font-family="Arial" font-size="24px" font-style="normal" font-weight="normal" text-decoration="none" x="0" y="420">UNREGISTERED</text><text fill="#eeeeee" stroke="none" font-family="Arial" font-size="24px" font-style="normal" font-weight="normal" text-decoration="none" x="0" y="450">UNREGISTERED</text><text fill="#eeeeee" stroke="none" font-family="Arial" font-size="24px" font-style="normal" font-weight="normal" text-decoration="none" x="0" y="480">UNREGISTERED</text><text fill="#eeeeee" stroke="none" font-family="Arial" font-size="24px" font-style="normal" font-weight="normal" text-decoration="none" x="0" y="510">UNREGISTERED</text><text fill="#eeeeee" stroke="none" font-family="Arial" font-size="24px" font-style="normal" font-weight="normal" text-decoration="none" x="0" y="540">UNREGISTERED</text><text fill="#eeeeee" stroke="none" font-family="Arial" font-size="24px" font-style="normal" font-weight="normal" text-decoration="none" x="0" y="570">UNREGISTERED</text><text fill="#eeeeee" stroke="none" font-family="Arial" font-size="24px" font-style="normal" font-weight="normal" text-decoration="none" x="0" y="600">UNREGISTERED</text><text fill="#eeeeee" stroke="none" font-family="Arial" font-size="24px" font-style="normal" font-weight="normal" text-decoration="none" x="0" y="630">UNREGISTERED</text><text fill="#eeeeee" stroke="none" font-family="Arial" font-size="24px" font-style="normal" font-weight="normal" text-decoration="none" x="0" y="660">UNREGISTERED</text><text fill="#eeeeee" stroke="none" font-family="Arial" font-size="24px" font-style="normal" font-weight="normal" text-decoration="none" x="200" y="0">UNREGISTERED</text><text fill="#eeeeee" stroke="none" font-family="Arial" font-size="24px" font-style="normal" font-weight="normal" text-decoration="none" x="200" y="30">UNREGISTERED</text><text fill="#eeeeee" stroke="none" font-family="Arial" font-size="24px" font-style="normal" font-weight="normal" text-decoration="none" x="200" y="60">UNREGISTERED</text><text fill="#eeeeee" stroke="none" font-family="Arial" font-size="24px" font-style="normal" font-weight="normal" text-decoration="none" x="200" y="90">UNREGISTERED</text><text fill="#eeeeee" stroke="none" font-family="Arial" font-size="24px" font-style="normal" font-weight="normal" text-decoration="none" x="200" y="120">UNREGISTERED</text><text fill="#eeeeee" stroke="none" font-family="Arial" font-size="24px" font-style="normal" font-weight="normal" text-decoration="none" x="200" y="150">UNREGISTERED</text><text fill="#eeeeee" stroke="none" font-family="Arial" font-size="24px" font-style="normal" font-weight="normal" text-decoration="none" x="200" y="180">UNREGISTERED</text><text fill="#eeeeee" stroke="none" font-family="Arial" font-size="24px" font-style="normal" font-weight="normal" text-decoration="none" x="200" y="210">UNREGISTERED</text><text fill="#eeeeee" stroke="none" font-family="Arial" font-size="24px" font-style="normal" font-weight="normal" text-decoration="none" x="200" y="240">UNREGISTERED</text><text fill="#eeeeee" stroke="none" font-family="Arial" font-size="24px" font-style="normal" font-weight="normal" text-decoration="none" x="200" y="270">UNREGISTERED</text><text fill="#eeeeee" stroke="none" font-family="Arial" font-size="24px" font-style="normal" font-weight="normal" text-decoration="none" x="200" y="300">UNREGISTERED</text><text fill="#eeeeee" stroke="none" font-family="Arial" font-size="24px" font-style="normal" font-weight="normal" text-decoration="none" x="200" y="330">UNREGISTERED</text><text fill="#eeeeee" stroke="none" font-family="Arial" font-size="24px" font-style="normal" font-weight="normal" text-decoration="none" x="200" y="360">UNREGISTERED</text><text fill="#eeeeee" stroke="none" font-family="Arial" font-size="24px" font-style="normal" font-weight="normal" text-decoration="none" x="200" y="390">UNREGISTERED</text><text fill="#eeeeee" stroke="none" font-family="Arial" font-size="24px" font-style="normal" font-weight="normal" text-decoration="none" x="200" y="420">UNREGISTERED</text><text fill="#eeeeee" stroke="none" font-family="Arial" font-size="24px" font-style="normal" font-weight="normal" text-decoration="none" x="200" y="450">UNREGISTERED</text><text fill="#eeeeee" stroke="none" font-family="Arial" font-size="24px" font-style="normal" font-weight="normal" text-decoration="none" x="200" y="480">UNREGISTERED</text><text fill="#eeeeee" stroke="none" font-family="Arial" font-size="24px" font-style="normal" font-weight="normal" text-decoration="none" x="200" y="510">UNREGISTERED</text><text fill="#eeeeee" stroke="none" font-family="Arial" font-size="24px" font-style="normal" font-weight="normal" text-decoration="none" x="200" y="540">UNREGISTERED</text><text fill="#eeeeee" stroke="none" font-family="Arial" font-size="24px" font-style="normal" font-weight="normal" text-decoration="none" x="200" y="570">UNREGISTERED</text><text fill="#eeeeee" stroke="none" font-family="Arial" font-size="24px" font-style="normal" font-weight="normal" text-decoration="none" x="200" y="600">UNREGISTERED</text><text fill="#eeeeee" stroke="none" font-family="Arial" font-size="24px" font-style="normal" font-weight="normal" text-decoration="none" x="200" y="630">UNREGISTERED</text><text fill="#eeeeee" stroke="none" font-family="Arial" font-size="24px" font-style="normal" font-weight="normal" text-decoration="none" x="200" y="660">UNREGISTERED</text><text fill="#eeeeee" stroke="none" font-family="Arial" font-size="24px" font-style="normal" font-weight="normal" text-decoration="none" x="400" y="0">UNREGISTERED</text><text fill="#eeeeee" stroke="none" font-family="Arial" font-size="24px" font-style="normal" font-weight="normal" text-decoration="none" x="400" y="30">UNREGISTERED</text><text fill="#eeeeee" stroke="none" font-family="Arial" font-size="24px" font-style="normal" font-weight="normal" text-decoration="none" x="400" y="60">UNREGISTERED</text><text fill="#eeeeee" stroke="none" font-family="Arial" font-size="24px" font-style="normal" font-weight="normal" text-decoration="none" x="400" y="90">UNREGISTERED</text><text fill="#eeeeee" stroke="none" font-family="Arial" font-size="24px" font-style="normal" font-weight="normal" text-decoration="none" x="400" y="120">UNREGISTERED</text><text fill="#eeeeee" stroke="none" font-family="Arial" font-size="24px" font-style="normal" font-weight="normal" text-decoration="none" x="400" y="150">UNREGISTERED</text><text fill="#eeeeee" stroke="none" font-family="Arial" font-size="24px" font-style="normal" font-weight="normal" text-decoration="none" x="400" y="180">UNREGISTERED</text><text fill="#eeeeee" stroke="none" font-family="Arial" font-size="24px" font-style="normal" font-weight="normal" text-decoration="none" x="400" y="210">UNREGISTERED</text><text fill="#eeeeee" stroke="none" font-family="Arial" font-size="24px" font-style="normal" font-weight="normal" text-decoration="none" x="400" y="240">UNREGISTERED</text><text fill="#eeeeee" stroke="none" font-family="Arial" font-size="24px" font-style="normal" font-weight="normal" text-decoration="none" x="400" y="270">UNREGISTERED</text><text fill="#eeeeee" stroke="none" font-family="Arial" font-size="24px" font-style="normal" font-weight="normal" text-decoration="none" x="400" y="300">UNREGISTERED</text><text fill="#eeeeee" stroke="none" font-family="Arial" font-size="24px" font-style="normal" font-weight="normal" text-decoration="none" x="400" y="330">UNREGISTERED</text><text fill="#eeeeee" stroke="none" font-family="Arial" font-size="24px" font-style="normal" font-weight="normal" text-decoration="none" x="400" y="360">UNREGISTERED</text><text fill="#eeeeee" stroke="none" font-family="Arial" font-size="24px" font-style="normal" font-weight="normal" text-decoration="none" x="400" y="390">UNREGISTERED</text><text fill="#eeeeee" stroke="none" font-family="Arial" font-size="24px" font-style="normal" font-weight="normal" text-decoration="none" x="400" y="420">UNREGISTERED</text><text fill="#eeeeee" stroke="none" font-family="Arial" font-size="24px" font-style="normal" font-weight="normal" text-decoration="none" x="400" y="450">UNREGISTERED</text><text fill="#eeeeee" stroke="none" font-family="Arial" font-size="24px" font-style="normal" font-weight="normal" text-decoration="none" x="400" y="480">UNREGISTERED</text><text fill="#eeeeee" stroke="none" font-family="Arial" font-size="24px" font-style="normal" font-weight="normal" text-decoration="none" x="400" y="510">UNREGISTERED</text><text fill="#eeeeee" stroke="none" font-family="Arial" font-size="24px" font-style="normal" font-weight="normal" text-decoration="none" x="400" y="540">UNREGISTERED</text><text fill="#eeeeee" stroke="none" font-family="Arial" font-size="24px" font-style="normal" font-weight="normal" text-decoration="none" x="400" y="570">UNREGISTERED</text><text fill="#eeeeee" stroke="none" font-family="Arial" font-size="24px" font-style="normal" font-weight="normal" text-decoration="none" x="400" y="600">UNREGISTERED</text><text fill="#eeeeee" stroke="none" font-family="Arial" font-size="24px" font-style="normal" font-weight="normal" text-decoration="none" x="400" y="630">UNREGISTERED</text><text fill="#eeeeee" stroke="none" font-family="Arial" font-size="24px" font-style="normal" font-weight="normal" text-decoration="none" x="400" y="660">UNREGISTERED</text><text fill="#eeeeee" stroke="none" font-family="Arial" font-size="24px" font-style="normal" font-weight="normal" text-decoration="none" x="600" y="0">UNREGISTERED</text><text fill="#eeeeee" stroke="none" font-family="Arial" font-size="24px" font-style="normal" font-weight="normal" text-decoration="none" x="600" y="30">UNREGISTERED</text><text fill="#eeeeee" stroke="none" font-family="Arial" font-size="24px" font-style="normal" font-weight="normal" text-decoration="none" x="600" y="60">UNREGISTERED</text><text fill="#eeeeee" stroke="none" font-family="Arial" font-size="24px" font-style="normal" font-weight="normal" text-decoration="none" x="600" y="90">UNREGISTERED</text><text fill="#eeeeee" stroke="none" font-family="Arial" font-size="24px" font-style="normal" font-weight="normal" text-decoration="none" x="600" y="120">UNREGISTERED</text><text fill="#eeeeee" stroke="none" font-family="Arial" font-size="24px" font-style="normal" font-weight="normal" text-decoration="none" x="600" y="150">UNREGISTERED</text><text fill="#eeeeee" stroke="none" font-family="Arial" font-size="24px" font-style="normal" font-weight="normal" text-decoration="none" x="600" y="180">UNREGISTERED</text><text fill="#eeeeee" stroke="none" font-family="Arial" font-size="24px" font-style="normal" font-weight="normal" text-decoration="none" x="600" y="210">UNREGISTERED</text><text fill="#eeeeee" stroke="none" font-family="Arial" font-size="24px" font-style="normal" font-weight="normal" text-decoration="none" x="600" y="240">UNREGISTERED</text><text fill="#eeeeee" stroke="none" font-family="Arial" font-size="24px" font-style="normal" font-weight="normal" text-decoration="none" x="600" y="270">UNREGISTERED</text><text fill="#eeeeee" stroke="none" font-family="Arial" font-size="24px" font-style="normal" font-weight="normal" text-decoration="none" x="600" y="300">UNREGISTERED</text><text fill="#eeeeee" stroke="none" font-family="Arial" font-size="24px" font-style="normal" font-weight="normal" text-decoration="none" x="600" y="330">UNREGISTERED</text><text fill="#eeeeee" stroke="none" font-family="Arial" font-size="24px" font-style="normal" font-weight="normal" text-decoration="none" x="600" y="360">UNREGISTERED</text><text fill="#eeeeee" stroke="none" font-family="Arial" font-size="24px" font-style="normal" font-weight="normal" text-decoration="none" x="600" y="390">UNREGISTERED</text><text fill="#eeeeee" stroke="none" font-family="Arial" font-size="24px" font-style="normal" font-weight="normal" text-decoration="none" x="600" y="420">UNREGISTERED</text><text fill="#eeeeee" stroke="none" font-family="Arial" font-size="24px" font-style="normal" font-weight="normal" text-decoration="none" x="600" y="450">UNREGISTERED</text><text fill="#eeeeee" stroke="none" font-family="Arial" font-size="24px" font-style="normal" font-weight="normal" text-decoration="none" x="600" y="480">UNREGISTERED</text><text fill="#eeeeee" stroke="none" font-family="Arial" font-size="24px" font-style="normal" font-weight="normal" text-decoration="none" x="600" y="510">UNREGISTERED</text><text fill="#eeeeee" stroke="none" font-family="Arial" font-size="24px" font-style="normal" font-weight="normal" text-decoration="none" x="600" y="540">UNREGISTERED</text><text fill="#eeeeee" stroke="none" font-family="Arial" font-size="24px" font-style="normal" font-weight="normal" text-decoration="none" x="600" y="570">UNREGISTERED</text><text fill="#eeeeee" stroke="none" font-family="Arial" font-size="24px" font-style="normal" font-weight="normal" text-decoration="none" x="600" y="600">UNREGISTERED</text><text fill="#eeeeee" stroke="none" font-family="Arial" font-size="24px" font-style="normal" font-weight="normal" text-decoration="none" x="600" y="630">UNREGISTERED</text><text fill="#eeeeee" stroke="none" font-family="Arial" font-size="24px" font-style="normal" font-weight="normal" text-decoration="none" x="600" y="660">UNREGISTERED</text><text fill="#eeeeee" stroke="none" font-family="Arial" font-size="24px" font-style="normal" font-weight="normal" text-decoration="none" x="800" y="0">UNREGISTERED</text><text fill="#eeeeee" stroke="none" font-family="Arial" font-size="24px" font-style="normal" font-weight="normal" text-decoration="none" x="800" y="30">UNREGISTERED</text><text fill="#eeeeee" stroke="none" font-family="Arial" font-size="24px" font-style="normal" font-weight="normal" text-decoration="none" x="800" y="60">UNREGISTERED</text><text fill="#eeeeee" stroke="none" font-family="Arial" font-size="24px" font-style="normal" font-weight="normal" text-decoration="none" x="800" y="90">UNREGISTERED</text><text fill="#eeeeee" stroke="none" font-family="Arial" font-size="24px" font-style="normal" font-weight="normal" text-decoration="none" x="800" y="120">UNREGISTERED</text><text fill="#eeeeee" stroke="none" font-family="Arial" font-size="24px" font-style="normal" font-weight="normal" text-decoration="none" x="800" y="150">UNREGISTERED</text><text fill="#eeeeee" stroke="none" font-family="Arial" font-size="24px" font-style="normal" font-weight="normal" text-decoration="none" x="800" y="180">UNREGISTERED</text><text fill="#eeeeee" stroke="none" font-family="Arial" font-size="24px" font-style="normal" font-weight="normal" text-decoration="none" x="800" y="210">UNREGISTERED</text><text fill="#eeeeee" stroke="none" font-family="Arial" font-size="24px" font-style="normal" font-weight="normal" text-decoration="none" x="800" y="240">UNREGISTERED</text><text fill="#eeeeee" stroke="none" font-family="Arial" font-size="24px" font-style="normal" font-weight="normal" text-decoration="none" x="800" y="270">UNREGISTERED</text><text fill="#eeeeee" stroke="none" font-family="Arial" font-size="24px" font-style="normal" font-weight="normal" text-decoration="none" x="800" y="300">UNREGISTERED</text><text fill="#eeeeee" stroke="none" font-family="Arial" font-size="24px" font-style="normal" font-weight="normal" text-decoration="none" x="800" y="330">UNREGISTERED</text><text fill="#eeeeee" stroke="none" font-family="Arial" font-size="24px" font-style="normal" font-weight="normal" text-decoration="none" x="800" y="360">UNREGISTERED</text><text fill="#eeeeee" stroke="none" font-family="Arial" font-size="24px" font-style="normal" font-weight="normal" text-decoration="none" x="800" y="390">UNREGISTERED</text><text fill="#eeeeee" stroke="none" font-family="Arial" font-size="24px" font-style="normal" font-weight="normal" text-decoration="none" x="800" y="420">UNREGISTERED</text><text fill="#eeeeee" stroke="none" font-family="Arial" font-size="24px" font-style="normal" font-weight="normal" text-decoration="none" x="800" y="450">UNREGISTERED</text><text fill="#eeeeee" stroke="none" font-family="Arial" font-size="24px" font-style="normal" font-weight="normal" text-decoration="none" x="800" y="480">UNREGISTERED</text><text fill="#eeeeee" stroke="none" font-family="Arial" font-size="24px" font-style="normal" font-weight="normal" text-decoration="none" x="800" y="510">UNREGISTERED</text><text fill="#eeeeee" stroke="none" font-family="Arial" font-size="24px" font-style="normal" font-weight="normal" text-decoration="none" x="800" y="540">UNREGISTERED</text><text fill="#eeeeee" stroke="none" font-family="Arial" font-size="24px" font-style="normal" font-weight="normal" text-decoration="none" x="800" y="570">UNREGISTERED</text><text fill="#eeeeee" stroke="none" font-family="Arial" font-size="24px" font-style="normal" font-weight="normal" text-decoration="none" x="800" y="600">UNREGISTERED</text><text fill="#eeeeee" stroke="none" font-family="Arial" font-size="24px" font-style="normal" font-weight="normal" text-decoration="none" x="800" y="630">UNREGISTERED</text><text fill="#eeeeee" stroke="none" font-family="Arial" font-size="24px" font-style="normal" font-weight="normal" text-decoration="none" x="800" y="660">UNREGISTERED</text><g transform="translate(-186,-62) scale(1,1)"><rect fill="#C0C0C0" stroke="none" x="407" y="79" width="233.60000000000002" height="15" opacity="0.2"/></g><g transform="translate(-186,-62) scale(1,1)"><rect fill="#C0C0C0" stroke="none" x="407" y="93" width="584" height="498" opacity="0.2"/></g><g transform="translate(-186,-62) scale(1,1)"><rect fill="#ffffff" stroke="none" x="400" y="87" width="584" height="497"/></g><g transform="translate(-186,-62) scale(1,1)"><path fill="none" stroke="#000000" d="M 400 87 L 984 87 L 984 584 L 400 584 L 400 87 Z Z" stroke-miterlimit="10"/></g><g transform="translate(-186,-62) scale(1,1)"><rect fill="#ffffff" stroke="none" x="400" y="72" width="233.60000000000002" height="15"/></g><g transform="translate(-186,-62) scale(1,1)"><path fill="none" stroke="#000000" d="M 400 72 L 633.6 72 L 633.6 87 L 400 87 L 400 72 Z Z" stroke-miterlimit="10"/></g><g transform="translate(-186,-62) scale(1,1)"><rect fill="#ffffff" stroke="none" x="400" y="86" width="584" height="498"/></g><g transform="translate(-186,-62) scale(1,1)"><path fill="none" stroke="#000000" d="M 400 86 L 984 86 L 984 584 L 400 584 L 400 86 Z Z" stroke-miterlimit="10"/></g><g transform="translate(-186,-62) scale(1,1)"><g><path fill="none" stroke="none"/><text fill="#000000" stroke="none" font-family="Arial" font-size="13px" font-style="normal" font-weight="bold" text-decoration="none" x="631.294189453125" y="106.5">Asignaciones de ruta</text></g></g><g transform="translate(-186,-62) scale(1,1)"><path fill="#ffffff" stroke="none" d="M 263.99162571022725 377.68 C 263.99162571022725 372.886167936 267.87746803517274 369 272.6708984375 369 C 277.46432883982726 369 281.35017116477275 372.886167936 281.35017116477275 377.68 C 281.35017116477275 382.473832064 277.46432883982726 386.36 272.6708984375 386.36 C 267.87746803517274 386.36 263.99162571022725 382.473832064 263.99162571022725 377.68 Z"/></g><g transform="translate(-186,-62) scale(1,1)"><path fill="none" stroke="#000000" d="M 263.99162571022725 377.68 C 263.99162571022725 372.886167936 267.87746803517274 369 272.6708984375 369 C 277.46432883982726 369 281.35017116477275 372.886167936 281.35017116477275 377.68 C 281.35017116477275 382.473832064 277.46432883982726 386.36 272.6708984375 386.36 C 267.87746803517274 386.36 263.99162571022725 382.473832064 263.99162571022725 377.68 Z" stroke-miterlimit="10"/></g><g transform="translate(-186,-62) scale(1,1)"><path fill="none" stroke="#000000" d="M 272.6708984375 386.36 L 272.6708984375 403.64" stroke-miterlimit="10"/></g><g transform="translate(-186,-62) scale(1,1)"><path fill="none" stroke="#000000" d="M 263.48108025568183 392.84 L 281.86071661931817 392.84" stroke-miterlimit="10"/></g><g transform="translate(-186,-62) scale(1,1)"><path fill="none" stroke="#000000" d="M 272.6708984375 403.64 L 259.90726207386365 421" stroke-miterlimit="10"/></g><g transform="translate(-186,-62) scale(1,1)"><path fill="none" stroke="#000000" d="M 272.6708984375 403.64 L 285.43453480113635 421" stroke-miterlimit="10"/></g><g transform="translate(-186,-62) scale(1,1)"><g><path fill="none" stroke="none"/><text fill="#000000" stroke="none" font-family="Arial" font-size="13px" font-style="normal" font-weight="bold" text-decoration="none" x="246.65185546875" y="441.5">operador</text></g></g><g transform="translate(-186,-62) scale(1,1)"><path fill="#ffffff" stroke="none" d="M 262.12980930397725 497.68 C 262.12980930397725 492.886167936 266.01565162892274 489 270.80908203125 489 C 275.60251243357726 489 279.48835475852275 492.886167936 279.48835475852275 497.68 C 279.48835475852275 502.473832064 275.60251243357726 506.36 270.80908203125 506.36 C 266.01565162892274 506.36 262.12980930397725 502.473832064 262.12980930397725 497.68 Z"/></g><g transform="translate(-186,-62) scale(1,1)"><path fill="none" stroke="#000000" d="M 262.12980930397725 497.68 C 262.12980930397725 492.886167936 266.01565162892274 489 270.80908203125 489 C 275.60251243357726 489 279.48835475852275 492.886167936 279.48835475852275 497.68 C 279.48835475852275 502.473832064 275.60251243357726 506.36 270.80908203125 506.36 C 266.01565162892274 506.36 262.12980930397725 502.473832064 262.12980930397725 497.68 Z" stroke-miterlimit="10"/></g><g transform="translate(-186,-62) scale(1,1)"><path fill="none" stroke="#000000" d="M 270.80908203125 506.36 L 270.80908203125 523.64" stroke-miterlimit="10"/></g><g transform="translate(-186,-62) scale(1,1)"><path fill="none" stroke="#000000" d="M 261.61926384943183 512.84 L 279.99890021306817 512.84" stroke-miterlimit="10"/></g><g transform="translate(-186,-62) scale(1,1)"><path fill="none" stroke="#000000" d="M 270.80908203125 523.64 L 258.04544566761365 541" stroke-miterlimit="10"/></g><g transform="translate(-186,-62) scale(1,1)"><path fill="none" stroke="#000000" d="M 270.80908203125 523.64 L 283.57271839488635 541" stroke-miterlimit="10"/></g><g transform="translate(-186,-62) scale(1,1)"><g><path fill="none" stroke="none"/><text fill="#000000" stroke="none" font-family="Arial" font-size="13px" font-style="normal" font-weight="bold" text-decoration="none" x="240.4609375" y="561.5">dispositivo</text></g></g><g transform="translate(-186,-62) scale(1,1)"><path fill="#C0C0C0" stroke="none" d="M 495 322.5 C 495 311.7304464 567.9775776 303 658 303 C 748.0224224 303 821 311.7304464 821 322.5 C 821 333.2695536 748.0224224 342 658 342 C 567.9775776 342 495 333.2695536 495 322.5 Z" opacity="0.2"/></g><g transform="translate(-186,-62) scale(1,1)"><path fill="#ffffff" stroke="none" d="M 488 315.5 C 488 304.7304464 560.9775776 296 651 296 C 741.0224224 296 814 304.7304464 814 315.5 C 814 326.2695536 741.0224224 335 651 335 C 560.9775776 335 488 326.2695536 488 315.5 Z"/></g><g transform="translate(-186,-62) scale(1,1)"><path fill="none" stroke="#000000" d="M 488 315.5 C 488 304.7304464 560.9775776 296 651 296 C 741.0224224 296 814 304.7304464 814 315.5 C 814 326.2695536 741.0224224 335 651 335 C 560.9775776 335 488 326.2695536 488 315.5 Z" stroke-miterlimit="10"/></g><g transform="translate(-186,-62) scale(1,1)"><g><path fill="none" stroke="none"/><text fill="#000000" stroke="none" font-family="Arial" font-size="13px" font-style="normal" font-weight="bold" text-decoration="none" x="572.13037109375" y="322.5">CalcularTiemposEstimados</text></g></g><g transform="translate(-186,-62) scale(1,1)"><path fill="none" stroke="#000000" d="M 306 390 L 646 227" stroke-miterlimit="10"/></g><g transform="translate(-186,-62) scale(1,1)"><path fill="#ffffff" stroke="none" d="M 272.41252414772725 113.68 C 272.41252414772725 108.886167936 276.29836647267274 105 281.091796875 105 C 285.88522727732726 105 289.77106960227275 108.886167936 289.77106960227275 113.68 C 289.77106960227275 118.473832064 285.88522727732726 122.36 281.091796875 122.36 C 276.29836647267274 122.36 272.41252414772725 118.473832064 272.41252414772725 113.68 Z"/></g><g transform="translate(-186,-62) scale(1,1)"><path fill="none" stroke="#000000" d="M 272.41252414772725 113.68 C 272.41252414772725 108.886167936 276.29836647267274 105 281.091796875 105 C 285.88522727732726 105 289.77106960227275 108.886167936 289.77106960227275 113.68 C 289.77106960227275 118.473832064 285.88522727732726 122.36 281.091796875 122.36 C 276.29836647267274 122.36 272.41252414772725 118.473832064 272.41252414772725 113.68 Z" stroke-miterlimit="10"/></g><g transform="translate(-186,-62) scale(1,1)"><path fill="none" stroke="#000000" d="M 281.091796875 122.36 L 281.091796875 139.64" stroke-miterlimit="10"/></g><g transform="translate(-186,-62) scale(1,1)"><path fill="none" stroke="#000000" d="M 271.90197869318183 128.84 L 290.28161505681817 128.84" stroke-miterlimit="10"/></g><g transform="translate(-186,-62) scale(1,1)"><path fill="none" stroke="#000000" d="M 281.091796875 139.64 L 268.32816051136365 157" stroke-miterlimit="10"/></g><g transform="translate(-186,-62) scale(1,1)"><path fill="none" stroke="#000000" d="M 281.091796875 139.64 L 293.85543323863635 157" stroke-miterlimit="10"/></g><g transform="translate(-186,-62) scale(1,1)"><g><path fill="none" stroke="none"/><text fill="#000000" stroke="none" font-family="Arial" font-size="13px" font-style="normal" font-weight="bold" text-decoration="none" x="262.302734375" y="177.5">cliente</text></g></g><g transform="translate(-186,-62) scale(1,1)"><path fill="#C0C0C0" stroke="none" d="M 487 432 C 487 422.6111584 551.4709888 415 631 415 C 710.5290112 415 775 422.6111584 775 432 C 775 441.3888416 710.5290112 449 631 449 C 551.4709888 449 487 441.3888416 487 432 Z" opacity="0.2"/></g><g transform="translate(-186,-62) scale(1,1)"><path fill="#ffffff" stroke="none" d="M 480 425 C 480 415.6111584 544.4709888 408 624 408 C 703.5290112 408 768 415.6111584 768 425 C 768 434.3888416 703.5290112 442 624 442 C 544.4709888 442 480 434.3888416 480 425 Z"/></g><g transform="translate(-186,-62) scale(1,1)"><path fill="none" stroke="#000000" d="M 480 425 C 480 415.6111584 544.4709888 408 624 408 C 703.5290112 408 768 415.6111584 768 425 C 768 434.3888416 703.5290112 442 624 442 C 544.4709888 442 480 434.3888416 480 425 Z" stroke-miterlimit="10"/></g><g transform="translate(-186,-62) scale(1,1)"><g><path fill="none" stroke="none"/><text fill="#000000" stroke="none" font-family="Arial" font-size="13px" font-style="normal" font-weight="bold" text-decoration="none" x="534.041015625" y="432">CalcularPosicionesRegistradas</text></g></g><g transform="translate(-186,-62) scale(1,1)"><path fill="#C0C0C0" stroke="none" d="M 599 216 C 599 206.6111584 639.9659408 199 690.5 199 C 741.0340592 199 782 206.6111584 782 216 C 782 225.3888416 741.0340592 233 690.5 233 C 639.9659408 233 599 225.3888416 599 216 Z" opacity="0.2"/></g><g transform="translate(-186,-62) scale(1,1)"><path fill="#ffffff" stroke="none" d="M 592 209 C 592 199.6111584 632.9659408 192 683.5 192 C 734.0340592 192 775 199.6111584 775 209 C 775 218.3888416 734.0340592 226 683.5 226 C 632.9659408 226 592 218.3888416 592 209 Z"/></g><g transform="translate(-186,-62) scale(1,1)"><path fill="none" stroke="#000000" d="M 592 209 C 592 199.6111584 632.9659408 192 683.5 192 C 734.0340592 192 775 199.6111584 775 209 C 775 218.3888416 734.0340592 226 683.5 226 C 632.9659408 226 592 218.3888416 592 209 Z" stroke-miterlimit="10"/></g><g transform="translate(-186,-62) scale(1,1)"><g><path fill="none" stroke="none"/><text fill="#000000" stroke="none" font-family="Arial" font-size="13px" font-style="normal" font-weight="bold" text-decoration="none" x="627.497802734375" y="216">registrarLaLlamada</text></g></g><g transform="translate(-186,-62) scale(1,1)"><path fill="#C0C0C0" stroke="none" d="M 783 442.5 C 783 431.7304464 831.3532416 423 891 423 C 950.6467584 423 999 431.7304464 999 442.5 C 999 453.2695536 950.6467584 462 891 462 C 831.3532416 462 783 453.2695536 783 442.5 Z" opacity="0.2"/></g><g transform="translate(-186,-62) scale(1,1)"><path fill="#ffffff" stroke="none" d="M 776 435.5 C 776 424.7304464 824.3532416 416 884 416 C 943.6467584 416 992 424.7304464 992 435.5 C 992 446.2695536 943.6467584 455 884 455 C 824.3532416 455 776 446.2695536 776 435.5 Z"/></g><g transform="translate(-186,-62) scale(1,1)"><path fill="none" stroke="#000000" d="M 776 435.5 C 776 424.7304464 824.3532416 416 884 416 C 943.6467584 416 992 424.7304464 992 435.5 C 992 446.2695536 943.6467584 455 884 455 C 824.3532416 455 776 446.2695536 776 435.5 Z" stroke-miterlimit="10"/></g><g transform="translate(-186,-62) scale(1,1)"><g><path fill="none" stroke="none"/><text fill="#000000" stroke="none" font-family="Arial" font-size="13px" font-style="normal" font-weight="bold" text-decoration="none" x="817.511474609375" y="442.5">asignacioneRutaActual</text></g></g><g transform="translate(-186,-62) scale(1,1)"><path fill="#C0C0C0" stroke="none" d="M 583 480 C 583 470.6111584 624.413656 463 675.5 463 C 726.586344 463 768 470.6111584 768 480 C 768 489.3888416 726.586344 497 675.5 497 C 624.413656 497 583 489.3888416 583 480 Z" opacity="0.2"/></g><g transform="translate(-186,-62) scale(1,1)"><path fill="#ffffff" stroke="none" d="M 576 473 C 576 463.6111584 617.413656 456 668.5 456 C 719.586344 456 761 463.6111584 761 473 C 761 482.3888416 719.586344 490 668.5 490 C 617.413656 490 576 482.3888416 576 473 Z"/></g><g transform="translate(-186,-62) scale(1,1)"><path fill="none" stroke="#000000" d="M 576 473 C 576 463.6111584 617.413656 456 668.5 456 C 719.586344 456 761 463.6111584 761 473 C 761 482.3888416 719.586344 490 668.5 490 C 617.413656 490 576 482.3888416 576 473 Z" stroke-miterlimit="10"/></g><g transform="translate(-186,-62) scale(1,1)"><g><path fill="none" stroke="none"/><text fill="#000000" stroke="none" font-family="Arial" font-size="13px" font-style="normal" font-weight="bold" text-decoration="none" x="615.03369140625" y="480">ConfirmarLlamada</text></g></g><g transform="translate(-186,-62) scale(1,1)"><path fill="none" stroke="#000000" d="M 306 413 L 575 458" stroke-miterlimit="10"/></g><g transform="translate(-186,-62) scale(1,1)"><path fill="none" stroke="#000000" d="M 564.2820649753396 460.475049253481 L 575 458 L 565.6711513528387 452.1713995746529" stroke-miterlimit="10"/></g><g transform="translate(-186,-62) scale(1,1)"><path fill="none" stroke="#000000" d="M 281 367 L 304 264 L 289 184" stroke-miterlimit="10"/></g><g transform="translate(-186,-62) scale(1,1)"><path fill="none" stroke="#000000" d="M 295.0102823844972 193.21284460189156 L 289 184 L 286.7354465389086 194.76437632293943" stroke-miterlimit="10"/></g><g transform="translate(-186,-62) scale(1,1)"><g><path fill="none" stroke="none"/><text fill="#000000" stroke="none" font-family="Arial" font-size="13px" font-style="normal" font-weight="normal" text-decoration="none" x="240.5" y="272.5">+TiempoLlegada</text></g></g><g transform="translate(-186,-62) scale(1,1)"><path fill="none" stroke="#000000" d="M 261 184 L 232 241 L 262 367" stroke-miterlimit="10"/></g><g transform="translate(-186,-62) scale(1,1)"><path fill="none" stroke="#000000" d="M 255.5510708567565 358.08869746302906 L 262 367 L 263.741160924518 356.13867601832396" stroke-miterlimit="10"/></g><g transform="translate(-186,-62) scale(1,1)"><g><path fill="none" stroke="none"/><text fill="#000000" stroke="none" font-family="Arial" font-size="13px" font-style="normal" font-weight="normal" text-decoration="none" x="195.5" y="243.5">+RealizaLlamada</text></g></g><g transform="translate(-186,-62) scale(1,1)"><path fill="#C0C0C0" stroke="none" d="M 623 152 C 623 142.6111584 704.9318816 135 806 135 C 907.0681184 135 989 142.6111584 989 152 C 989 161.3888416 907.0681184 169 806 169 C 704.9318816 169 623 161.3888416 623 152 Z" opacity="0.2"/></g><g transform="translate(-186,-62) scale(1,1)"><path fill="#ffffff" stroke="none" d="M 616 145 C 616 135.6111584 697.9318816 128 799 128 C 900.0681184 128 982 135.6111584 982 145 C 982 154.3888416 900.0681184 162 799 162 C 697.9318816 162 616 154.3888416 616 145 Z"/></g><g transform="translate(-186,-62) scale(1,1)"><path fill="none" stroke="#000000" d="M 616 145 C 616 135.6111584 697.9318816 128 799 128 C 900.0681184 128 982 135.6111584 982 145 C 982 154.3888416 900.0681184 162 799 162 C 697.9318816 162 616 154.3888416 616 145 Z" stroke-miterlimit="10"/></g><g transform="translate(-186,-62) scale(1,1)"><g><path fill="none" stroke="none"/><text fill="#000000" stroke="none" font-family="Arial" font-size="13px" font-style="normal" font-weight="bold" text-decoration="none" x="683.0283203125" y="152">ConsultaresEstadisticasDesplazamiento</text></g></g><g transform="translate(-186,-62) scale(1,1)"><path fill="none" stroke="#000000" d="M 646 336 L 628 407" stroke-miterlimit="10" stroke-dasharray="3"/></g><g transform="translate(-186,-62) scale(1,1)"><path fill="none" stroke="#000000" d="M 626.417014451667 396.11449786395826 L 628 407 L 634.5778725612691 398.1834478072377" stroke-miterlimit="10"/></g><g transform="translate(-186,-62) scale(1,1)"><g><path fill="none" stroke="none"/><text fill="#000000" stroke="none" font-family="Arial" font-size="13px" font-style="normal" font-weight="normal" text-decoration="none" x="638.5" y="384.5">«include»</text></g></g><g transform="translate(-186,-62) scale(1,1)"><path fill="none" stroke="#000000" d="M 692 336 L 845 415" stroke-miterlimit="10" stroke-dasharray="3"/></g><g transform="translate(-186,-62) scale(1,1)"><path fill="none" stroke="#000000" d="M 834.0387250450106 414.0778008018215 L 845 415 L 837.9013014555135 406.5971148422399" stroke-miterlimit="10"/></g><g transform="translate(-186,-62) scale(1,1)"><g><path fill="none" stroke="none"/><text fill="#000000" stroke="none" font-family="Arial" font-size="13px" font-style="normal" font-weight="normal" text-decoration="none" x="753.5" y="354.5">«include»</text></g></g><g transform="translate(-186,-62) scale(1,1)"><path fill="none" stroke="#000000" d="M 709 295 L 800 264 L 799 163" stroke-miterlimit="10" stroke-dasharray="3"/></g><g transform="translate(-186,-62) scale(1,1)"><path fill="none" stroke="#000000" d="M 803.3099270541145 173.12050042182756 L 799 163 L 794.8913041691081 173.20385312365931" stroke-miterlimit="10"/></g><g transform="translate(-186,-62) scale(1,1)"><g><path fill="none" stroke="none"/><text fill="#000000" stroke="none" font-family="Arial" font-size="13px" font-style="normal" font-weight="normal" text-decoration="none" x="742.5" y="270.5">«include»</text></g></g><g transform="translate(-186,-62) scale(1,1)"><path fill="none" stroke="#000000" d="M 306 399 L 564 336" stroke-miterlimit="10"/></g><g transform="translate(-186,-62) scale(1,1)"><path fill="#ffffff" stroke="none" d="M 495.93254367897725 657.6800000000001 C 495.93254367897725 652.8861679360001 499.81838600392274 649 504.61181640625 649 C 509.40524680857726 649 513.2910891335227 652.8861679360001 513.2910891335227 657.6800000000001 C 513.2910891335227 662.473832064 509.40524680857726 666.36 504.61181640625 666.36 C 499.81838600392274 666.36 495.93254367897725 662.473832064 495.93254367897725 657.6800000000001 Z"/></g><g transform="translate(-186,-62) scale(1,1)"><path fill="none" stroke="#000000" d="M 495.93254367897725 657.6800000000001 C 495.93254367897725 652.8861679360001 499.81838600392274 649 504.61181640625 649 C 509.40524680857726 649 513.2910891335227 652.8861679360001 513.2910891335227 657.6800000000001 C 513.2910891335227 662.473832064 509.40524680857726 666.36 504.61181640625 666.36 C 499.81838600392274 666.36 495.93254367897725 662.473832064 495.93254367897725 657.6800000000001 Z" stroke-miterlimit="10"/></g><g transform="translate(-186,-62) scale(1,1)"><path fill="none" stroke="#000000" d="M 504.61181640625 666.36 L 504.61181640625 683.64" stroke-miterlimit="10"/></g><g transform="translate(-186,-62) scale(1,1)"><path fill="none" stroke="#000000" d="M 495.42199822443183 672.84 L 513.8016345880682 672.84" stroke-miterlimit="10"/></g><g transform="translate(-186,-62) scale(1,1)"><path fill="none" stroke="#000000" d="M 504.61181640625 683.64 L 491.84818004261365 701" stroke-miterlimit="10"/></g><g transform="translate(-186,-62) scale(1,1)"><path fill="none" stroke="#000000" d="M 504.61181640625 683.64 L 517.3754527698864 701" stroke-miterlimit="10"/></g><g transform="translate(-186,-62) scale(1,1)"><g><path fill="none" stroke="none"/><text fill="#000000" stroke="none" font-family="Arial" font-size="13px" font-style="normal" font-weight="bold" text-decoration="none" x="472.0927734375" y="721.5">controlador</text></g></g><g transform="translate(-186,-62) scale(1,1)"><path fill="none" stroke="#000000" d="M 311 555 L 463 659" stroke-miterlimit="10"/></g><g transform="translate(-186,-62) scale(1,1)"><path fill="#FFFFFF" stroke="none" d="M 441.47124735412115 654.4708930778172 L 463 659 L 450.9794352310056 640.5743107962169"/></g><g transform="translate(-186,-62) scale(1,1)"><path fill="none" stroke="#000000" d="M 441.47124735412115 654.4708930778172 L 463 659 L 450.9794352310056 640.5743107962169 L 441.47124735412115 654.4708930778172" stroke-miterlimit="10"/></g><g transform="translate(-186,-62) scale(1,1)"><path fill="none" stroke="#000000" d="M 852 456 L 546 659" stroke-miterlimit="10"/></g><g transform="translate(-186,-62) scale(1,1)"><path fill="none" stroke="#000000" d="M 311 515 L 562 443" stroke-miterlimit="10"/></g></g></svg>