<svg version="1.1" xmlns="http://www.w3.org/2000/svg" xmlns:xlink="http://www.w3.org/1999/xlink" width="803" height="563"><defs/><g><text fill="#eeeeee" stroke="none" font-family="Arial" font-size="24px" font-style="normal" font-weight="normal" text-decoration="none" x="0" y="0">UNREGISTERED</text><text fill="#eeeeee" stroke="none" font-family="Arial" font-size="24px" font-style="normal" font-weight="normal" text-decoration="none" x="0" y="30">UNREGISTERED</text><text fill="#eeeeee" stroke="none" font-family="Arial" font-size="24px" font-style="normal" font-weight="normal" text-decoration="none" x="0" y="60">UNREGISTERED</text><text fill="#eeeeee" stroke="none" font-family="Arial" font-size="24px" font-style="normal" font-weight="normal" text-decoration="none" x="0" y="90">UNREGISTERED</text><text fill="#eeeeee" stroke="none" font-family="Arial" font-size="24px" font-style="normal" font-weight="normal" text-decoration="none" x="0" y="120">UNREGISTERED</text><text fill="#eeeeee" stroke="none" font-family="Arial" font-size="24px" font-style="normal" font-weight="normal" text-decoration="none" x="0" y="150">UNREGISTERED</text><text fill="#eeeeee" stroke="none" font-family="Arial" font-size="24px" font-style="normal" font-weight="normal" text-decoration="none" x="0" y="180">UNREGISTERED</text><text fill="#eeeeee" stroke="none" font-family="Arial" font-size="24px" font-style="normal" font-weight="normal" text-decoration="none" x="0" y="210">UNREGISTERED</text><text fill="#eeeeee" stroke="none" font-family="Arial" font-size="24px" font-style="normal" font-weight="normal" text-decoration="none" x="0" y="240">UNREGISTERED</text><text fill="#eeeeee" stroke="none" font-family="Arial" font-size="24px" font-style="normal" font-weight="normal" text-decoration="none" x="0" y="270">UNREGISTERED</text><text fill="#eeeeee" stroke="none" font-family="Arial" font-size="24px" font-style="normal" font-weight="normal" text-decoration="none" x="0" y="300">UNREGISTERED</text><text fill="#eeeeee" stroke="none" font-family="Arial" font-size="24px" font-style="normal" font-weight="normal" text-decoration="none" x="0" y="330">UNREGISTERED</text><text fill="#eeeeee" stroke="none" font-family="Arial" font-size="24px" font-style="normal" font-weight="normal" text-decoration="none" x="0" y="360">UNREGISTERED</text><text fill="#eeeeee" stroke="none" font-family="Arial" font-size="24px" font-style="normal" font-weight="normal" text-decoration="none" x="0" y="390">UNREGISTERED</text><text fill="#eeeeee" stroke="none" font-family="Arial" font-size="24px" font-style="normal" font-weight="normal" text-decoration="none" x="0" y="420">UNREGISTERED</text><text fill="#eeeeee" stroke="none" font-family="Arial" font-size="24px" font-style="normal" font-weight="normal" text-decoration="none" x="0" y="450">UNREGISTERED</text><text fill="#eeeeee" stroke="none" font-family="Arial" font-size="24px" font-style="normal" font-weight="normal" text-decoration="none" x="0" y="480">UNREGISTERED</text><text fill="#eeeeee" stroke="none" font-family="Arial" font-size="24px" font-style="normal" font-weight="normal" text-decoration="none" x="0" y="510">UNREGISTERED</text><text fill="#eeeeee" stroke="none" font-family="Arial" font-size="24px" font-style="normal" font-weight="normal" text-decoration="none" x="0" y="540">UNREGISTERED</text><text fill="#eeeeee" stroke="none" font-family="Arial" font-size="24px" font-style="normal" font-weight="normal" text-decoration="none" x="200" y="0">UNREGISTERED</text><text fill="#eeeeee" stroke="none" font-family="Arial" font-size="24px" font-style="normal" font-weight="normal" text-decoration="none" x="200" y="30">UNREGISTERED</text><text fill="#eeeeee" stroke="none" font-family="Arial" font-size="24px" font-style="normal" font-weight="normal" text-decoration="none" x="200" y="60">UNREGISTERED</text><text fill="#eeeeee" stroke="none" font-family="Arial" font-size="24px" font-style="normal" font-weight="normal" text-decoration="none" x="200" y="90">UNREGISTERED</text><text fill="#eeeeee" stroke="none" font-family="Arial" font-size="24px" font-style="normal" font-weight="normal" text-decoration="none" x="200" y="120">UNREGISTERED</text><text fill="#eeeeee" stroke="none" font-family="Arial" font-size="24px" font-style="normal" font-weight="normal" text-decoration="none" x="200" y="150">UNREGISTERED</text><text fill="#eeeeee" stroke="none" font-family="Arial" font-size="24px" font-style="normal" font-weight="normal" text-decoration="none" x="200" y="180">UNREGISTERED</text><text fill="#eeeeee" stroke="none" font-family="Arial" font-size="24px" font-style="normal" font-weight="normal" text-decoration="none" x="200" y="210">UNREGISTERED</text><text fill="#eeeeee" stroke="none" font-family="Arial" font-size="24px" font-style="normal" font-weight="normal" text-decoration="none" x="200" y="240">UNREGISTERED</text><text fill="#eeeeee" stroke="none" font-family="Arial" font-size="24px" font-style="normal" font-weight="normal" text-decoration="none" x="200" y="270">UNREGISTERED</text><text fill="#eeeeee" stroke="none" font-family="Arial" font-size="24px" font-style="normal" font-weight="normal" text-decoration="none" x="200" y="300">UNREGISTERED</text><text fill="#eeeeee" stroke="none" font-family="Arial" font-size="24px" font-style="normal" font-weight="normal" text-decoration="none" x="200" y="330">UNREGISTERED</text><text fill="#eeeeee" stroke="none" font-family="Arial" font-size="24px" font-style="normal" font-weight="normal" text-decoration="none" x="200" y="360">UNREGISTERED</text><text fill="#eeeeee" stroke="none" font-family="Arial" font-size="24px" font-style="normal" font-weight="normal" text-decoration="none" x="200" y="390">UNREGISTERED</text><text fill="#eeeeee" stroke="none" font-family="Arial" font-size="24px" font-style="normal" font-weight="normal" text-decoration="none" x="200" y="420">UNREGISTERED</text><text fill="#eeeeee" stroke="none" font-family="Arial" font-size="24px" font-style="normal" font-weight="normal" text-decoration="none" x="200" y="450">UNREGISTERED</text><text fill="#eeeeee" stroke="none" font-family="Arial" font-size="24px" font-style="normal" font-weight="normal" text-decoration="none" x="200" y="480">UNREGISTERED</text><text fill="#eeeeee" stroke="none" font-family="Arial" font-size="24px" font-style="normal" font-weight="normal" text-decoration="none" x="200" y="510">UNREGISTERED</text><text fill="#eeeeee" stroke="none" font-family="Arial" font-size="24px" font-style="normal" font-weight="normal" text-decoration="none" x="200" y="540">UNREGISTERED</text><text fill="#eeeeee" stroke="none" font-family="Arial" font-size="24px" font-style="normal" font-weight="normal" text-decoration="none" x="400" y="0">UNREGISTERED</text><text fill="#eeeeee" stroke="none" font-family="Arial" font-size="24px" font-style="normal" font-weight="normal" text-decoration="none" x="400" y="30">UNREGISTERED</text><text fill="#eeeeee" stroke="none" font-family="Arial" font-size="24px" font-style="normal" font-weight="normal" text-decoration="none" x="400" y="60">UNREGISTERED</text><text fill="#eeeeee" stroke="none" font-family="Arial" font-size="24px" font-style="normal" font-weight="normal" text-decoration="none" x="400" y="90">UNREGISTERED</text><text fill="#eeeeee" stroke="none" font-family="Arial" font-size="24px" font-style="normal" font-weight="normal" text-decoration="none" x="400" y="120">UNREGISTERED</text><text fill="#eeeeee" stroke="none" font-family="Arial" font-size="24px" font-style="normal" font-weight="normal" text-decoration="none" x="400" y="150">UNREGISTERED</text><text fill="#eeeeee" stroke="none" font-family="Arial" font-size="24px" font-style="normal" font-weight="normal" text-decoration="none" x="400" y="180">UNREGISTERED</text><text fill="#eeeeee" stroke="none" font-family="Arial" font-size="24px" font-style="normal" font-weight="normal" text-decoration="none" x="400" y="210">UNREGISTERED</text><text fill="#eeeeee" stroke="none" font-family="Arial" font-size="24px" font-style="normal" font-weight="normal" text-decoration="none" x="400" y="240">UNREGISTERED</text><text fill="#eeeeee" stroke="none" font-family="Arial" font-size="24px" font-style="normal" font-weight="normal" text-decoration="none" x="400" y="270">UNREGISTERED</text><text fill="#eeeeee" stroke="none" font-family="Arial" font-size="24px" font-style="normal" font-weight="normal" text-decoration="none" x="400" y="300">UNREGISTERED</text><text fill="#eeeeee" stroke="none" font-family="Arial" font-size="24px" font-style="normal" font-weight="normal" text-decoration="none" x="400" y="330">UNREGISTERED</text><text fill="#eeeeee" stroke="none" font-family="Arial" font-size="24px" font-style="normal" font-weight="normal" text-decoration="none" x="400" y="360">UNREGISTERED</text><text fill="#eeeeee" stroke="none" font-family="Arial" font-size="24px" font-style="normal" font-weight="normal" text-decoration="none" x="400" y="390">UNREGISTERED</text><text fill="#eeeeee" stroke="none" font-family="Arial" font-size="24px" font-style="normal" font-weight="normal" text-decoration="none" x="400" y="420">UNREGISTERED</text><text fill="#eeeeee" stroke="none" font-family="Arial" font-size="24px" font-style="normal" font-weight="normal" text-decoration="none" x="400" y="450">UNREGISTERED</text><text fill="#eeeeee" stroke="none" font-family="Arial" font-size="24px" font-style="normal" font-weight="normal" text-decoration="none" x="400" y="480">UNREGISTERED</text><text fill="#eeeeee" stroke="none" font-family="Arial" font-size="24px" font-style="normal" font-weight="normal" text-decoration="none" x="400" y="510">UNREGISTERED</text><text fill="#eeeeee" stroke="none" font-family="Arial" font-size="24px" font-style="normal" font-weight="normal" text-decoration="none" x="400" y="540">UNREGISTERED</text><text fill="#eeeeee" stroke="none" font-family="Arial" font-size="24px" font-style="normal" font-weight="normal" text-decoration="none" x="600" y="0">UNREGISTERED</text><text fill="#eeeeee" stroke="none" font-family="Arial" font-size="24px" font-style="normal" font-weight="normal" text-decoration="none" x="600" y="30">UNREGISTERED</text><text fill="#eeeeee" stroke="none" font-family="Arial" font-size="24px" font-style="normal" font-weight="normal" text-decoration="none" x="600" y="60">UNREGISTERED</text><text fill="#eeeeee" stroke="none" font-family="Arial" font-size="24px" font-style="normal" font-weight="normal" text-decoration="none" x="600" y="90">UNREGISTERED</text><text fill="#eeeeee" stroke="none" font-family="Arial" font-size="24px" font-style="normal" font-weight="normal" text-decoration="none" x="600" y="120">UNREGISTERED</text><text fill="#eeeeee" stroke="none" font-family="Arial" font-size="24px" font-style="normal" font-weight="normal" text-decoration="none" x="600" y="150">UNREGISTERED</text><text fill="#eeeeee" stroke="none" font-family="Arial" font-size="24px" font-style="normal" font-weight="normal" text-decoration="none" x="600" y="180">UNREGISTERED</text><text fill="#eeeeee" stroke="none" font-family="Arial" font-size="24px" font-style="normal" font-weight="normal" text-decoration="none" x="600" y="210">UNREGISTERED</text><text fill="#eeeeee" stroke="none" font-family="Arial" font-size="24px" font-style="normal" font-weight="normal" text-decoration="none" x="600" y="240">UNREGISTERED</text><text fill="#eeeeee" stroke="none" font-family="Arial" font-size="24px" font-style="normal" font-weight="normal" text-decoration="none" x="600" y="270">UNREGISTERED</text><text fill="#eeeeee" stroke="none" font-family="Arial" font-size="24px" font-style="normal" font-weight="normal" text-decoration="none" x="600" y="300">UNREGISTERED</text><text fill="#eeeeee" stroke="none" font-family="Arial" font-size="24px" font-style="normal" font-weight="normal" text-decoration="none" x="600" y="330">UNREGISTERED</text><text fill="#eeeeee" stroke="none" font-family="Arial" font-size="24px" font-style="normal" font-weight="normal" text-decoration="none" x="600" y="360">UNREGISTERED</text><text fill="#eeeeee" stroke="none" font-family="Arial" font-size="24px" font-style="normal" font-weight="normal" text-decoration="none" x="600" y="390">UNREGISTERED</text><text fill="#eeeeee" stroke="none" font-family="Arial" font-size="24px" font-style="normal" font-weight="normal" text-decoration="none" x="600" y="420">UNREGISTERED</text><text fill="#eeeeee" stroke="none" font-family="Arial" font-size="24px" font-style="normal" font-weight="normal" text-decoration="none" x="600" y="450">UNREGISTERED</text><text fill="#eeeeee" stroke="none" font-family="Arial" font-size="24px" font-style="normal" font-weight="normal" text-decoration="none" x="600" y="480">UNREGISTERED</text><text fill="#eeeeee" stroke="none" font-family="Arial" font-size="24px" font-style="normal" font-weight="normal" text-decoration="none" x="600" y="510">UNREGISTERED</text><text fill="#eeeeee" stroke="none" font-family="Arial" font-size="24px" font-style="normal" font-weight="normal" text-decoration="none" x="600" y="540">UNREGISTERED</text><text fill="#eeeeee" stroke="none" font-family="Arial" font-size="24px" font-style="normal" font-weight="normal" text-decoration="none" x="800" y="0">UNREGISTERED</text><text fill="#eeeeee" stroke="none" font-family="Arial" font-size="24px" font-style="normal" font-weight="normal" text-decoration="none" x="800" y="30">UNREGISTERED</text><text fill="#eeeeee" stroke="none" font-family="Arial" font-size="24px" font-style="normal" font-weight="normal" text-decoration="none" x="800" y="60">UNREGISTERED</text><text fill="#eeeeee" stroke="none" font-family="Arial" font-size="24px" font-style="normal" font-weight="normal" text-decoration="none" x="800" y="90">UNREGISTERED</text><text fill="#eeeeee" stroke="none" font-family="Arial" font-size="24px" font-style="normal" font-weight="normal" text-decoration="none" x="800" y="120">UNREGISTERED</text><text fill="#eeeeee" stroke="none" font-family="Arial" font-size="24px" font-style="normal" font-weight="normal" text-decoration="none" x="800" y="150">UNREGISTERED</text><text fill="#eeeeee" stroke="none" font-family="Arial" font-size="24px" font-style="normal" font-weight="normal" text-decoration="none" x="800" y="180">UNREGISTERED</text><text fill="#eeeeee" stroke="none" font-family="Arial" font-size="24px" font-style="normal" font-weight="normal" text-decoration="none" x="800" y="210">UNREGISTERED</text><text fill="#eeeeee" stroke="none" font-family="Arial" font-size="24px" font-style="normal" font-weight="normal" text-decoration="none" x="800" y="240">UNREGISTERED</text><text fill="#eeeeee" stroke="none" font-family="Arial" font-size="24px" font-style="normal" font-weight="normal" text-decoration="none" x="800" y="270">UNREGISTERED</text><text fill="#eeeeee" stroke="none" font-family="Arial" font-size="24px" font-style="normal" font-weight="normal" text-decoration="none" x="800" y="300">UNREGISTERED</text><text fill="#eeeeee" stroke="none" font-family="Arial" font-size="24px" font-style="normal" font-weight="normal" text-decoration="none" x="800" y="330">UNREGISTERED</text><text fill="#eeeeee" stroke="none" font-family="Arial" font-size="24px" font-style="normal" font-weight="normal" text-decoration="none" x="800" y="360">UNREGISTERED</text><text fill="#eeeeee" stroke="none" font-family="Arial" font-size="24px" font-style="normal" font-weight="normal" text-decoration="none" x="800" y="390">UNREGISTERED</text><text fill="#eeeeee" stroke="none" font-family="Arial" font-size="24px" font-style="normal" font-weight="normal" text-decoration="none" x="800" y="420">UNREGISTERED</text><text fill="#eeeeee" stroke="none" font-family="Arial" font-size="24px" font-style="normal" font-weight="normal" text-decoration="none" x="800" y="450">UNREGISTERED</text><text fill="#eeeeee" stroke="none" font-family="Arial" font-size="24px" font-style="normal" font-weight="normal" text-decoration="none" x="800" y="480">UNREGISTERED</text><text fill="#eeeeee" stroke="none" font-family="Arial" font-size="24px" font-style="normal" font-weight="normal" text-decoration="none" x="800" y="510">UNREGISTERED</text><text fill="#eeeeee" stroke="none" font-family="Arial" font-size="24px" font-style="normal" font-weight="normal" text-decoration="none" x="800" y="540">UNREGISTERED</text><g transform="translate(-94,-22) scale(1,1)"><rect fill="#C0C0C0" stroke="none" x="295" y="39" width="239.60000000000002" height="15" opacity="0.2"/></g><g transform="translate(-94,-22) scale(1,1)"><rect fill="#C0C0C0" stroke="none" x="295" y="53" width="599" height="338" opacity="0.2"/></g><g transform="translate(-94,-22) scale(1,1)"><rect fill="#ffffff" stroke="none" x="288" y="47" width="599" height="337"/></g><g transform="translate(-94,-22) scale(1,1)"><path fill="none" stroke="#000000" d="M 288 47 L 887 47 L 887 384 L 288 384 L 288 47 Z Z" stroke-miterlimit="10"/></g><g transform="translate(-94,-22) scale(1,1)"><rect fill="#ffffff" stroke="none" x="288" y="32" width="239.60000000000002" height="15"/></g><g transform="translate(-94,-22) scale(1,1)"><path fill="none" stroke="#000000" d="M 288 32 L 527.6 32 L 527.6 47 L 288 47 L 288 32 Z Z" stroke-miterlimit="10"/></g><g transform="translate(-94,-22) scale(1,1)"><rect fill="#ffffff" stroke="none" x="288" y="46" width="599" height="338"/></g><g transform="translate(-94,-22) scale(1,1)"><path fill="none" stroke="#000000" d="M 288 46 L 887 46 L 887 384 L 288 384 L 288 46 Z Z" stroke-miterlimit="10"/></g><g transform="translate(-94,-22) scale(1,1)"><g><path fill="none" stroke="none"/><text fill="#000000" stroke="none" font-family="Arial" font-size="13px" font-style="normal" font-weight="bold" text-decoration="none" x="540.536865234375" y="66.5">Registro relativo</text></g></g><g transform="translate(-94,-22) scale(1,1)"><path fill="#C0C0C0" stroke="none" d="M 383 104 C 383 94.6111584 444.56084 87 520.5 87 C 596.43916 87 658 94.6111584 658 104 C 658 113.3888416 596.43916 121 520.5 121 C 444.56084 121 383 113.3888416 383 104 Z" opacity="0.2"/></g><g transform="translate(-94,-22) scale(1,1)"><path fill="#ffffff" stroke="none" d="M 376 97 C 376 87.6111584 437.56084 80 513.5 80 C 589.43916 80 651 87.6111584 651 97 C 651 106.3888416 589.43916 114 513.5 114 C 437.56084 114 376 106.3888416 376 97 Z"/></g><g transform="translate(-94,-22) scale(1,1)"><path fill="none" stroke="#000000" d="M 376 97 C 376 87.6111584 437.56084 80 513.5 80 C 589.43916 80 651 87.6111584 651 97 C 651 106.3888416 589.43916 114 513.5 114 C 437.56084 114 376 106.3888416 376 97 Z" stroke-miterlimit="10"/></g><g transform="translate(-94,-22) scale(1,1)"><g><path fill="none" stroke="none"/><text fill="#000000" stroke="none" font-family="Arial" font-size="13px" font-style="normal" font-weight="bold" text-decoration="none" x="427.03857421875" y="104">GenerarTiempoEmitePosición</text></g></g><g transform="translate(-94,-22) scale(1,1)"><path fill="#ffffff" stroke="none" d="M 254.85344211647728 465.68 C 254.85344211647728 460.886167936 258.73928444142274 457 263.53271484375 457 C 268.32614524607726 457 272.21198757102275 460.886167936 272.21198757102275 465.68 C 272.21198757102275 470.473832064 268.32614524607726 474.36 263.53271484375 474.36 C 258.73928444142274 474.36 254.85344211647728 470.473832064 254.85344211647728 465.68 Z"/></g><g transform="translate(-94,-22) scale(1,1)"><path fill="none" stroke="#000000" d="M 254.85344211647728 465.68 C 254.85344211647728 460.886167936 258.73928444142274 457 263.53271484375 457 C 268.32614524607726 457 272.21198757102275 460.886167936 272.21198757102275 465.68 C 272.21198757102275 470.473832064 268.32614524607726 474.36 263.53271484375 474.36 C 258.73928444142274 474.36 254.85344211647728 470.473832064 254.85344211647728 465.68 Z" stroke-miterlimit="10"/></g><g transform="translate(-94,-22) scale(1,1)"><path fill="none" stroke="#000000" d="M 263.53271484375 474.36 L 263.53271484375 491.64" stroke-miterlimit="10"/></g><g transform="translate(-94,-22) scale(1,1)"><path fill="none" stroke="#000000" d="M 254.34289666193183 480.84 L 272.72253302556817 480.84" stroke-miterlimit="10"/></g><g transform="translate(-94,-22) scale(1,1)"><path fill="none" stroke="#000000" d="M 263.53271484375 491.64 L 250.76907848011365 509" stroke-miterlimit="10"/></g><g transform="translate(-94,-22) scale(1,1)"><path fill="none" stroke="#000000" d="M 263.53271484375 491.64 L 276.29635120738635 509" stroke-miterlimit="10"/></g><g transform="translate(-94,-22) scale(1,1)"><g><path fill="none" stroke="none"/><text fill="#000000" stroke="none" font-family="Arial" font-size="13px" font-style="normal" font-weight="bold" text-decoration="none" x="232.10546875" y="529.5">Dispositivo</text></g></g><g transform="translate(-94,-22) scale(1,1)"><path fill="#ffffff" stroke="none" d="M 120.40935031960228 465.68 C 120.40935031960228 460.886167936 124.29519264454774 457 129.088623046875 457 C 133.88205344920226 457 137.76789577414772 460.886167936 137.76789577414772 465.68 C 137.76789577414772 470.473832064 133.88205344920226 474.36 129.088623046875 474.36 C 124.29519264454774 474.36 120.40935031960228 470.473832064 120.40935031960228 465.68 Z"/></g><g transform="translate(-94,-22) scale(1,1)"><path fill="none" stroke="#000000" d="M 120.40935031960228 465.68 C 120.40935031960228 460.886167936 124.29519264454774 457 129.088623046875 457 C 133.88205344920226 457 137.76789577414772 460.886167936 137.76789577414772 465.68 C 137.76789577414772 470.473832064 133.88205344920226 474.36 129.088623046875 474.36 C 124.29519264454774 474.36 120.40935031960228 470.473832064 120.40935031960228 465.68 Z" stroke-miterlimit="10"/></g><g transform="translate(-94,-22) scale(1,1)"><path fill="none" stroke="#000000" d="M 129.088623046875 474.36 L 129.088623046875 491.64" stroke-miterlimit="10"/></g><g transform="translate(-94,-22) scale(1,1)"><path fill="none" stroke="#000000" d="M 119.89880486505683 480.84 L 138.27844122869317 480.84" stroke-miterlimit="10"/></g><g transform="translate(-94,-22) scale(1,1)"><path fill="none" stroke="#000000" d="M 129.088623046875 491.64 L 116.32498668323865 509" stroke-miterlimit="10"/></g><g transform="translate(-94,-22) scale(1,1)"><path fill="none" stroke="#000000" d="M 129.088623046875 491.64 L 141.85225941051135 509" stroke-miterlimit="10"/></g><g transform="translate(-94,-22) scale(1,1)"><g><path fill="none" stroke="none"/><text fill="#000000" stroke="none" font-family="Arial" font-size="13px" font-style="normal" font-weight="bold" text-decoration="none" x="113.9208984375" y="529.5">movil</text></g></g><g transform="translate(-94,-22) scale(1,1)"><path fill="none" stroke="#000000" d="M 275 455 L 352 200 L 485 115" stroke-miterlimit="10"/></g><g transform="translate(-94,-22) scale(1,1)"><path fill="none" stroke="#000000" d="M 296 455 L 432 291" stroke-miterlimit="10"/></g><g transform="translate(-94,-22) scale(1,1)"><path fill="#C0C0C0" stroke="none" d="M 351 280 C 351 270.6111584 397.3385232 263 454.5 263 C 511.6614768 263 558 270.6111584 558 280 C 558 289.3888416 511.6614768 297 454.5 297 C 397.3385232 297 351 289.3888416 351 280 Z" opacity="0.2"/></g><g transform="translate(-94,-22) scale(1,1)"><path fill="#ffffff" stroke="none" d="M 344 273 C 344 263.6111584 390.3385232 256 447.5 256 C 504.6614768 256 551 263.6111584 551 273 C 551 282.3888416 504.6614768 290 447.5 290 C 390.3385232 290 344 282.3888416 344 273 Z"/></g><g transform="translate(-94,-22) scale(1,1)"><path fill="none" stroke="#000000" d="M 344 273 C 344 263.6111584 390.3385232 256 447.5 256 C 504.6614768 256 551 263.6111584 551 273 C 551 282.3888416 504.6614768 290 447.5 290 C 390.3385232 290 344 282.3888416 344 273 Z" stroke-miterlimit="10"/></g><g transform="translate(-94,-22) scale(1,1)"><g><path fill="none" stroke="none"/><text fill="#000000" stroke="none" font-family="Arial" font-size="13px" font-style="normal" font-weight="bold" text-decoration="none" x="384.62646484375" y="280">GenerarCoordenadas</text></g></g><g transform="translate(-94,-22) scale(1,1)"><path fill="#C0C0C0" stroke="none" d="M 607 280 C 607 270.6111584 659.3826784 263 724 263 C 788.6173216 263 841 270.6111584 841 280 C 841 289.3888416 788.6173216 297 724 297 C 659.3826784 297 607 289.3888416 607 280 Z" opacity="0.2"/></g><g transform="translate(-94,-22) scale(1,1)"><path fill="#ffffff" stroke="none" d="M 600 273 C 600 263.6111584 652.3826784 256 717 256 C 781.6173216 256 834 263.6111584 834 273 C 834 282.3888416 781.6173216 290 717 290 C 652.3826784 290 600 282.3888416 600 273 Z"/></g><g transform="translate(-94,-22) scale(1,1)"><path fill="none" stroke="#000000" d="M 600 273 C 600 263.6111584 652.3826784 256 717 256 C 781.6173216 256 834 263.6111584 834 273 C 834 282.3888416 781.6173216 290 717 290 C 652.3826784 290 600 282.3888416 600 273 Z" stroke-miterlimit="10"/></g><g transform="translate(-94,-22) scale(1,1)"><g><path fill="none" stroke="none"/><text fill="#000000" stroke="none" font-family="Arial" font-size="13px" font-style="normal" font-weight="bold" text-decoration="none" x="647.635986328125" y="280">RealizaRegistroRelativo</text></g></g><g transform="translate(-94,-22) scale(1,1)"><path fill="#ffffff" stroke="none" d="M 363.82292453835225 505.68 C 363.82292453835225 500.886167936 367.70876686329774 497 372.502197265625 497 C 377.29562766795226 497 381.18146999289775 500.886167936 381.18146999289775 505.68 C 381.18146999289775 510.473832064 377.29562766795226 514.36 372.502197265625 514.36 C 367.70876686329774 514.36 363.82292453835225 510.473832064 363.82292453835225 505.68 Z"/></g><g transform="translate(-94,-22) scale(1,1)"><path fill="none" stroke="#000000" d="M 363.82292453835225 505.68 C 363.82292453835225 500.886167936 367.70876686329774 497 372.502197265625 497 C 377.29562766795226 497 381.18146999289775 500.886167936 381.18146999289775 505.68 C 381.18146999289775 510.473832064 377.29562766795226 514.36 372.502197265625 514.36 C 367.70876686329774 514.36 363.82292453835225 510.473832064 363.82292453835225 505.68 Z" stroke-miterlimit="10"/></g><g transform="translate(-94,-22) scale(1,1)"><path fill="none" stroke="#000000" d="M 372.502197265625 514.36 L 372.502197265625 531.64" stroke-miterlimit="10"/></g><g transform="translate(-94,-22) scale(1,1)"><path fill="none" stroke="#000000" d="M 363.31237908380683 520.84 L 381.69201544744317 520.84" stroke-miterlimit="10"/></g><g transform="translate(-94,-22) scale(1,1)"><path fill="none" stroke="#000000" d="M 372.502197265625 531.64 L 359.73856090198865 549" stroke-miterlimit="10"/></g><g transform="translate(-94,-22) scale(1,1)"><path fill="none" stroke="#000000" d="M 372.502197265625 531.64 L 385.26583362926135 549" stroke-miterlimit="10"/></g><g transform="translate(-94,-22) scale(1,1)"><g><path fill="none" stroke="none"/><text fill="#000000" stroke="none" font-family="Arial" font-size="13px" font-style="normal" font-weight="bold" text-decoration="none" x="319.75634765625" y="569.5">sistema de mapas</text></g></g><g transform="translate(-94,-22) scale(1,1)"><path fill="none" stroke="#000000" d="M 425 495 L 693 291" stroke-miterlimit="10"/></g><g transform="translate(-94,-22) scale(1,1)"><path fill="none" stroke="#000000" d="M 155 495 L 223 495" stroke-miterlimit="10"/></g><g transform="translate(-94,-22) scale(1,1)"><path fill="#FFFFFF" stroke="none" d="M 202.6746502847517 503.419035512032 L 223 495 L 202.6746502847517 486.580964487968"/></g><g transform="translate(-94,-22) scale(1,1)"><path fill="none" stroke="#000000" d="M 202.6746502847517 503.419035512032 L 223 495 L 202.6746502847517 486.580964487968 L 202.6746502847517 503.419035512032" stroke-miterlimit="10"/></g><g transform="translate(-94,-22) scale(1,1)"><path fill="none" stroke="#000000" d="M 696 255 L 534 115" stroke-miterlimit="10" stroke-dasharray="3"/></g><g transform="translate(-94,-22) scale(1,1)"><path fill="none" stroke="#000000" d="M 544.4416593095818 118.46002180088836 L 534 115 L 538.9367632261835 124.82997298310642" stroke-miterlimit="10"/></g><g transform="translate(-94,-22) scale(1,1)"><g><path fill="none" stroke="none"/><text fill="#000000" stroke="none" font-family="Arial" font-size="13px" font-style="normal" font-weight="normal" text-decoration="none" x="567.5" y="213.5">«include»</text></g></g><g transform="translate(-94,-22) scale(1,1)"><path fill="none" stroke="#000000" d="M 599 273 L 552 273" stroke-miterlimit="10" stroke-dasharray="3"/></g><g transform="translate(-94,-22) scale(1,1)"><path fill="none" stroke="#000000" d="M 562.1626748576241 268.790482243984 L 552 273 L 562.1626748576241 277.209517756016" stroke-miterlimit="10"/></g><g transform="translate(-94,-22) scale(1,1)"><g><path fill="none" stroke="none"/><text fill="#000000" stroke="none" font-family="Arial" font-size="13px" font-style="normal" font-weight="normal" text-decoration="none" x="546.5" y="309.5">«include»</text></g></g></g></svg>